<svg width="390" height="248" xmlns="http://www.w3.org/2000/svg">
  <path d="M0 234.009h5.526V0H0Z" fill="#00685c"/>
  <path d="M137.803 38.9c.957 2.61 2.828 3.524 4.264 2.872-3.176-.392-.61-5.874-4.743-5.874-.217 0-.435.044-.652.089-.697-.74-1.48-1.044-2.698-1.044-1.74 0-4.743 1.653-4.743 5.178 0 7.484 8.702 8.137 8.702 14.75 0 1.959-1.435 3.177-3.089 3.177-1.48 0-2.654-1.654-3.872-4.22-.61-1.219-1.872-2.916-3.22-4.657.435.261.87.436 1.305.436a1.51 1.51 0 0 0 1.218-.436c.304-.26.48-.696.523-1.174v-.09c0-.565-.26-1.174-.74-1.653-.435-.522-1.088-.783-1.697-.827-.479 0-.913.13-1.218.436-.304.304-.48.74-.48 1.175v.089c0 .26.045.522.131.74-1.87-2.437-3.611-4.83-3.611-6.136 0-1.174.783-2.219 1.784-3.437.044.044.347.217.347.217l.26-.304c.348-.392 1.09-1.175 2.568-2.785l.09-.089.347-.392-.914-.74c.218-.566.436-1.174.61-1.87.305 1.218.913 2 1.784 1.74-.566-1.262.566-2.915-.174-5.961.696 1.175 1.74 1.784 2.48 1.566-1.958-1.697.566-4.09-1.958-7.789.827.306 1.392.13 1.74-.26-2.306-.348-1.261-3.264-5.264-4.308 1.001-.174 1.566-.783 1.436-1.305-1.089.783-2.002-1.393-5.483-1.35-.217-1.305-1.436-2.697-2.785-3.35.26 1 0 1.915-.26 2.655l-11.357-11.14c-.348-.305-.523-.392-.61-.26-.089.13-.089.304.13.566l9.748 12.227c-.74.26-1.436.522-2.22.826-.479.174-.826.653-.826 1.262-1.828.913-3.394 2.001-4.177 2.741-.61.523-1.089.653-.566 1.915.217.435-.436 1.61 1 .74.914-.523 3.003-1.697 3.307-.957.174.392-.87.87-1.566 1.131-.697.26-1.48.827-1.393 1.087.13.305.696 0 .74.305.045.304.26.61.522.61.304 0 .653-.61.914-.391.217.173-.13 1.523-.348 1.827 1.089-.13 1.784-1.175 1.828-2.001.044-.827.26-1 .435-1.132.174-.089.348.87.13 1.48.61-.13 1.175-.87 1.132-2.306.26-.218.566-.391.783-.391.392 0 1.131 1 2.176 1 1.914 0 3.002-1.567 3.133-2.306.089-.566.044-1.175-.305-1.61.697.566.914 1.436.914 2.088 0 2.742-4.83 4.047-6.788 5.918-.09.045-.174.13-.26.217l-2.263-.913-.13.522c0 .045-.045.13-.131.436-.26.783-.74 2.393-1.044 3.35l-.13.348.217.13c-1.349 1.784-2.437 3.786-2.698 5.83-.522-.565-1.044-1-1.653-1.478.089-.218.13-.436.13-.653.045-.61-.13-1.175-.522-1.61-.261-.304-.653-.48-1.044-.523-.392 0-.783.13-1.088.436-.09.044-.13.13-.218.174-.089-.045-.13-.13-.217-.174-.783-.566-1.697-1.262-2.263-1.871-.217-.26-.479-.391-.956-.391-.218 0-.697-.045-1.044-.045-.304 0-.523.26-.914.61-.173.173-.696.565-1.261 1 .26.305.522.566.826.87.13.174.26.347.436.522.13-.13.26-.217.392-.304.217-.217.522-.26.826-.26.304 0 .697.217 1 .652.174.305 2.046 2.742 3.569 4.395-.174.09-.348.13-.523.217-.61.26-2.088.174-2.741.13-.653-.044-.783-.217-1.218.48-.174.26-.393.609-.61.87-.217.26-.39.565.09 1.348.652 1.132 2.305 4.09 2.871 5.44.566 1.348 1.218 1.566 2.263 2.001 1.043.436 2.872 1.48 3.09 1.697l.044-1.001c-.304-.348-1.306-.697-1.697-.827-.392-.174-.48-.304 0-.304.435 0 1.697.436 2.61.783-.26-1-1.218-2.088-1.827-2.698-.74-.26-1.523-.26-1.827 0 .044.218-.13.48-.436.48-.305 0-.522-.261-.392-.523.089-.305.522-.392.435-1.002-.089-.565-.826-.652-1.261-.696a39.087 39.087 0 0 1-1.74-2.872c-.348-.565-.131-.87.088-1.087.566-.435 1.697.261 4.003.391.827.045 1.828.13 2.872.174.305 2.654 1.393 5.222 5.091 6.135 1.828.48 3.742 1.828 4.395 3.568-7.484-.13-8.66 2.741-8.66 5.483 0 3.133 2.655 2.959 2.655 5.308 0 2.045-6.266 2.872-8.18 3.177-1.61.217-2.524.566-3.307 1.349-.74.783-1.523 1.522-2.915 2.915 0 0 .565.13 1.174.089l1.044-1.349c.305-.479.566-.87.74-.826.217.044.089.392-.174.87l-.87 1.48c3.699.26 3.916-1.132 3.916-1.654 0-.566-.913-.957-.392-1.306.566-.347 1-.13 1.436.392.392.48.566.914 1.566.523 0 0 8.007-3.35 9.007-3.786.914-.435.653-.826.13-1.262-.609-.522-.695-1.305-.695-2.132 0-2.436 1.435-3.176 4.046-3.133-.044.392-.044.783-.044 1.175 0 3.786 5.7 7.484 7.266 7.484.696 0 1.61-.522 1.654 1.74.044 1.698.392 2.873.089 4.83-.306 1.915-.87 2.22-2.002 3.047-1.175.826-2.263 3.393-2.785 3.916.523.347 1.089.392 1.523-.87.348-1.044.783-1.74 1.219-2.002-.48 1.131-.784 2.785-1 3.307 1.479.26 3.828-1.087 3.828-2.089 0-1.043-.826-.956-.826-1.653 0-.304.392-.653.826-.653.566 0 1.044.48 1.089.696.609-.347 1.043-1 1-2.523 0-.566 0-1.175-.045-1.828.045.09.09.174.13.26.261.436.74.697 1.306.74a2.392 2.392 0 0 0 1.61-.435c.566-.392 1-.957 1.088-1.523.045-.13.045-.26.045-.392 0-.304-.09-.61-.26-.87-.218-.392-.61-.61-1.09-.74-.565-.13-1.26.045-1.827.436a2.235 2.235 0 0 0-1.043 1.392c-.13-2.088-.306-4.003-.218-4.786.09-1.175.13-1.697-.26-1.871-.392-.174-.827.479-1.393.479-.565 0-2.219-1.523-2.219-3.176 0-1.654 1.74-3.743 1.654-6.005 0-.696.435-1.044.696-.392.348.74.827 1.784 1.61 2.61-.48 2.829 2.61 5.57 5.178 3.525-1.262.217-2.132-.913-2.698-2.045.217.045.436.09.696.09.13 0 .26-.046.392-.046.87 1.132 3.699 1.044 4.439-1.74-.48.61-1.48 1.044-2.263.913 1.088-.826 1.653-2.175 1.653-3.655 0-7.136-8.658-7.962-8.658-14.446 0-2.436 2.088-4.003 3.568-4.003.565 0 1 .217 1.348.436-.566.566-.87 1.436-.826 2.523.217 5.135 8.615 4.874 8.746 7.31.913-3.698-5.352-2.567-5.57-7.57m-22.322-19.712c.436-.783 0-1.958 1.436-1.958.697 0 1.306.697 2.133.957-1.35.13-2.568.436-3.569 1.002m-7.658 15.751c-.044.392-.173.783-.435 1.044-.13.089-.348.217-.566.217-.48-.045-.87-.61-.87-1.262v-.089c.045-.436.174-.783.435-1.044.13-.089.348-.217.566-.217.261.045.436.174.523.304.26.26.392.653.347 1.044m24.802 36.071c.045-.392.348-.783.74-1.043.436-.304.87-.392 1.305-.304.174.044.436.13.61.39.173.261.13.523.13.697-.13.435-.392.826-.783 1.088-.74.436-1.566.392-1.915-.089-.173-.26-.13-.522-.089-.74m-5.221-23.931c0-.174.044-.48.26-.653.218-.217.48-.26.697-.26a1.83 1.83 0 0 1 1.175.609c.347.347.522.783.522 1.218-.045.174-.09.435-.304.653a1.061 1.061 0 0 1-.653.217c-.435 0-.87-.217-1.218-.566-.305-.348-.523-.827-.48-1.218m-14.228-16.144 1.175-3.785 1.306.522c-.393.174-.87.523-1.262.914.304.13.826.13 1.175-.09l-.523 1.306c-.13-.217-.479-.696-.87-.74-.26 1.044.436 1.436.914 1.697.783.392 1.305.48 1.523.09.26-.436-.261-1.088-.914-.784-.089-.696.304-1.088.74-1.088.392 0 .653.348.783.783-.09-1.131.435-2.001 1.48-2.306.39 1.088.088 1.828-.74 2.61.435-.173.913-.13 1.088.174.26.348.174.87-.436 1.219-.13-.74-.956-.783-1.218-.304-.217.435.13.87.87 1.305.87.48 1.567.217 2.002-.566-.26-.089-.783-.044-1.219.26l.87-1.653c.045.261.174.653.566.957.13-.347.305-1 .045-1.566l1.914 1.088c-.652.045-1.13.522-1.348.827.435.173.87.089 1.088 0l-1.002 1.61c.045-.566-.13-1-.39-1.219-.393.783-.306 1.523.522 2.045.74.436 1.305.523 1.61.09.26-.48-.217-1.132-.914-.914 0-.696.392-1.044.87-1 .348 0 .61.435.697.87.26-1.088.74-1.74 1.87-1.958.261 1.088-.26 1.958-1.261 2.48.435-.13.87-.045 1.043.26.218.393.13.914-.522 1.175-.09-.696-.913-.87-1.175-.39-.217.347.09.782.87 1.261.479.304 1.131.696 1.915-.089-.261-.26-.87-.347-1.089-.347l.87-1.132c-.044.436.26.914.523 1.088.13-.565.217-1.13.173-1.523l1.089.87s-1.784 1.915-2.655 2.916zm11.749 29.589c-.48.696-1.306.913-1.828.566-.522-.392-.566-1.219-.089-1.915.48-.653 1.262-.913 1.784-.522.566.347.61 1.218.13 1.87m3.394-5.395c-.479.653-1.262.914-1.784.523-.566-.348-.566-1.219-.13-1.871.479-.697 1.305-.914 1.828-.566.522.392.565 1.262.089 1.914m-21.07-13.229c-.435.13-.783.436-.956.827-.48.957.089 2.132 1.218 2.654.61.304 1.305.392 1.871.174.479-.174.827-.436 1-.827.174-.392.174-.87.045-1.305a2.534 2.534 0 0 0-1.305-1.392 2.347 2.347 0 0 0-1.872-.13m.61 2.828c-.783-.348-1.175-1.089-.914-1.654a.971.971 0 0 1 .566-.479c.392-.13.87-.089 1.306.13.435.174.783.566.913.957.045.174.09.436 0 .696-.174.261-.392.391-.566.48-.392.13-.87.089-1.305-.13m13.618 20.668c-.435.392-.696 1.044-.696 1.74v.045c0 .653.217 1.305.653 1.697.304.347.74.566 1.175.566.435 0 .826-.174 1.174-.523.436-.392.697-1.043.74-1.74a2.77 2.77 0 0 0-.479-1.567c-.348-.479-.827-.696-1.349-.74-.435 0-.87.175-1.218.523m1.131 3.264c-.304 0-.522-.13-.653-.304-.305-.261-.435-.74-.435-1.219 0-.479.174-.913.479-1.218.13-.13.392-.304.696-.304.61.044 1.088.74 1.044 1.566 0 .48-.174.957-.48 1.219-.13.13-.347.304-.652.26m-13.705-39.25c-.913.697-1.175 1.871-.61 2.655.567.74 1.785.783 2.699.044.478-.347.826-.913.87-1.436.044-.435-.045-.87-.306-1.174-.217-.306-.61-.523-1-.566-.566-.09-1.175.13-1.654.479m-.173 1.697c0-.348.217-.784.609-1.089.348-.26.74-.39 1.088-.347.174 0 .392.089.566.305.174.174.174.435.13.61-.044.347-.26.695-.609.956-.566.436-1.305.48-1.653.045a.861.861 0 0 1-.13-.48m16.186 39.116c-.393.26-.653.61-.74 1.044-.09.522.044 1.043.435 1.479.391.392.87.696 1.48.783.566.09 1.175 0 1.61-.217.522-.304.87-.696.957-1.218.173-1.002-.697-2.002-1.915-2.263-.653-.09-1.349 0-1.827.392m1.305 2.567c-.827-.13-1.436-.783-1.305-1.349.044-.304.26-.522.392-.653.347-.217.826-.304 1.305-.217.74.13 1.305.696 1.305 1.262v.13c-.13.61-.87.957-1.697.827m9.53-5.265a2.915 2.915 0 1 0 5.83 0 2.915 2.915 0 0 0-5.83 0m.739 0c0-1.175.957-2.176 2.175-2.176 1.175 0 2.132 1 2.132 2.176 0 1.175-.956 2.176-2.132 2.176-1.218 0-2.175-1-2.175-2.176m-66.66-16.622c.26-.696-1.045-1.523-1.22-2.567-.13-1.044 0-2.001-1.174-3.394-1.175-1.349-5.222-5.656-6.44-7.049.304-.044 1.044-.174 1.784.523a65.499 65.499 0 0 1 2.089 2.001c1.087-2.698 2.393-4.743 4.307-6.875.218-.26.48-.522.697-.783-.653.217-1.741.391-2.35.783-.09-1.175.045-2.132-.783-2.872.304-1.653.044-3.655-3.655-6.135 1.87.436 3.002 2.176 4.438.87-1.262-.044-1.305-2.915-6.005-5.265 1.784-.044 3.177 2.872 5.265 1.219-1.958-.218-2.61-3.699-6.135-4.787 1.219.13 2.48.74 3.525-.696-1.219.305-1.958-.827-3.264-.913.48-1.523.391-2.48-.13-3.612-.957.045-1.871.348-2.567.87-.09-.826-1-.87-1.784-.826.089.39.26.913-.174.956-.61.13-2.741.697-4.351 1.35-1.61.609-3.481 1.783-4.003 2.131-.348.218-.61-.305-.827-.522-.566.479-1.131 1.088-.696 1.74-.914.09-1.915.304-2.741.957 0 1.087.87 2.089 2.132 2.654-2.176 2.176-.174 4.178-2.089 6.049 2.698.13 2.22-3.655 3.568-4.177-.13 2.654-1.61 3.132-1.61 5.96 0 1.524.914 3.22.09 4.221 2.262-.652 1.696-5.656 3.089-7.136.26.87.089 1.697-.174 2.524-.827 2.35.089 5.526-1.175 6.57 2.306-.217 2.61-3.916 4.482-5.265-1.61 3.307-3.307 10.4-5.744 13.968-3.916 5.308-6.222 11.748-9.834 11.748-1.61 0-2.784-.957-2.784-2.959 0-6.048 10.312-10.182 10.312-16.621 0-2.829-2.306-3.96-3.786-3.96-.956 0-2.132.522-3.176 1.349a2.489 2.489 0 0 0-1.175-.304c-3.655 0-2.698 6.57-5.874 6.527 1.262.696 3.437-.697 4.7-2.524-.523 4.264-6.658 3.133-6.18 8.267.87-4.003 10.618-3.437 10.618-9.529 0-.696-.348-1.262-.827-1.697.74-.479 1.436-.653 2.045-.653 1.175 0 2.263.87 2.263 2.611 0 5.396-10.313 9.92-10.313 16.535 0 1.088.348 2.045.87 2.784-.696.306-1.48.13-2.088-.565-.045 1.697 2.393 2.784 3.916 1.914.347.13.696.174 1.044.217-.436 1.262-2.002 1.654-2.829 1.567 2.524 2.001 6.919-.61 6.658-2.828 2.001-1.654 3.263-4.395 4.743-6.223-.13.436-.174.827-.261 1.262-1.48 2.698-2.828 5.091-3.22 8.616-.304 2.958-1.828 5.613-3.916 5.613-.436 0-1.175-.61-1.567-.304-.609.565 0 1.13 0 1.697 0 .826-1.61 1.696-1.61 4.264 0 1.175.653 2.567.393 3.35.652-.347 1.566-1.436 1.914-2.872.696 3.438-1.48 3.264.09 6.31.216-1.002 1.217-1.436 1.827-1.002.609.436.347.696-.13 1.175-.436.436-.87 2.741 1.218 2.567-.393-.217-.436-.826.609-1.043 1.436-.305 1.827.347 3.35.347.957 0 1.219-1.218 1.958-1.218.74 0 .74.61.48 1 1.218-.304 1.435-.957 1.435-1.653 0-.697-.566-1.088-.13-1.35.436-.26 1.827.045 1.262 1.176.74-.13 1.131-.653 1.131-1.523 0-.914-1-1.393-1.958-1.262-.174-.523-.957-.827-1.74-.827-1.654 0-1.393 1.35-2.568 1.35-1.827 0-3.655-2.438-3.655-6.484 0-2.176 2.35-2.741 4.003-3.438 1.654-.696 4.57-2.48 6.31-5.395 1.349-2.306 1.392-4.786 1.218-7.745 2.306 1.305 2.61 3.263 2.61 4.656 0 1.783-.956 2.523-1.696 2.871-.653.304-.827.174-.914.523-.089.479.218.74.523.87.826.435.653 1.262.913 2.132.218.87 1.002 2.262 2.306 3.263.13-.566.09-1.392 0-2.523 1.828.87.348 4.481 3.83 4.481-.61-.392-.436-1.349-.09-1.48.393-.13.827.261 1.523 1.176.653.957.48.87 2.132.87 1.654 0 .914-.566 1.784-.566s.784 1 .306 1.74c1.479-.435 1.914-1.566 1.435-2.698 1.306-.696 1.959.305 2.176 1 1.262-1.261 0-2.827-1-2.915.044-.479-.392-.956-.957-1-.523-.044-1.044-.089-1.653-.044-.566.044-.914.913-1.61.913-2.176 0-6.527-3.96-6.527-5.657 0-1.74 4.133-2.784 4.133-5.395 0-3.481-3.394-4.656-6.265-6.875 1-1.175 4.003-1.436 5.7-.61.173-.956.826-.74 1.043-2.393.61 1.48-.044 2.742.61 3.35.479-.695 1.697-.608 1.61-2.436.392 1.131-.48 2.872.392 3.655.13-.957.696-1.131 1.044-1.131.347 0 .652.26.652.826 0 1.393-1.697.74-1.697 2.307 0 .652.827.87.827 1.305 0 .392-.696 1.088-1.48.522.261.61.783 1.132 1.523 1.132.74 0 1.567-.61 1.871-1.393.392 1 .09 2.089-.609 2.263.74.347 2.524 0 2.35-2.306 1 .173 1.523.87.913 2.088.827-.217 1.61-.61 1.61-1.48 0-.695-.74-.913-.435-1.783M50.305 19.664c-.957.09-.914-.826-2.568-1.218 1.175-.217 2.655-.827 3.96-1.306.26 1.089-.174 2.437-1.392 2.524m6.7 7.093c-1.218.522-2.175-.566-2.393-1.262-.26-.74-.435-1.35-.174-1.61.523-.523.697-.914.391-1.567-.347-.74-1.174-.392-2.001-.173.392-.74.435-1.219-.13-1.175-.653.089-.653 1.131-1.002 1.001-.347-.13-.174-.74-.174-1.044.045-.435.304-.609.74-.783l3.525-1.348c.435-.174.783-.261 1.088.044.217.26.783.523.61.87-.175.348-.914-.39-1.437 0-.435.348-.044.696.74.913-.74.436-1.566.74-1.305 1.523.217.697.609.827 1.348.87.393 0 .697.566 1 1.262.348.653.436 1.915-.826 2.48m.17-9.788c-.914.74-2.176.044-2.742-.914 1.306-.522 2.785-1.131 3.786-1.74-.914 1.436-.26 2.045-1.044 2.654m-2.132-8.92c.26.39.392.61.392.913a2.018 2.018 0 0 1-.696-.61l.13 1.567c.174-.305.348-.479.566-.565-.045 1-.48 1.435-.827 1.479a.634.634 0 0 1-.783-.522c-.089-.436.304-.697.696-.305.09-.956-.652-.956-1-.522.392-.913.217-1.523-.566-2.001-.522.826-.304 1.392.348 2.045-.653-.304-1.175.217-.653.913.13-.61.653-.479.783 0 .09.436-.304.957-.957 1.175-.957.26-1.305-.348-1.523-.87.218-.13.697-.09 1.262.26l-.479-1.522c-.217.522-.522.74-.913.913-.045-.436.304-1.349.304-1.349l-1.871.783s.87.392 1.175.74c-.392.13-.783.217-1.349 0l.74 1.392c.173-.609.479-1 .74-1.043.173.522.391 1.174-.48 1.653-.652.304-1.305.217-1.523-.13-.217-.436.045-.914.566-.566-.089-.87-.87-.87-1.087-.217 0-.914-.217-1.436-1.175-1.697-.26.913.045 1.436.957 1.827-.479-.089-1.044.436-.347 1.088 0-.565.478-.652.74-.26.173.26.173.696-.218.913-.304.217-.87.174-1.61-.522.217-.09.436-.045.783.044l-1-1.218c.044.435.044.74-.045.913-.217-.217-.304-.435-.39-.913l-.74.696c.696.436 1.523 1.088 2.523 2.48 1.044-.652 2.96-1.566 4.134-2.045 1.131-.479 3.133-1.131 4.351-1.392-.26-1.697-.13-2.741.09-3.568zM47.254 5.96l.566 1.175.653-.826c.044 0 .089 0 .089.044.044.392.089 1.088.089 1.436 0 .479.392.87.87.87.479 0 .87-.391.87-.87 0-.304-.217-.61-.48-.74-.347-.26-.695-.609-.956-.87.045-.044.045-.089.045-.13l1.131.09-.436-1.176-.826.697h-.09l-.044-1.262-1.175.435.783.957c-.044 0-.044.045-.044.09zm4.308.914a.683.683 0 0 0 0-.957.683.683 0 0 0-.957 0 .683.683 0 0 0 0 .957c.26.26.696.26.957 0m1.523-1.131a.683.683 0 0 0 0-.957.683.683 0 0 0-.957 0 .683.683 0 0 0 0 .957c.26.26.696.26.957 0m1.784.304a.683.683 0 0 0 0-.957.683.683 0 0 0-.957 0 .683.683 0 0 0 0 .957c.26.26.696.26.957 0m.13 1.436c.304.26.697.26.957 0a.683.683 0 0 0 0-.957.683.683 0 0 0-.957 0 .683.683 0 0 0 0 .957m-7.614 1.218a.67.67 0 0 0 .652-.652c0-.392-.305-.697-.652-.697a.687.687 0 0 0-.697.697c0 .347.306.652.697.652m-1.828.131c.392 0 .696-.304.696-.653a.687.687 0 0 0-.696-.696c-.347 0-.653.304-.653.696a.67.67 0 0 0 .653.653m-.348.783c0-.347-.304-.653-.696-.653a.64.64 0 0 0-.653.653c0 .392.26.696.653.696a.687.687 0 0 0 .696-.696m.218 1.828a.687.687 0 0 0-.696-.696c-.348 0-.653.305-.653.696a.67.67 0 0 0 .653.652c.392 0 .696-.305.696-.652m45.035 48.429c0 .044.089.089.174.13 1.087.304 2.306-.479 2.958-.304-.826-.305-1.392.217-2.175.045.479 0 .957-.09 1-.218-.39.218-1.436-.173-1.87.09-.046.044-.046.044-.09.089-.304.089-.61.26-.61.479 0 .74 2.742.173 2.742.392 0 .217-.522.392-1.262.392-.566 0-1.48-.348-2.698-.09.09-.216.348-.522.218-.652.13-.045.173-.09.217-.174-.09-.089-.174-.089-.217-.089.044-.089 0-.13-.045-.174 0 0-.045-.089-.045-.13-.044 0-.13-.09-.26-.13-.09-.09-.174-.09-.217-.09-.045 0-.13.045-.13.045-.09 0-.131 0-.174.045-.045-.045-.09-.09-.174-.09-.045.09-.045.174 0 .305-.09 0-.217.217-.304.217l.089.089c-.09.13-.09.304-.174.304.044.045.044.09.09.13-.046.218-.09.48-.046.653-.173-.174-.435-.566-.609-.653-.13-.13-.13-.173-.13-.347 0-.13.044-.26.044-.392 0 0-.044-.09-.044-.13 0-.09-.13-.13-.217-.13.044.044.089.044.089.13-.045.044-.045.089-.045.089-.044.044-.044.089 0 .13v.089c0 .045 0 .045-.044 0 0-.09-.045-.217-.13-.217h-.09v-.045c0-.089-.089-.174-.217-.044 0 0 .089 0 .089.044 0 .045-.045.09-.045.09 0 .088.09.13.218.13v.044c.044 0 .044.045.044.045h-.044c-.174-.09-.261 0-.261.089v.089c-.045.045-.09.13.045.217 0-.044 0-.13.044-.13h.045l.044.044s.045 0 .09-.044h.044c.045 0 .045.044.045.044.044 0 .044 0 0 .045-.09.09-.09.217.089.217v.045c0 .217-.304.174-.26-.045-.175.26.13.48.303.348.045-.045.045 0 .045 0 0 .044.044.089.089.089 0-.045 0-.045.044-.045 0 .045.045.13.13.174-.044-.044 0-.13 0-.13.045 0 0 .347.348.566.045.173.174.26.348.26.089.13.174.26.13.26-.044 0-.435-.044-.522 0-.09.045-.217.131-.348.131l-.044.045c0-.045.044-.045.044-.045-.13 0-.217 0-.26-.044-.045-.09-.045-.13-.09-.217-.044-.045-.089-.09-.13-.09h-.089c-.045-.044-.174-.089-.26-.044.089.044.13.044.173.13l-.044.045c-.045.089 0 .13.217.217 0 0 .044.045 0 .045h-.13c-.09-.09-.09-.174-.218-.13l-.044.044H85.9c-.089-.045-.26.089-.174.217 0-.045.045-.09.13-.09v.046c.045.13.09.217.305.044.044 0 .044.045.044.045-.089.089-.217.173-.089.26 0 0 0 .045.045.045v.044c-.045.13.13.218.174.218 0-.045-.09-.09-.045-.218 0 .045.045.045.045.045.13-.045.089-.217.13-.26.045 0 .045 0 .045.044 0 .045.044.174.173.174.13 0 .174-.13.174-.217.045.044.09.089.09.13 0 0 .088-.045.088-.09.045.09.045.175-.044.218.044 0 .174-.045.217-.217.045.044.045.044.045.089h.304v.13s.044-.044.089-.044c.044 0 0 .13.089.217 0-.348.217-.217.435-.391v.044c0 .045-.044.09-.089.09.09 0 .348-.09.348-.218 0-.044.13-.217.174-.609h.089c.304 0 .435-.217.74-.26-.09.088-.09.303-.09.435 0 .174.217.347.26.392v.045c-.088 0-.216 0-.216.044-.261.13-.261-.347-.523-.26l-.044.044c-.09 0-.261.13-.218.217.045-.044.09-.089.174-.089v.045c0 .044 0 .089.09.089.044 0 .044-.045.088-.045l.045.045c0 .09-.304-.045-.26.217 0 0 .044.045.044.09 0 .088.045.13.174.088 0 0-.09-.044-.045-.089h.045s.044 0 .044-.044c.045 0 .045 0 .045.044v.134c0 .09.13.174.26.09-.044 0-.13 0-.13-.046.045-.044.09-.044.09-.044v-.09c0-.044.044-.044.044-.044h.045c.044 0 .044 0 .044.045.045.044.13.089.217.044.174-.044.045-.173.174-.217h.09c.13.045.216.045.26 0 .044-.089.044-.304-.13-.39-.045-.045.13-.567-.261-.827.174.044.783.13.913 0 .174.044.391.173.391.173.045.045.045.09 0 .13-.174.09-.13.175-.26.175-.045-.045-.09-.13-.13-.13-.09-.045-.131-.045-.131 0a.206.206 0 0 0-.26.088c.044 0 .088-.044.173 0v.045s0 .044.045.089v.045c-.13-.045-.305-.045-.261.044 0 .045.044.045.044.09-.089.044-.089.173-.044.216 0-.044 0-.089.089-.13.045.045.045.09.045.09.089.044.173-.131.26-.09v.045c-.089.044-.174.089-.13.173 0 0 0 .045.044.045-.044.09-.044.174.09.217 0-.044-.045-.089 0-.13h.089c.173-.09.089-.217.13-.26.089-.09.174.088.304-.045 0 0 .045-.09 0-.13h.045c0 .044.044.088.13.044-.13-.09 0-.13.045-.217h.044c.045 0 .13 0 .174-.09-.09 0-.26-.13-.13-.173.173-.09.217-.174.13-.26-.13-.218-.436-.218-.48-.436h.305c.913 0 1.523-.261 1.48-.523 0-.653-2.785.045-2.785-.435 0-.13.173-.218.392-.304m-2.045.089c.044.044.217.089.304.13-.13.045-.09.09-.174.09-.09 0-.13-.131-.13-.218m-.174-.09c-.045.045-.13.131-.217.045-.045-.044.044-.089-.045-.217.045.09.217.174.26.174m-.303.61c.044-.045.044-.09.089-.09.044 0 .089 0 .089-.044.044-.09 0-.09-.09-.13.09 0 .09-.045.09-.09-.045 0-.13.045-.13 0 0 0 .044-.044.044-.089h.09l.26.13c0 .045.045.045.045.09 0 0 0 .089-.045.089 0 0 0-.09-.045-.09-.044 0-.044.045 0 .09-.089 0-.13-.045-.173 0 0 .044 0 .089.044.13 0 0 0 .044-.044.13 0 .045-.09.13-.174.09-.09-.045-.09-.174-.045-.218M91.332 56c0 .045.09.09.174.13 1.088.306 2.306-.478 2.959-.304-.827-.304-1.35.218-2.176.045.48 0 .957-.089 1.002-.217-.393.217-1.436-.174-1.872.089 0 .044-.044.044-.044.044-.61 0-1.087 0-1.087.393 0 .826 2.219.347 2.959.347.652 0 .609.09.609.217 0 .174-.827.218-1.219.218-.609 0-2.436-.305-3.524-.09.09-.173.304-.392.174-.522.089-.045.174-.13.174-.217a.33.33 0 0 0-.218-.09c.045-.044 0-.13-.044-.173l-.045-.13c-.044-.045-.13-.09-.26-.174-.13-.045-.218-.045-.261-.045 0-.044-.13 0-.13 0-.045 0-.13 0-.13.09-.09-.09-.131-.09-.218-.09-.045.09-.045.13 0 .261-.13.045-.217.26-.304.26 0 .045.045.09.089.09-.09.173-.13.347-.217.347.044.045.044.09.089.09-.045.088-.045.217-.045.303h-.13c-.174-.044-.217 0-.436-.173-.173-.09-.173-.174-.173-.304 0-.174.044-.305.044-.436 0 0 0-.09-.044-.13-.045-.09-.13-.174-.218-.13.045 0 .09.044.09.13-.045.044-.045.089-.045.089-.045.044-.09.089 0 .13v.134h-.045c-.044-.13-.089-.26-.173-.26h-.045v-.045c0-.13-.13-.174-.26-.09.044.045.088.045.088.045v.13c0 .13.045.174.174.174h.045v.045c0 .044 0 .044 0 0-.217-.045-.26.044-.26.089 0 .044-.045.089 0 .089-.09.044-.09.174.044.217 0 0-.045-.089 0-.089.044 0 .044 0 .044-.045 0 .045.045.045.045.09.044 0 .044 0 .13-.045 0-.045 0-.045.045 0 0 0 .044 0 .044.045.045 0 0 0 0 0-.13.13-.089.26.09.304v.044c0 .217-.306.174-.306-.044-.174.26.13.435.348.305h.044c0 .044.045.089.09.089 0 0 0-.045.044-.045v.045c.045.045.045.13.13.13 0-.044 0-.089.045-.089s0-.089.305.045c.045.089.045.089.13.13l.174-.045c0 .174.045.393 0 .393-.044 0-.392 0-.479.044-.174.09-.522.217-.652.045-.045-.045-.045-.09-.09-.174 0-.045-.089-.09-.13-.09h-.089c-.045-.088-.174-.088-.26-.044.044 0 .13 0 .173.09-.045.044-.045.088-.045.088-.044.045-.044.13.218.218 0 0 .044.044 0 .044-.045 0-.09 0-.13-.044-.09-.045-.09-.174-.218-.09 0 0-.044 0-.089.045v-.044c-.13 0-.26.13-.217.26.044-.044.044-.089.13-.089l.045.045c0 .13.044.26.304.044.044 0 .044.045.044.045-.089.089-.217.217-.089.304l.045.045c-.045.173.13.26.174.26 0-.044-.09-.13-.045-.217h.045c.13-.045.089-.174.173-.217.045.044.045.217.174.174.174 0 .217-.13.217-.174v-.045c.045.045.09.09.09.174 0 0 .089-.045.089-.089.044.045.044.13-.045.217.045 0 .217-.089.217-.217.045 0 .045.045.045.045h.044c.045.044.13.044.261 0h.045v.173c0-.044.044-.089.089-.089 0 0 0 .174.044.217.045-.347.348-.26.61-.392 0-.044 0-.044 0 0 0 .045-.045.09-.09.13.218.131.48-.217.566-.391l.09-.09c0 .045 0 .09-.045.13.217 0 .174-.173.304-.173.696.045.174-.61 1.305-.392.13 0 .26-.09.304-.13-.089.13-.089.479.09.479.089.044.217.089.26.13.045 0 0 0 0 0-.089.045-.174.045-.217.089-.26.174-.26-.392-.523-.26 0 0-.044 0-.089.044-.089 0-.26.13-.217.217.045-.044.09-.089.174-.089v.045c0 .044 0 .089.09.089.044 0 .088-.045.088-.045.045 0 .045.045.045.045 0 .13-.305-.045-.26.217l.044.09c0 .088.089.173.217.13a.096.096 0 0 1-.09-.09h.09v-.044h.089c0 .044-.045.044-.045.044 0 .045 0 .09.045.09-.045.13.13.217.26.13-.044 0-.13 0-.13-.09.045 0 .045 0 .09-.044v-.09h.089c.044-.044.044 0 .089 0 0 .09.089.131.173.09.174-.09.045-.217.174-.26h.13c.13.044.348.044.348 0 .045-.09.045-.348-.13-.436-.09-.045.044-.13-.045-.26.13.044.304.13.523.13.347 0 .522-.09.74-.174.216-.13.435-.045.478-.045.045 0 .09.045.045.09-.09.216-.045.216-.09.304-.089.09-.217.045-.347 0a.418.418 0 0 0-.13.045c-.09.045-.217.13-.217.26 0-.044.089-.13.173-.13v.09c-.044.13.09.173.217.044 0 0 .045 0 .045.045-.13.044-.304.173-.174.217 0 0 0 .045.045.045-.045.089 0 .173.089.173 0-.044 0-.044.044-.13h.09c.089 0 .089-.174.173-.217 0-.045.045-.045 0 0-.044.089-.089.217 0 .217 0 0 .045 0 .045.045.044.089.089.13.217.044 0 0-.089-.044-.089-.089.045 0 .09-.089.09-.089.13-.174-.045-.174-.045-.26.044-.131.217-.045.26-.261.045-.045.045-.09-.044-.13.044 0 .13 0 .173-.09-.173.045-.089-.089-.089-.174 0-.044 0-.044.045-.044.044-.045.089-.09.089-.217-.045.089-.217.13-.217 0 0 0 0-.09-.13-.045-.261 0-.61-.044-1.089-.089-.045 0-.045-.044 0-.044.479-.045 1.436-.09 1.436-.436 0-.217-.045-.392-.87-.392-.827 0-2.741.305-2.741-.174 0-.217.39-.217.826-.174m-2.741-.044c-.045.044-.13.13-.217.044-.045-.089.044-.089-.045-.217.045.045.217.13.26.174m.175.479c-.045 0 0-.09-.09-.09-.044 0 0 .045 0 .09-.044 0-.13-.045-.13.044-.044.045-.044.045 0 .13.045 0 0 .045 0 .09-.044.089-.089.174-.217.13-.09-.089-.09-.174-.045-.217.045-.045.045-.09.09-.09.044 0 .089-.044.13-.088 0-.045-.045-.09-.13-.13.089 0 .13-.045.089-.09-.045 0-.13.045-.13 0l.044-.044c.044-.045.089-.045.089 0l.26.089c.045.045.09.045.045.09 0 .044.045.088 0 .088m.174-.174c-.13 0-.174-.13-.13-.217.044.045.217.09.305.13-.13.045-.09.09-.174.09m6.27-2.492.044-.044c.044 0 .089-.09.089-.218-.09.09-.26.174-.26 0 0 0 0-.089-.175-.089-.26.045-.522 0-1-.044-.044 0-.044-.045 0-.045.48-.044 1.436-.13 1.436-.435 0-.261-.305-.436-1.175-.436-.913 0-3.611.304-3.611-.174 0-.304.913-.217 1.61-.173 0 .044.089.089.173.13 1.132.304 2.437-.523 3.09-.348-.87-.305-1.436.218-2.306.045.522 0 1.043-.09 1.088-.217-.392.26-1.48-.174-1.958.13-.045 0-.045 0-.09.045-.826 0-1.827-.13-1.827.39 0 .87 3.046.348 3.786.348.74 0 .913.09.913.217 0 .218-.74.261-1.131.261-.696 0-3.568-.39-4.7-.045.045-.173.348-.479.174-.609.13-.044.218-.13.218-.26-.09-.045-.174-.09-.218-.09 0-.044-.044-.089-.044-.13-.045 0-.045-.13-.09-.174-.044-.044-.13-.089-.26-.173-.13-.045-.217-.045-.26-.045 0-.045-.13 0-.13 0-.09 0-.175 0-.175.089-.044-.09-.13-.09-.173-.09-.045.09-.09.175-.045.306-.09 0-.217.26-.304.217.044.09.044.13.089.13-.09.131-.13.348-.217.348.044.09.089.13.13.13v.261l-.174-.044h-.13c-.045-.045-.09-.045-.13-.045-.13 0-.261-.26-.48-.392-.173-.09-.173-.174-.173-.348 0-.173.044-.304.044-.435 0 0 0-.09-.044-.13 0-.09-.174-.174-.217-.13.044 0 .089.044.089.13l-.09.089c0 .044-.044.089 0 .13l.045.045c0 .044 0 .044-.044.089-.045-.13-.09-.26-.174-.304h-.09c0-.13-.13-.218-.26-.09.045 0 .09.045.13.045-.044.045-.044.13-.044.13 0 .13.089.174.217.174.045 0 .045.045.045.045 0 .044 0 .044-.045.044-.174-.089-.26 0-.26.09v.044c-.09.09-.09.174.044.26 0-.044 0-.13.045-.13.044 0 .089.045.089.045s.044 0 .089-.045h.089s0 .045.044.045v.045c-.13.13-.13.26.045.26l.045.045c0 .26-.348.217-.305-.045-.217.304.13.523.348.348 0 0 .045 0 .045.044 0 .045.044.09.089.09 0-.045 0-.09.044-.09v.045c.045.045.045.13.13.174 0-.09 0-.13.045-.13s.217.39.566.565c-.045 0 .13-.089.217-.13 0 .089.045.13.09.174l.088-.045c-.044.174.174.348.13.348-.044 0-.39-.045-.522 0-.13.089-.565.26-.652.089-.045-.09-.045-.13-.09-.217-.044-.045-.089-.09-.13-.09h-.089a.263.263 0 0 0-.304-.044c.09.045.13.045.174.13l-.045.045c-.044.09 0 .174.217.26.045 0 .045 0 .045.045-.045 0-.09 0-.13-.044-.13-.09-.13-.174-.261-.13 0 0-.045.044-.09.044-.13 0-.303.13-.216.26 0-.044.044-.089.13-.13 0 .045.045.09.045.09 0 .13.044.26.347.088 0-.044 0 0 0 0-.044.09-.217.218-.089.306l.045.044v.045c-.045.13.13.26.217.217-.045 0-.09-.09-.09-.217.045.044.09.044.09.044.13-.044.089-.217.13-.26h.045c0 .089.044.217.174.217.173 0 .217-.13.217-.217v-.045c.089.045.089.13.089.174.045 0 .089-.045.13-.09 0 .045 0 .175-.089.261.09-.044.217-.089.26-.26.045.044.045.044.045.089.09 0 .174 0 .304-.045.045 0 .045.045.045.045v.13s.045-.044.09-.044c.044 0 0 .13.088.217.045-.392.217-.217.48-.392.044 0 .044 0 .044.044-.045.045-.09.09-.13.09.089.088.435-.131.435-.305 0 0 .13-.044.26-.044.261 0 .218-.174.305-.174 1.436.174.61-.61 2.306-.436.09 0 .13-.13.174-.173-.09.173-.09.478.089.522.089 0 .26.045.304.13-.09.045-.217.045-.26.09-.261.173-.261-.393-.523-.306-.045 0-.09.045-.09.045-.13 0-.26.174-.216.26 0-.044.089-.089.173-.089v.045c0 .045 0 .089.09.089h.133c0 .13-.347-.044-.26.26 0 0 .044.045.044.09 0 .089.045.174.217.13-.044-.045-.089-.089-.089-.13h.09l.044-.045c.044 0 .044 0 .044.045 0 0-.044 0-.044.044l.044.09c0 .089.13.217.261.089 0 0-.13 0-.13-.045.044 0 .089-.045.089-.045v-.089c0-.044.044-.044.044-.044h.09c.044 0 .044 0 .044.044.045.045.13.09.217.045.174-.045.045-.217.174-.26h.13c.13.044.348.044.393 0 .044-.09 0-.348-.13-.436-.09-.045 0-.174-.09-.305.13.089.305.13.523.13.435 0 .565-.045.74-.174.216-.13.435-.044.478-.044.045 0 .09.044.09.13-.09.174 0 .217-.045.304-.045.089-.218 0-.348 0a.418.418 0 0 0-.13.045c-.09.044-.217.13-.217.217.044 0 .089-.045.173-.09v.045c0 .174.174.217.261.09 0 0 .045 0 0 .044s-.217.217-.09.26c0 0 .046 0 .046.045 0 .09.044.174.13.174-.045-.045-.045-.09 0-.174h.089c.09 0 .045-.174.174-.217 0-.045 0 0 0 0-.045.09-.045.217.044.26h.045c.044.09.13.131.26.09-.044-.045-.089-.045-.13-.09l.09-.088c.088-.218-.09-.218-.09-.305 0-.13.217-.044.217-.26 0-.045 0-.13-.089-.13v-.045c.09 0 .13.044.174-.045-.174 0-.09-.13-.13-.217m-6.31-1.653c.045.044.261.13.348.173-.174.045-.13.09-.217.09-.13 0-.13-.13-.13-.261m-.218-.09c-.044.09-.13.131-.217.09-.09-.09 0-.09-.09-.26.09.044.262.173.305.173m-.304.696c0-.045.044-.089.089-.089s.09 0 .09-.09c.044-.044-.046-.088-.09-.13.045 0 .09-.044.045-.089-.045 0-.09.045-.09 0-.044 0 .045-.044.045-.089h.09l.26.13c.044.045.089.045.089.09 0 .044 0 .089-.045.089 0 0 0-.09-.044-.09-.045 0-.045.045-.045.09-.044 0-.13-.045-.13.044-.045.045-.045.09 0 .13v.131c-.045.09-.13.13-.217.09-.09-.045-.09-.131-.045-.218m-.26-.392zM82.76 47.037c0-.26-.26-.48-1.131-.48-.914 0-3.612.348-3.612-.13 0-.304.914-.173 1.61-.173 0 .044.09.089.174.13 1.131.305 2.306-.435 3.133-.174-.653-.609-1.48.045-2.306-.13.479 0 1-.09 1.044-.217-.393.26-1.48-.174-1.959.089l-.089.089c-.826 0-1.827-.13-1.827.392 0 .87 3.046.348 3.786.348.74 0 .913.089.913.217 0 .217-.74.26-1.175.26-.653 0-3.524-.392-4.7-.044.09-.174.348-.48.218-.653.13-.045.217-.089.217-.174-.089-.089-.174-.089-.217-.13.045-.045-.045-.09-.09-.13 0-.045 0-.13-.044-.174-.044-.045-.13-.09-.26-.174-.13-.044-.218-.044-.261-.044-.045-.045-.13 0-.13 0-.09 0-.174 0-.174.089a.33.33 0 0 0-.174-.09c-.089.09-.089.174-.045.305-.13 0-.217.26-.305.217 0 .089.045.13.09.13-.09.13-.131.348-.218.348.045.044.045.089.09.089 0 .089-.045.174-.045.304l-.09-.045c-.044-.044-.13-.044-.13-.044h-.13c-.174 0-.26-.26-.48-.392-.173-.09-.173-.174-.173-.348s.045-.304.045-.435c0 0-.045-.09-.045-.13-.044-.09-.174-.174-.217-.174.045.044.089.089.089.173l-.09.09c-.044.044-.044.088.046.13v.134h-.045c-.045-.131-.09-.261-.174-.305h-.089c0-.13-.13-.217-.26-.089.044.045.088.045.13.045-.045.044-.045.13-.045.13 0 .13.09.174.217.174l.045.044c0 .045 0 .045-.045.045-.173-.09-.26 0-.26.089v.09c-.09.044-.09.13.044.216 0-.044-.044-.13.045-.13.044 0 .089.045.089.045s.045 0 .09-.045h.044c.044 0 .044.045.089.045v.044c-.13.13-.13.26.044.26l.045.045c-.045.261-.348.218-.348-.044-.173.305.174.522.392.392.045-.045.045-.045.045 0s.045.089.089.089c0-.044 0-.044.045-.044 0-.045 0 0 0 0 0 .089.044.13.13.173 0-.044 0-.13.044-.13.045 0 .218.348.566.566.09-.045.174-.045.218-.13 0 .044 0 .089.044.089.045.173.13.39.09.39-.045 0-.61-.044-.697.045-.174.09-.566.217-.696.045-.045-.045-.045-.09-.09-.217-.044-.045-.088-.09-.13-.09h-.089a.263.263 0 0 0-.304-.044c.09 0 .13.044.174.13l-.045.045c-.044.089 0 .174.261.26-.045.045-.09.045-.13 0-.13-.089-.13-.173-.261-.13 0 .045-.045.045-.045.045h-.044c-.13 0-.304.13-.217.26 0-.044.044-.089.13-.13.045.045.045.09.045.09 0 .13.089.26.347.088 0-.044 0 0 0 0-.044.13-.217.217-.089.304l.045.045v.044c-.045.13.13.261.217.261-.045-.044-.09-.13-.09-.26.045.044.09.044.09.044.13-.045.089-.217.13-.26h.045c0 .088.044.217.217.217.13-.045.217-.13.174-.218 0 0 0-.044.044 0 .045 0 .09.09.045.13.044 0 .089-.044.13-.088 0 .044.045.173-.089.26.09 0 .217-.089.26-.26.045.044.045.044.045.089l.045-.045c.044.045.13.045.304 0v.175c.044 0 .044-.09.089-.09s0 .175.09.262c.044-.393.478-.174.739-.348 0 0 .044 0 0 0 0 .044-.045.09-.09.13.09 0 .218-.044.306-.13 0 .044 0 .044-.045.044l.436-.173v-.13h.13c.26 0 .217-.218.305-.174 1.436.173.61-.61 2.307-.48.089.045.13 0 .173-.088-.089.173-.089.435.09.479.088 0 .26.044.303.13-.089.044-.217.044-.26.089-.26.174-.26-.391-.523-.304a.096.096 0 0 0-.089.089c-.13 0-.26.09-.217.217 0-.044.09-.089.174-.089v.045c-.045.044 0 .089.089.089h.13c0 .13-.347-.045-.26.26 0 0 0 .045.044.09 0 .089.045.173.217.13-.044-.045-.089-.09-.089-.13h.09l.044-.045h.045c0 .044-.045.044-.045.089l.045.089c0 .13.13.217.26.13 0 0-.13-.044-.13-.089.044 0 .089-.044.089-.044v-.09l.045-.044h.133c.045.089.13.13.217.13.174-.089.045-.26.174-.26.045-.045.09-.045.13 0 .13 0 .348 0 .393-.045.044-.09 0-.348-.13-.436-.131-.044 0-.173-.09-.304.13.045.304.13.523.13.435 0 .522-.044.696-.173.217-.09.435-.045.479-.045.044 0 .089.045.089.09-.045.217.045.26-.045.347 0 .09-.217 0-.305 0-.089 0-.13.045-.13.045-.09.044-.217.13-.217.26a.33.33 0 0 1 .173-.089c.045.174.174.217.261.13.045-.044.09 0 .045 0-.09.045-.218.218-.09.261l.045.045c0 .089.09.173.13.173 0-.044 0-.089.045-.173h.045c.089 0 .044-.174.13-.218h.044c-.044.09-.044.218.045.261h.09c0 .09.088.13.216.09a.096.096 0 0 1-.089-.09c0-.045.045-.089.045-.089.089-.217-.13-.217-.13-.305 0-.13.217-.045.217-.26 0-.045 0-.131-.09-.131.045 0 .13 0 .13-.09-.13 0-.088-.13-.13-.217 0 0 0-.044.045-.044.045-.045.09-.09.045-.217-.045.089-.217.174-.217 0 0 0-.045-.13-.174-.09-.26.045-.48-.044-.957-.088.479 0 1.392-.13 1.392-.436m-6.396-.74a.82.82 0 0 0 .348.13c-.174.045-.13.09-.218.09-.13 0-.13-.13-.13-.217m-.217-.09c-.045.09-.13.13-.217.045-.09-.044 0-.089-.09-.217.09.044.261.174.305.174m-.304.696c0-.045.044-.09.089-.09.044 0 .089-.044.089-.088.044-.09 0-.13-.09-.13.09-.045.09-.045.09-.09-.045-.044-.13 0-.13 0-.045-.044 0-.044.044-.089.045-.044.045 0 .09 0l.26.13c.044 0 .089.045.089.09 0 .044 0 .089-.045.089 0 0 0-.09-.089-.09v.09c-.044 0-.13-.045-.13 0-.045.089-.045.13 0 .13v.174c-.045.044-.13.13-.217.089-.09-.045-.09-.174-.045-.217m7.325-3.93c0-.305-.347-.479-1.261-.479-.914 0-2.96.348-2.96-.174 0-.26.393-.217.87-.217.045.09.09.09.218.13 1.175.348 2.567-.26 3.307-.089-.87-.652-1.567.045-2.48-.173.522 0 .74-.13.74-.304-.392.304-1.176-.13-1.654.173-.045.045-.09.045-.09.09-.652-.045-1.174-.045-1.174.39 0 .914 2.436.393 3.22.393.783 0 .957.089.957.217 0 .217-.783.304-1.219.304-.652 0-2.697-.391-3.916-.13.09-.218.304-.436.217-.61.09-.044.174-.13.174-.217a.33.33 0 0 0-.217-.09c.045-.088 0-.13-.09-.173 0-.044 0-.13-.044-.174a.664.664 0 0 0-.26-.173c-.13-.09-.218-.09-.304-.09l-.13.045c-.09-.045-.131-.045-.175.045a.33.33 0 0 0-.217-.09c-.044.09-.044.174 0 .348-.13 0-.26.26-.347.26l.089.09c-.09.174-.13.39-.217.39.044.09.13.131.13.131v.348l-.217-.09H76.1s-.044 0-.044-.044l.044.045-.089-.045c-.13-.09-.26-.26-.392-.348-.217-.089-.217-.173-.174-.39 0-.174.09-.306.09-.436-.045-.045-.045-.09-.045-.174-.045-.089-.174-.174-.261-.13.044.044.09.044.09.13 0 .045-.046.09-.046.13-.044.045-.089.09 0 .13v.045s0 .045-.044.09c-.045-.13-.09-.305-.174-.305h-.089c0-.13-.13-.217-.26-.089.044 0 .089 0 .13.045-.045.044-.045.13-.045.13-.044.13.045.13.174.174h.045v.045c.044.044 0 .044 0 .044-.218-.13-.305 0-.305.09v.088c-.089.045-.089.174.045.261 0-.045 0-.13.045-.13 0 0 0-.045.044-.045 0 .045.045.045.045.045 0 .044.044 0 .13 0 0-.045 0-.045.045 0h.044c.045.044.045.044 0 .044-.13.13-.13.304.045.304.044 0 .044.045.044.045-.044.26-.392.217-.347-.045-.174.306.13.523.39.392 0-.044 0 0 .045 0 0 .045 0 .09.045.09 0 0 .045-.045.09-.045 0 .09.044.174.13.174-.045-.045 0-.09.044-.09.045 0 .13.174.348.305.173.089.305.26.392.174 0 .173.173.347.13.347-.045 0-.522 0-.653.045-.173.089-.609.26-.74.089-.044-.09 0-.13-.088-.217 0-.09-.09-.13-.13-.13h-.09a.263.263 0 0 0-.304-.045c.045.044.13.044.174.13l-.045.089c-.044.045 0 .13.26.217 0 0 .046.045 0 .045-.044.044-.088.044-.13 0-.13-.09-.13-.217-.26-.13 0 0-.045.044-.09.044-.13-.045-.303.13-.26.26a.587.587 0 0 1 .174-.13c0 .045 0 .09.045.09 0 .13.044.26.347.089.045-.045.045 0 0 0-.044.13-.217.217-.089.304l.045.044v.045c-.045.174.13.304.217.26 0-.044-.09-.089-.045-.217h.045c.13-.044.089-.217.174-.26.044.089.044.26.217.217.174 0 .217-.13.217-.217.09 0 .13.089.09.173l.13-.13c.044.09.044.174-.045.26.044 0 .217-.088.217-.26l.09.09c.044 0 .173.044.304 0 .045-.045.045 0 .045 0v.173c0-.045.045-.09.09-.09.044 0 0 .175.088.262.045-.436.26-.261.523-.436.044 0 .044 0 0 .045 0 .044-.045.089-.09.13.261.044.74-.392.784-.566.13 0 .217-.045.26 0 .827.045.26-.74 1.567-.522.089 0 .217-.09.304-.13-.09.173-.09.522.089.565.089 0 .217.045.305.13h-.044a.323.323 0 0 0-.218.09c-.304.173-.304-.436-.565-.305-.045 0-.09.045-.09.045-.13 0-.304.13-.26.26.044-.044.089-.088.174-.088v.044c0 .045.044.09.13.09h.134c0 .13-.348-.045-.305.26l.09.09c-.045.088.044.173.217.13-.045 0-.09-.045-.09-.13.045 0 .09.044.09.044s.044-.045.044-.09c0 0 .045 0 .045.045 0 0-.045.045-.045.09 0 0 .045.044.045.088 0 .09.13.218.305.09-.044 0-.13 0-.174-.09h.09c.044-.044.044-.089.044-.13 0-.045 0-.045.045-.045h.044c.045 0 .045 0 .09.045 0 .09.088.13.217.09.173-.045.044-.218.173-.261.045 0 .09-.045.13 0 .131.044.393 0 .436-.045.045-.09 0-.348-.174-.436-.089-.089 0-.173-.089-.347.174.089.348.174.61.174.392 0 .522-.09.696-.218.217-.089.435-.044.522-.044.045.044.09.044.09.13-.045.217 0 .217-.045.348-.045.089-.217 0-.348 0-.089 0-.13.044-.13.044-.09.045-.217.13-.217.26a.587.587 0 0 1 .173-.13v.045c.045.174.218.217.305.13 0-.044.044 0 0 0-.045.09-.218.218-.09.261 0 0 .045.045.09.045-.045.089.044.173.13.217-.045-.045-.045-.09 0-.174h.089c.09 0 .045-.217.13-.26h.045c-.045.13-.09.26.044.26l.045.045c.045.089.13.13.26.089 0-.045-.088-.09-.088-.13 0 0 .044-.045.044-.09.09-.217-.13-.217-.13-.305 0-.13.217-.044.217-.26 0-.045 0-.13-.09-.174.09 0 .131 0 .175-.09-.174.045-.13-.13-.13-.217v-.044c.044 0 .088-.09.088-.217-.089.089-.26.173-.304 0 0 0 0-.13-.13-.09-.304.045-.479-.044-1-.089.566 0 1.48-.13 1.48-.479M77.476 42.227a.82.82 0 0 0 .347.13c-.174.044-.13.089-.217.089-.09 0-.13-.13-.13-.217m-.218-.13c-.044.088-.13.173-.217.088-.089-.089 0-.13-.13-.26.13.089.304.174.347.174m-.347.74c.044-.045.044-.09.089-.09.089 0 .089-.044.13-.089 0-.089-.044-.089-.13-.13.089-.045.13-.09.089-.09-.044-.044-.09 0-.13 0 0-.044.044-.088.089-.088 0-.045.044 0 .089 0l.26.13c.045 0 .09.044.09.089 0 0 0 .09-.045.09s-.045-.09-.089-.09c-.045 0-.045.045 0 .09-.09 0-.13-.045-.174.044-.044.044 0 .089.045.13 0 0 0 .09-.045.13 0 .09-.089.174-.217.09-.09-.045-.09-.13-.045-.218m.74 1.61zm4.232-4.983c.957 0 1.392-.304 1.392-.61 0-1-2.567-.39-2.567-1 0-.13.09-.217.174-.305h.044c1.306-.09 1.306-1 2.263-1.175-1.131-.174-1.305.696-1.784.74.26-.13.348-.436.348-.523-.218.304-.74.348-1 .653-.045.09-.09.174-.045.217-.174.09-.304.217-.304.392 0 .957 2.654.304 2.654 1 0 .261-.48.436-1.175.436-.566 0-.957-.39-1.958-.13 0-.174.348-.48.217-.653.09-.044.174-.13.174-.174-.045-.089-.13-.089-.217-.13.044-.045 0-.09-.045-.13 0 0 0-.09-.044-.13a.863.863 0 0 0-.218-.131c-.13-.09-.217-.09-.26-.09h-.13c-.045 0-.13 0-.13.09a.33.33 0 0 0-.175-.09c-.044.09-.089.175-.044.262-.09.044-.174.26-.26.217.044.089.044.13.088.13-.089.13-.13.304-.217.304.045.045.045.09.09.09a1.86 1.86 0 0 0-.131.609h-.045a.343.343 0 0 0-.174-.174c-.173-.09-.173-.174-.13-.305 0-.13.13-.261.13-.391l-.044-.09c0-.089-.13-.173-.174-.173 0 .044.045.089.045.174-.045 0-.045.044-.09.044 0 .045-.044.09 0 .13v.09h-.044c0-.09-.045-.218-.13-.218h-.045v-.044c0-.09-.09-.174-.26-.045.044 0 .088 0 .088.045l-.044.09c0 .088.089.13.174.13h.044v.089c-.174-.09-.26 0-.304.089v.044c-.089.045-.089.13 0 .217 0-.044 0-.089.09-.13 0 .045.044.045.044.045s.044 0 .13-.045h.045c0 .045.044.045.044.045v.044c-.13.09-.13.218.045.26-.045.218-.348.175-.304-.044-.217.261.044.436.304.306h.044c0 .044 0 .089.045.089 0 0 .045-.045.089-.045v.045c0 .044 0 .13.09.13 0-.045 0-.089.044-.089s.089.174.217.305c-.174.13-.522.217-.566.217-.045 0-.347-.044-.435 0-.174.09-.523.218-.653.045-.045-.045 0-.09-.045-.174-.044-.044-.089-.089-.13-.089h-.09c-.044-.044-.216-.089-.26-.044.045.044.09.044.174.089-.045.044-.045.089-.09.089 0 .044 0 .13.261.217v.044c-.044 0-.089 0-.13-.044-.089-.045-.13-.174-.217-.09 0 0-.045 0-.09.045-.088-.044-.26.09-.173.218 0-.045.045-.09.09-.13.044.044.044.088.044.088 0 .13.089.218.304.045.044 0 .044 0 .044.045-.089.089-.217.173-.13.26 0 0 .045.045.09.045v.044c-.045.13.088.218.173.218a.33.33 0 0 1-.09-.218c.045 0 .09.045.09.045.13-.045.045-.217.13-.26l.045.044c0 .045 0 .174.174.174.13-.045.173-.13.173-.217.045.044.09.089.09.13l.089-.09c.044.045.044.174-.045.218.045 0 .174-.045.217-.217 0 .044.045.044.045.089.044 0 .13 0 .304-.045v.175s.045-.089.089-.089c0 0 0 .13.045.26.044-.347.217-.217.435-.391.045 0 .045 0 .045.044 0 0-.045.09-.09.09.09 0 .261-.09.261-.175 0-.044.045-.089.13-.13.09 0 .218-.044.261-.13 0 .044.045.13 0 .174.218.044.48-.261.566-.261.48-.09-.304-.48.696-.392.09 0 .218-.045.261-.13-.045.173-.045.478.09.478.088 0 .216.09.26.13-.09.045-.174.045-.217.09-.218.13-.261-.348-.48-.26 0 0-.044.044-.089.044-.089 0-.217.13-.217.217.045-.045.09-.089.174-.089v.045c0 .044 0 .089.09.089.044 0 .088-.045.088-.045.045 0 .045 0 .045.045 0 .089-.304-.045-.26.217 0 0 .044.044.044.089s.089.13.217.09a.096.096 0 0 1-.09-.09h.09v-.045h.045v.179c0 .089.13.173.304.089-.09 0-.13-.045-.174-.09h.089v-.089c0-.044.045-.044.045-.044h.133c0 .089.09.13.174.089.174-.045.045-.174.174-.217h.089c.13.044.347.044.39-.045 0-.044 0-.305-.13-.392-.089-.045 0-.13-.089-.26.13.044.304.13.48.13.391 0 .044-.045.217-.174.13-.09.347-.045.435-.045.045.045.09.045.045.09-.045.217.044.217 0 .305-.045.089-.217 0-.304 0-.09 0-.13.044-.13.044-.09.045-.174.13-.174.218 0-.045.089-.09.173-.09v.045c0 .13.13.174.218.09 0 0 .044 0 .044.044-.09.044-.217.13-.09.217h.046c0 .089.044.174.13.174-.045-.045-.045-.045 0-.13h.044c.09 0 .045-.174.13-.218h.045c-.044.09-.044.217.045.217 0 0 0 .045.044.045.045.045.09.13.218.045 0 0-.09-.045-.09-.09l.045-.044c.09-.217-.089-.217-.089-.304 0-.09.174-.045.174-.217 0-.045 0-.09-.09-.13.045 0 .131 0 .131-.045-.13 0-.089-.13-.089-.218v-.044c.045 0 .09-.09.045-.174-.045.045-.218.13-.218 0 0 0 0-.13-.13-.09-.26.046-.392-.088-.826-.13-.045 0-.045-.044 0-.044m-2.872-1.044h-.045.045m.652-.173c.045.044.218.13.305.13-.13.044-.09.089-.174.089-.09 0-.13-.13-.13-.217m-.174-.09c-.045.045-.13.131-.174.045-.09-.044 0-.089-.09-.217.09.09.218.174.262.174m-.306.61c.045-.045.045-.09.09-.09.044 0 .088 0 .088-.044.045-.09 0-.09-.044-.13.044 0 .044-.045.044-.09-.044 0-.089.045-.13 0 0 0 .045-.045.09-.045 0-.044.044-.044.044 0l.26.13c.045 0 .045 0 .045.045v.09c-.044 0-.044-.09-.089-.09s-.045.045 0 .09c-.09-.045-.13-.045-.13 0-.045.044-.045.089 0 .13.044.044 0 .089 0 .13-.045.045-.09.13-.218.09-.089-.045-.044-.131-.044-.218m3.492 14.68h-.218v-.217c.045-.783-.435-1.348-1.261-1.348-.74 0-2.176.956-4.178.956-.826 0-1.87-.39-2.48-.783l-.26.61v-.09a.483.483 0 0 0-.48-.479c-.26 0-.522.218-.522.48 0 .26.26.522.523.522.13 0 .305-.09.392-.174l-.26.566c.088.045.173.09.26.13-.304 3.046 1.958 6.875 5.917 8.094.566-.174 1.175-.09 1.175.565 0 .393-.174.566-.566.566-.217 0-.347-.13-.347-.304 0-.26.435-.13.479-.305.089-.217-.09-.348-.348-.348-.26 0-.696.174-.696.653 0 .566.436.87.913.87.436 0 1.35-.26 1.219-1.349.217 0 .479 0 .522-.217l.045-.61-.217-.044.173-6.962h.13c.261.045.48-.089.523-.347 0-.304-.217-.391-.435-.436m-7.18.566 4.83 6.919c-2.567-1.002-5.135-3.307-4.83-6.919m5.004 6.266-4.438-6.31h.435c.217 0 .436-.044.653-.044L80.719 59c-.045.48-.13.914-.174 1.306m.304-2.002-3.09-4.482c.348-.089.653-.173.957-.26l2.35 3.307c-.089.479-.13.957-.217 1.436m.74-4.917h-.174c-.218 0-.48.089-.48.347-.044.261.174.436.436.436h.13c-.044.089-.044.13-.044.217-.045.392-.174 1.044-.26 1.784l-2.002-2.785c.957-.392 1.697-.783 2.088-.783.306 0 .392.13.306.783m12.006-7.177c.173-.089.304-.174.347-.305-.173.044-.304-.045-.347-.045.089-.089.26 0 .089-.26-.13-.218-.217-.218-.391-.09-.13.174-1.175-.044-1.175-.783.09.13.217.218.348.305.044 0 .089 0 .13.044h.13c.09.045.217.09.304.045h.045c.217-.045.39-.174.39-.391.045-.436-.347-.61-.782-1.002-.174-.13-.304-.26-.436-.39-.13-.306-.044-.567-.435-1.132 0-.13-.045-.26-.13-.479-.174.348-.261 1.044.26 1.653.436.436 1.349.914 1.305 1.306 0 .089-.089.174-.217.217-.044-.045-.089-.045-.13-.045h-.09c-.088-.044-.13-.044-.216-.089-.09-.089-.174-.173-.306-.26-.39-.348-.74-.87-.956-1.175-.436-.522-.218-1.044-.174-1.523.304-.392-.174-1.218-.436-1.436 0 0 .045-.217-.044-.435-.045.044-.174 0-.261 0-.045-.13-.09-.174-.217-.174-.174-.045-.174-.13-.174-.217-.13.089-.13.173-.26.217-.174 0-.218-.045-.261.044-.13.09-.174.09-.348.09s-.13.089-.13.217c0 .089 0 .217.13.26h.045l.13.174.09-.174c.088-.044.303-.089.347.09.044.13.044.13-.09.173h-.347c-.13 0-.13.13-.13.217.044.09.13.174.347.09.217-.045.566-.09.566.089 0 .479-.522.479-.653 1.001-.13-.09-.26-.174-.305-.305a3.374 3.374 0 0 0-.39-.48c-.131-.088-.261-.216-.393-.304-.174-.13-.217-.218-.217-.391 0-.174.089-.306.089-.48 0 0-.045-.088-.045-.13-.044-.089-.173-.173-.26-.173.044.044.089.089.13.173l-.09.09c-.044.044-.044.13 0 .173v.089c0 .045 0 .045 0 0-.044-.089-.088-.26-.216-.305h-.09c0-.13-.13-.217-.26-.089.044.045.09.045.13.045-.044.044-.044.13-.044.13 0 .13.089.174.217.174 0 0 .045 0 .045.044v.045c-.218-.09-.305 0-.305.09v.13c-.089.044-.089.13.045.217 0-.045 0-.09.045-.13h.044c0 .044.045.044.045.044s.044 0 .089-.045h.089c0 .045.045.045.045.045.044 0 .044.045 0 .045-.13.13-.09.217.044.304-.044.13-.304.089-.304-.13-.174.26.13.478.392.347 0 .13 0 .347.045.347-.045-.044 0-.089.044-.089v.045c0 .089.045.13.13.174 0-.045 0-.09.045-.09.045.045.09.13.13.174.09.217.348.783.914 1-.304.174-.48.393-.653.61-.174.174-.392.304-.522.217-.09-.045-.09-.09-.174-.13-.045-.045-.13-.09-.174-.045 0 0-.044 0-.089.045-.089-.045-.217 0-.26.044.044 0 .089 0 .173.045v.089c0 .089.045.174.348.13 0 0 .044 0 0 .045 0 .044-.045.044-.13.044-.13-.044-.174-.13-.305-.044 0 .044 0 .089-.044.089h-.045c-.089.045-.217.26-.045.347 0-.044 0-.13.045-.173.045.044.09.044.09.044.088.13.173.217.347-.089 0 0 .044 0 .044.045-.044.13-.173.304 0 .347h.09v.045c.044.13.26.174.347.13-.09-.044-.174-.089-.217-.174h.089c.13-.13 0-.26.044-.347h.045c.045.089.13.217.26.13.09-.044.09-.13.13-.174.175-.089.348-.13.48-.089 0-.13.089-.26.305-.304.174-.044.304 0 .348.045.044-.09.089-.217.217-.348-.045.827 1.044.783 1.305 1.262-.347-.13-.696-.174-.87-.13-.26.044-.74.26-.826.566-.045.26.217.696.479.87-.304.044-.392-.045-.696.044h-.045c-.217 0-.26-.435-.566-.305 0 0-.044.045-.089.045-.09 0-.26.13-.217.26 0-.044.089-.089.174-.089v.045c0 .044 0 .089.089.089h.175c0 .13-.391-.045-.305.26l.045.09c0 .089.09.217.217.13 0 0-.089-.045-.044-.09h.044c.045 0 .045 0 .045-.044 0-.045 0-.045.044-.045v.223c0 .09.174.218.348.09-.045 0-.174 0-.174-.045s.09-.045.09-.045v-.13h.044c.044 0 .044 0 .09-.045.044 0 .044.045.044.045.044.045.13.13.217.09.089 0 .089-.046.13-.09l.09.09c0-.09.088-.218.347-.046l.174-.13s.217.09.304 0c.173-.13.089-.13.089-.26-.13-.261-.174-.218-.217-.48-.09-.392.479-.609.783-.565.089.26.435.956 1 1.13.392.131.522-.26.653-.216.044 0 .044.044.089.13-.045.174 0 .348-.045.436-.044.089-.26 0-.392 0a.418.418 0 0 0-.13.044c-.13.045-.26.13-.26.26a.33.33 0 0 1 .216-.088l.045.044c0 .13.174.174.26.09 0 0 .045 0 .045.044-.089.045-.26.217-.13.26 0 0 .044.045.089.045 0 .09.089.174.174.217-.045-.089-.045-.089 0-.217h.089c.089 0 .044-.173.13-.26.045 0 .045 0 .045.044-.045.09-.045.217.044.26 0 0 .045 0 .09.045 0 .09.13.13.26.045 0 0-.089-.045-.13-.089l.089-.09c.089-.26-.13-.26-.13-.347 0-.13.217-.044.217-.26v-.045c.13-.089.26-.13.26-.217-.173 0-.304-.045-.304-.09zm2.262 1.392c.218.13.13.48-.13.48a15.509 15.509 0 0 0-2.48-6.571h.044a.838.838 0 0 0 .523-.696c-.391-.045-.653.13-.827.392-.089-.13-.173-.26-.26-.392a12.324 12.324 0 0 0-2.829-2.61 10.501 10.501 0 0 0-3.089-1.437c0-.217.348-.26.479-.044.045-.436-.304-.61-.522-.523-.09.045-.218.13-.218.304-.13-.174-.304-.26-.609-.304 0 .26.09.48.174.61-.174 0-.26.089-.305.173-.13.174 0 .566.435.61-.217-.174-.13-.48.13-.48v5.048c-.26-.09-.565-.045-.826.217.26.26.566.304.827.217v5.483c-.261 0-.348-.305-.13-.479-.393 0-.567.348-.48.566.045.13.174.217.391.217-.13.13-.217.304-.217.566.26 0 .436-.09.566-.217 0 .217.089.347.217.392.217.089.566-.045.566-.48-.13.218-.48.131-.48-.13h3.83c-.09.261-.045.61.217.87.26-.26.26-.609.217-.87h4.221c0 .305-.304.348-.479.174.045.392.391.566.566.48.13-.09.26-.218.217-.436.13.13.348.174.566.174a.84.84 0 0 0-.217-.566.387.387 0 0 0 .435-.174c.045-.217-.13-.566-.522-.566m-3.655-6.657c-.13.089-.174.26-.13.347.044.13.173.217.392.26-.13.131-.261.305-.304.523.26.045.435-.044.609-.13-.045.217 0 .347.13.435.09.045.217.09.348 0 .957 1.61 1.653 3.394 1.914 5.222-.089-.09-.26-.13-.479-.13.045.304.13.479.26.609h-3.219c.045-.217-.089-.392-.217-.436-.13-.044-.26 0-.436.174 0-.217-.044-.392-.217-.566-.174.174-.26.348-.26.566-.174-.174-.305-.217-.436-.174-.13.045-.217.218-.217.436h-2.742a.955.955 0 0 0 .174-.566c-.217.045-.392.09-.522.217v-4.435c.173 0 .392-.09.435-.218.045-.13 0-.305-.174-.435.174 0 .393-.09.566-.26-.173-.175-.392-.218-.566-.261.174-.13.218-.304.174-.436-.044-.13-.26-.217-.435-.217v-3.743c.089.09.26.174.435.174a.663.663 0 0 0-.089-.523c.827.261 1.654.697 2.437 1.219.957.61 1.827 1.392 2.567 2.35m12.054 8.18c-.479-.305-1.218-1.001-1.61-1.827-.479-1-2.523-5.048-2.828-5.613-.26-.436-.392-.827-.392-1.175 0-.436.174-.783.435-1.088.13-.174.566-.61.74-.87.13-.218.26-.348.391-.48-.74-1.305-1.523-2.262-2.524-3.393-1.175-1.35-2.523-2.524-4.003-3.438.783-.522 1.61-1.262 1.61-2.523 0-.697-.305-1.262-.826-1.74.826-2.655 2.306-5.832 3.568-7.224l-2.654-1.13c.696 1.087.74 2.305.566 3.002-.696-.48-1.262-1.132-1.48-2.002-.13.827-.565 2.089-.956 2.872.74-.348 1.392-.523 2.132-.174-.436.61-1.567 1.523-3.307 1.087-.957-.217-1.915-.74-1.871-1.436.044-.435.347-.956.957-.913.565.045.609.957.435 1.349.74-.436 1.523-2.654.348-3.002-.914-.261-1.784 1.043-2.089 2.001-.174-1.175-.653-2.306-1.61-2.263-1.218.09-.826 2.35-.39 2.916.044-.783.478-1.219.87-1.175.303.045.739.26.652.957-.045.74-1.088 1.175-2.263 1.175-1.131 0-3.089-.348-3.263-2.524.74.13 1.87.696 2.35 1.436-.13-1.306-.174-2.263 0-3.612-.61.87-1.61 1.306-2.307 1.436.174-.957 1-1.914 1.915-2.523h-4.83c.957.609 1.74 1.566 1.958 2.48-.74-.09-1.697-.566-2.306-1.393.174 1.35.174 2.306 0 3.612.479-.74 1.61-1.262 2.306-1.393-.174 2.133-2.132 2.48-3.263 2.48-1.175 0-2.176-.435-2.263-1.174-.089-.696.348-.914.696-.957.348-.045.783.392.827 1.175.435-.566.826-2.829-.392-2.916-.914-.044-1.436 1.089-1.61 2.263-.305-.957-1.132-2.263-2.089-2.001-1.175.347-.392 2.567.391 3.002-.217-.392-.174-1.306.392-1.349.61-.045.914.479.957.913.045.697-.913 1.219-1.827 1.436-1.741.436-2.872-.479-3.35-1.087.782-.347 1.435-.174 2.175.174-.392-.783-.827-2.045-.957-2.872-.217.87-.827 1.566-1.523 2.045-.13-.74-.09-1.958.566-3.046l-2.61 1.132c1.217 1.392 2.74 4.612 3.567 7.266-.522.436-.783 1.002-.783 1.697 0 1.262.783 2.002 1.566 2.524-1.479.913-2.828 2.088-4.003 3.437-1.827 2.045-3.263 4.439-4.264 7.05.392.391 1.958 2.131 2.35 2.61.653.827 1.044 1.654 1.088 2.306 0 1.219.26 1.697.914 2.48.173.261.478 1.219.522 1.784H84.24v14.36c-.522 0-1.088.13-1.523.696 1.523.609 2.959 1.174 4.439 1.61.13-.914.304-1.523.783-2.089 0 0-1.915-.174-2.916-.26V50.91h12.88c-.09 1.958-.436 3.872-1.088 5.656a15.567 15.567 0 0 1-2.872 5.048 14.405 14.405 0 0 1-4.264 3.394c-.261.13-.261.304-.523.39-.217.261-.435.697-.653 1.176-.13.435-.217.74-.26 1.305.566.174.913.26 1.48.436 4.524 1.13 5.656.783 5.917.609v-.045a20.28 20.28 0 0 0 2.828-2.654c1.828-2.045 3.264-4.438 4.264-7.092a25.6 25.6 0 0 0 1.523-8.703c0-.566.045-.74 0-1.305m-20.015 1H71.012c.045-2.045.391-4.003 1.087-5.874.653-1.871 1.654-3.568 2.872-5.047a13.592 13.592 0 0 1 4.264-3.35c1.61-.784 3.264-1.22 5.004-1.22zm.217-21.974c-4.395 0-7.44 1.306-9.181 2.48-1.044-.609-1.48-1.174-1.48-1.914 0-2.48 7.093-2.698 10.661-2.698 3.568 0 10.66.218 10.66 2.698 0 .74-.435 1.306-1.479 1.915-1.74-1.175-4.786-2.48-9.181-2.48m.566 21.973v-15.49c1.61.089 3.176.479 4.656 1.218a13.592 13.592 0 0 1 4.264 3.35c1.218 1.48 2.219 3.177 2.872 5.048.696 1.871 1.043 3.83 1.088 5.874zm44.034 32.07c-.044-.174-.26-.261-.435-.218-4.134 1.219-9.268-2.219-14.229-5.526-4.177-2.74-8.093-5.395-11.487-5.395-1.262 0-2.35.26-3.307.783-1.175.653-2.045 1.697-2.61 3.046a20.874 20.874 0 0 1-1.654 3.09c-.61.913-1 1.566-1 2.392 0 .653.304 1.262.87 1.828.478.479 1.13.957 2.132 1.48.217.13.435.216.652.303.827.436 1.35.697 1.436 1.132-1.653.74-3.742 1.349-6.178 1.74-2.698.48-5.657.74-8.79.74-3.133 0-6.135-.26-8.833-.74-2.393-.392-4.525-1.001-6.179-1.74.09-.696.61-.957 1.48-1.393.217-.089.435-.173.652-.305.827-.435 1.61-.87 2.133-1.305.565-.523.826-1.087.826-1.74 0-.827-.391-1.48-.957-2.394-.479-.74-1.088-1.697-1.653-3.09-.566-1.348-1.436-2.392-2.655-3.045-.913-.522-2.045-.783-3.263-.783-3.394 0-7.354 2.654-11.53 5.395-4.961 3.307-10.052 6.745-14.186 5.526-.217-.044-.392.045-.479.261-.044.174.045.392.217.436 1.262.566 2.35 1.435 3.438 2.262 1.48 1.175 2.872 2.263 4.438 2.263 1.48 0 3.046-.436 4.96-1.436 1.654-.913 3.395-2.089 5.048-3.22 3.263-2.219 6.657-4.525 9.834-4.786a9.28 9.28 0 0 1-.957.913c-.957.827-1.74 1.567-1.74 3.046 0 1.175.391 2.002.956 3.176.13.306.348.697.523 1.132.347.783.479 1.436.696 2.306.13.39.217.783.347 1.305.218.74.566 2.176 2.916 3.35 2.741 1.393 7.44 2.09 13.967 2.09s11.226-.697 13.924-2.09c2.35-1.174 2.741-2.61 2.915-3.35.13-.522.261-.913.348-1.305.217-.87.348-1.523.74-2.306.26-.566.479-1.044.696-1.48.522-.913.913-1.653.913-2.697 0-1.48-.87-2.263-1.87-3.133-.306-.306-.653-.61-1.002-.957 3.22.26 6.57 2.567 9.834 4.786 1.653 1.132 3.394 2.306 5.09 3.177 1.915 1 3.482 1.479 4.961 1.479 1.523 0 2.959-1.088 4.438-2.263 1.044-.826 2.176-1.697 3.438-2.262.173-.045.26-.26.173-.48m-41.42-4.22c-.218 0-.393.046-.566.09v-3.524c-1.567-.09-3.35-.306-5.178-.783v4.307a2.512 2.512 0 0 0-.61-.089c-1.261 0-2.001 1.044-2.001 2.002 0 .913.522 1.74 1 2.262.217-.522.436-1 .74-1 .61 0 .347 3.046 2.132 3.176-.045.13-.09.305-.09.48 0 .783.61 1.392 1.393 1.392s1.393-.61 1.393-1.393c0-.173 0-.347-.09-.479 1.784-.089 1.523-3.176 2.133-3.176.305 0 .479.436.783 1 .435-.522.956-1.348.956-2.262 0-.957-.74-2.002-2.001-2.002m-3.176 7.702a.78.78 0 0 1-.784-.783.78.78 0 0 1 .784-.783.78.78 0 0 1 .783.783.78.78 0 0 1-.783.783m4.22-4.438c-.217-.436-.522-.653-.826-.653-1.175 0-.697 3.176-2.133 3.176-.652 0-1-.39-1-.826 0-.436.348-.61.348-.957 0-.348-.305-.48-.61-.48-.304 0-.565.131-.565.48 0 .347.304.522.304.957 0 .435-.348.826-1 .826-1.393 0-.957-3.176-2.133-3.176-.26 0-.61.217-.783.653-.26-.48-.392-.914-.392-1.262 0-.566.436-1.393 1.392-1.393 1.61 0 1.219 2.22 2.002 2.22.348 0 .61-.218.61-.566 0-.61-1.132-1.219-1.132-2.089 0-.913.783-1.653 1.697-2.393.913.74 1.697 1.48 1.697 2.393 0 .87-1.087 1.48-1.087 2.089 0 .347.217.566.566.566.783 0 .39-2.22 2.001-2.22.957 0 1.392.827 1.392 1.393 0 .347-.13.783-.347 1.262m.832-11.966c-2.96-.74-6.484-2.002-9.747-3.481v-.045c.089-.696-.174-1.436-.653-2.002-.522-.609-1.218-.913-1.871-.913-.304 0-.61.045-.913.174-.48-.436-.914-.914-1.35-1.393a15.567 15.567 0 0 1-2.871-5.047 16.819 16.819 0 0 1-.87-3.307c-.174.957-1.218 2.22-3.09 2.22.045-.175.045-.654-.13-.74-.479.565-1.218 1.131-2.915.565.26 1.306.653 2.568 1.087 3.83 1.001 2.654 2.437 5.047 4.264 7.092a19.005 19.005 0 0 0 1.871 1.871v.392c0 .696.653 1.784 1.61 2.263.783.392 1.654.26 2.393-.26a26.72 26.72 0 0 0 5.222 2c2.219.61 4.351.957 6.005.957 1.435 0 3.35-.652 5.221-1.827a15.32 15.32 0 0 0 1.958-1.523c.09-.045.174-.13.217-.174-1.436.174-3.655-.217-5.439-.653m-10.79-4.438-.348-.26c-.566-.393-1.044-.393-1.567.044-.217.217-.435.48-.652.696l-.348.392.217.174c.61.48.696 1.002.523 1.306-.045.13-.174.173-.304.26-.306.045-.697-.044-1.132-.305l-.26-.13-.13.217c-.045.045-.045.089-.09.174-.09.089-.13.13-.174.26-.26.436-.392.783-.392 1.044 0 .09 0 .174.045.217.089.348.347.523.566.61l.173.089c.261.173.653.435.914.566-.523.305-1.044.347-1.61.089-.783-.391-1.306-1.306-1.306-1.784 0-.696.305-1.567.87-2.48l.09-.13-.09-.175a3.344 3.344 0 0 1-.392-.783c.304.045.61.09.914.174l.13.045.13-.13c.348-.393 1.567-1.654 2.742-1.654.522 0 1.043.26 1.436.74.304.347.479.74.565 1.13l-.522-.391m1.871 5.613a1.263 1.263 0 0 1 0-2.524 1.263 1.263 0 0 1 0 2.524m5.526 1.697c-.61 0-1.131-.523-1.131-1.175 0-.61.522-1.131 1.131-1.131.653 0 1.175.522 1.175 1.13a1.17 1.17 0 0 1-1.175 1.176m-.086-67.231c-.652-.523-1.174-1.262-1.261-2.089.783.13 1.61.697 2.132 1.35V.957c-.523.652-1.35 1.218-2.132 1.348.089-.783.565-1.48 1.218-2.306h-3.133c.696.827 1.175 1.523 1.262 2.306-.783-.13-1.654-.696-2.132-1.349v3.22c.479-.653 1.349-1.218 2.132-1.349-.09.827-.61 1.567-1.305 2.089zm-4.481 3.916c.304 1.305 1.48 2.306 2.872 2.306 1.436 0 2.61-1 2.871-2.306zm3.48-1.175h2.307a3.03 3.03 0 0 0-2.306-2.393Zm-1.218 0V5.265a3.03 3.03 0 0 0-2.306 2.393Zm2.22 4.438c-.305.174-.697.261-1.044.305v4.046h1.044zm-3.177 4.352h1.044V12.4c-.392-.045-.74-.13-1.044-.304zm3.394-5.091c0 .522.436.957.957.957.479 0 .913-.436.913-.957a.919.919 0 0 0-.913-.914c-.522 0-.957.392-.957.914m3.133-.087c.522 0 .913-.436.913-.957a.919.919 0 0 0-.913-.914c-.522 0-.957.436-.957.914 0 .522.436.957.957.957m2.306-.653a.965.965 0 0 0 .957-.957c0-.522-.435-.913-.957-.913a.891.891 0 0 0-.913.913c0 .523.392.957.913.957m6.614 2.089a.965.965 0 0 0 .957-.957c0-.523-.436-.914-.957-.914a.891.891 0 0 0-.913.914c0 .522.392.957.913.957m-1.827-1.61a.919.919 0 0 0 .913-.914c0-.522-.392-.957-.913-.957a.965.965 0 0 0-.957.957c0 .48.435.914.957.914m-2.35-.697a.965.965 0 0 0 .957-.956c0-.523-.436-.914-.957-.914a.918.918 0 0 0-.913.914c0 .522.435.956.913.956m5.047 7.136a.892.892 0 0 0-.913.914c0 .522.392.957.913.957a.965.965 0 0 0 .957-.957c0-.523-.435-.914-.957-.914m.479-2.306a.965.965 0 0 0-.957.957c0 .523.436.914.957.914.522 0 .957-.392.957-.914a.965.965 0 0 0-.957-.957m-1.262-1.305c0 .522.436.913.957.913a.891.891 0 0 0 .913-.913c0-.522-.392-.957-.913-.957a.965.965 0 0 0-.957.957m-16.709-1.61c.523 0 .914-.436.914-.957 0-.522-.392-.957-.914-.957a.965.965 0 0 0-.956.957c0 .523.435.957.956.957m-2.175-1.044c.479 0 .913-.436.913-.957 0-.48-.435-.914-.913-.914-.523 0-.957.436-.957.914 0 .522.436.957.957.957m-2.35-.653a.965.965 0 0 0 .957-.957c0-.522-.436-.913-.957-.913a.918.918 0 0 0-.913.913c0 .523.435.957.913.957m-6.57 2.089c.522 0 .913-.436.913-.957a.892.892 0 0 0-.913-.914c-.523 0-.957.391-.957.914 0 .522.435.957.957.957m1.827-1.61c.48 0 .914-.436.914-.914 0-.522-.436-.957-.914-.957a.965.965 0 0 0-.957.957c0 .48.436.914.957.914m2.306-.697a.965.965 0 0 0 .957-.956c0-.523-.435-.914-.957-.914a.891.891 0 0 0-.913.914c0 .522.391.956.913.956m-4.09 8.05c0-.522-.435-.913-.957-.913a.919.919 0 0 0-.913.913c0 .523.436.957.913.957a.965.965 0 0 0 .957-.957m-.478-2.262c0-.523-.391-.957-.914-.957a.965.965 0 0 0-.957.957c0 .522.436.913.957.913a.892.892 0 0 0 .914-.913m-.61-1.35a.919.919 0 0 0 .914-.913c0-.522-.392-.957-.914-.957a.965.965 0 0 0-.956.957c0 .48.435.914.956.914m21.844.609c.522 1.044 1.001 1.653.913 2.437-.045.783-.913 1.348-1.262 2.175-.39-.957-.957-1.653-.913-2.393.089-.74 1.088-1.697 1.262-2.22m-13.88 0c-.523 1.045-1.001 1.654-.914 2.438.089.783.913 1.348 1.305 2.175.348-.957.957-1.653.87-2.393-.044-.74-1.088-1.697-1.262-2.22M383.168 200.07H390v4.96h-6.832v21.235c0 2.567.74 3.045 4.221 3.045H390v4.96h-4.307c-5.83 0-8.137-1.174-8.137-7.483V205.03h-5.83v-4.96h5.83V189.8h5.613zm-30.85 0h5.309v7.223h.13c2.698-5.526 6.484-8.224 12.575-8.006v5.918c-9.05 0-12.357 5.178-12.357 13.837v15.229h-5.657zm-21.582 30.024c5.918 0 10.66-4.613 10.66-12.88 0-8.354-4.742-12.967-10.66-12.967-5.874 0-10.617 4.613-10.617 12.967 0 8.267 4.743 12.88 10.617 12.88m0-30.807c10.878 0 16.622 7.876 16.622 17.927 0 9.964-5.744 17.84-16.622 17.84-10.834 0-16.578-7.876-16.578-17.84 0-10.051 5.744-17.927 16.578-17.927m-36.507 4.96c-7.57 0-10.486 6.484-10.486 12.88 0 6.744 3.046 12.967 10.791 12.967 7.702 0 10.269-6.527 10.269-13.228 0-6.396-3.307-12.619-10.574-12.619m-15.925-4.177h5.657v4.612h.13c1.87-3.742 6.222-5.395 10.921-5.395 10.53 0 15.752 8.31 15.752 17.97 0 9.66-5.178 17.797-15.621 17.797-3.525 0-8.528-1.305-11.052-5.352h-.13v17.666h-5.657zm-28.24 23.41c.174 5.047 4.57 6.614 9.182 6.614 3.524 0 8.267-.783 8.267-5.091 0-4.352-5.57-5.091-11.183-6.353-5.57-1.262-11.182-3.09-11.182-9.66 0-6.875 6.831-9.703 12.792-9.703 7.528 0 13.576 2.35 14.011 10.704h-5.613c-.39-4.351-4.22-5.744-7.962-5.744-3.35 0-7.267.914-7.267 4.352 0 4.046 5.961 4.699 11.183 5.96 5.613 1.263 11.182 3.09 11.182 9.704 0 8.18-7.614 10.791-14.533 10.791-7.702 0-14.185-3.09-14.49-11.574zm-38.725-23.41h5.265v5.44h.13c2.393-4.265 6.222-6.223 11.14-6.223 9.006 0 11.748 5.134 11.748 12.488v22.496h-5.613V211.12c0-4.177-2.655-6.875-6.919-6.875-6.831 0-10.138 4.57-10.138 10.704v19.32h-5.613zm-13.054 16.535c-2.175 1.566-6.396 1.653-10.182 2.306-3.698.653-6.875 2.002-6.875 6.179 0 3.698 3.177 5.004 6.614 5.004 7.397 0 10.443-4.613 10.443-7.745zm9.138 17.535c-1 .61-2.263.914-4.047.914-2.915 0-4.743-1.567-4.743-5.265-3.133 3.611-7.31 5.265-12.053 5.265-6.222 0-11.313-2.742-11.313-9.573 0-7.745 5.744-9.399 11.574-10.53 6.223-1.175 11.531-.783 11.531-5.047 0-4.874-4.046-5.657-7.614-5.657-4.787 0-8.268 1.436-8.529 6.483h-5.656c.347-8.485 6.874-11.443 14.49-11.443 6.178 0 12.835 1.349 12.835 9.398v17.58c0 2.653 0 3.828 1.784 3.828.48 0 1-.044 1.74-.304zm-51.17-34.07h5.308v7.223h.13c2.698-5.526 6.483-8.224 12.575-8.006v5.918c-9.094 0-12.4 5.178-12.4 13.837v15.229h-5.614zm-19.19-7.745h-15.751v-5.308h37.769v5.308h-15.752v41.946h-6.266zm-50.952 7.745h5.308v7.223h.13c2.698-5.526 6.484-8.224 12.575-8.006v5.918c-9.094 0-12.4 5.178-12.4 13.837v15.229H86.11zm-21.582 30.024c5.874 0 10.66-4.613 10.66-12.88 0-8.354-4.786-12.967-10.66-12.967-5.875 0-10.661 4.613-10.661 12.967 0 8.267 4.786 12.88 10.66 12.88m0-30.807c10.835 0 16.622 7.876 16.622 17.927 0 9.964-5.787 17.84-16.621 17.84-10.835 0-16.622-7.876-16.622-17.84 0-10.051 5.787-17.927 16.622-17.927m-29.85 5.744h-5.743v-4.96h5.743v-5.092c0-5.57 3.307-8.485 9.442-8.485 1.089 0 2.611.218 3.655.523v4.917c-1-.348-2.175-.48-3.176-.48-2.698 0-4.308.87-4.308 3.83v4.786h6.614v4.96h-6.614v29.24H34.68zm322.643-74.493h6.832v5.004h-6.832v21.234c0 2.567.74 3.002 4.264 3.002h2.568v5.004h-4.308c-5.83 0-8.137-1.219-8.137-7.484V135.54h-5.83v-5.004h5.83V120.31h5.613zm-42.729 0h5.265v5.439h.13c2.394-4.22 6.223-6.222 11.14-6.222 9.007 0 11.748 5.177 11.748 12.531v22.496h-5.613v-23.192c0-4.134-2.61-6.875-6.918-6.875-6.832 0-10.139 4.569-10.139 10.704v19.363h-5.613zm-10.573 13.837c-.305-5.352-4.308-9.66-9.877-9.66-5.875 0-9.4 4.438-9.79 9.66zm5.395 9.529c-1.523 7.57-6.918 11.661-14.62 11.661-10.921 0-16.056-7.528-16.404-18.014 0-10.269 6.744-17.796 16.1-17.796 12.096 0 15.795 11.313 15.49 19.58h-25.629c-.217 5.961 3.177 11.27 10.66 11.27 4.613 0 7.876-2.263 8.877-6.701zm-84.022-23.366h5.309v5.047h.13c2.524-3.829 6.353-5.83 11.052-5.83 4.177 0 8.006 1.653 9.399 5.83 2.306-3.655 6.353-5.83 10.704-5.83 6.831 0 11.4 2.871 11.4 9.92v25.107h-5.613v-22.453c0-4.22-1.131-7.614-6.614-7.614-5.439 0-8.963 3.437-8.963 8.746v21.32h-5.613v-22.452c0-4.438-1.393-7.614-6.397-7.614-6.7 0-9.137 6.179-9.137 8.746v21.32h-5.657Zm-10.965 0h6.788v5.004h-6.788v21.234c0 2.567.696 3.002 4.22 3.002h2.568v5.004h-4.308c-5.787 0-8.136-1.219-8.136-7.484V135.54h-5.831v-5.004h5.83V120.31h5.657zm-30.85 0h5.265v7.223h.13c2.742-5.483 6.484-8.18 12.575-8.006v5.96c-9.05 0-12.357 5.179-12.357 13.838v15.229h-5.613zm-12.967 16.578c-2.175 1.566-6.396 1.653-10.182 2.306-3.698.653-6.874 1.958-6.874 6.135 0 3.699 3.176 5.048 6.613 5.048 7.398 0 10.443-4.656 10.443-7.745zm9.138 17.535c-1.001.566-2.263.914-4.047.914-2.915 0-4.743-1.61-4.743-5.309-3.132 3.655-7.31 5.309-12.052 5.309-6.223 0-11.314-2.785-11.314-9.616 0-7.746 5.744-9.4 11.575-10.53 6.222-1.175 11.53-.784 11.53-5.004 0-4.874-4.046-5.7-7.614-5.7-4.787 0-8.268 1.479-8.529 6.483h-5.613c.304-8.441 6.832-11.444 14.446-11.444 6.179 0 12.836 1.393 12.836 9.399v17.622c0 2.61 0 3.83 1.784 3.83.48 0 1-.09 1.741-.348zm-51.78-29.936c-7.527 0-10.443 6.483-10.443 12.923 0 6.744 3.046 12.967 10.792 12.967 7.658 0 10.225-6.57 10.225-13.228 0-6.44-3.307-12.662-10.574-12.662m-15.882-4.134h5.613v4.613h.13c1.872-3.786 6.267-5.44 10.922-5.44 10.53 0 15.752 8.355 15.752 18.015s-5.135 17.796-15.621 17.796c-3.481 0-8.529-1.349-11.052-5.352h-.13v17.666h-5.614zm-10.66 13.794c-.26-5.352-4.308-9.66-9.877-9.66-5.875 0-9.399 4.438-9.79 9.66zm5.439 9.529c-1.523 7.57-6.962 11.661-14.664 11.661-10.878 0-16.056-7.528-16.404-18.014 0-10.269 6.788-17.796 16.1-17.796 12.096 0 15.795 11.313 15.49 19.58H81.76c-.173 5.961 3.177 11.27 10.66 11.27 4.657 0 7.877-2.263 8.877-6.701zm-67.27 5.57h10.443c4.308 0 15.882-1.175 15.882-18.58 0-11.27-4.177-18.101-15.751-18.101H39.596Zm-6.31-41.946h16.23c14.534 0 22.67 7.266 22.67 22.495 0 15.795-6.918 24.759-22.67 24.759h-16.23Z"/>
</svg>
