<svg width="100" height="70" viewBox="0 0 100 70" fill="none" xmlns="http://www.w3.org/2000/svg">
<path fill-rule="evenodd" clip-rule="evenodd" d="M99.7778 45.0278C99.2222 39.3333 97.1111 34.4722 89.1111 29.0556C85.4686 26.5435 82.4098 22.6509 79.364 18.775C74.3268 12.3648 69.3253 6 61.7778 6H4.44444C3.11111 6 1.88889 7.25 1.77778 8.91667C1.11111 14.0556 0 24.8889 0 32.1111V49.1945C0 51.6945 1.55556 53.6389 3.55556 53.7778L11.5556 54.1945C11.8889 47.9445 16.1111 42.9445 21.2222 42.9445C26.4444 42.9445 30.7778 47.8056 30.8889 54.75H70.2222C70.3333 47.8056 74.6667 42.9445 79.8889 42.9445C85.1111 42.9445 89.4444 47.8056 89.5556 54.75H97.6667C98.5556 54.75 100 53.5 100 48.5C99.9445 47.8056 99.9167 47.2848 99.8889 46.764C99.8611 46.2431 99.8333 45.7223 99.7778 45.0278ZM63.1111 26.6945C61.7778 26.6945 60.6667 25.3056 60.5556 23.6389L59.7778 11.4167L59.8888 11.4169L59.8888 11.4167C72.9667 11.4167 75.7969 19.1467 78.0683 25.3509C78.3443 26.1046 78.612 26.8357 78.8888 27.5278L63.8016 26.7253L63.1111 26.6945ZM13.6667 55.0278C13.6667 49.8889 17 45.7222 21.1111 45.7222C25.2222 45.7222 28.5556 49.8889 28.5556 55.0278C28.5556 60.1667 25.2222 64.3334 21.1111 64.3334C17 64.3334 13.6667 60.1667 13.6667 55.0278ZM72.3334 55.0278C72.3334 49.8889 75.6667 45.7222 79.7778 45.7222C83.8889 45.7222 87.2222 49.8889 87.2222 55.0278C87.2222 60.1667 83.8889 64.3334 79.7778 64.3334C75.6667 64.3334 72.3334 60.1667 72.3334 55.0278ZM44.2589 32.8694H46.3415C46.758 32.8694 47.1746 33.2042 47.3828 33.7065C47.5911 34.2087 47.5217 34.7946 47.1746 35.2132L40.8573 43.0815C40.6491 43.3326 40.302 43.5 40.0243 43.5H39.816C39.4689 43.4163 39.1218 43.0815 38.983 42.6629L36.0673 34.7946C35.8591 34.3761 35.9285 33.8739 36.1367 33.4554C36.345 33.0368 36.6921 32.7857 37.1086 32.7857H39.3301L40.3714 28.1819H36.0673C35.7202 28.1819 35.4425 28.0145 35.2343 27.6797C35.026 27.4286 34.9566 27.01 35.026 26.5915L37.178 16.3795C37.3169 15.7935 37.7334 15.375 38.2193 15.375H40.9267C41.2738 15.375 41.5515 15.5424 41.7598 15.8772C41.968 16.1283 42.0375 16.5469 41.968 16.9654L40.7879 22.49H45.092C45.4391 22.49 45.7167 22.6574 45.925 22.9922C46.1333 23.2433 46.2027 23.6618 46.1333 24.0804L44.2589 32.8694Z" fill="#60C17C"/>
</svg>
