<svg width="100" height="71" viewBox="0 0 100 71" fill="none" xmlns="http://www.w3.org/2000/svg">
<g clip-path="url(#clip0_169_1460)">
<path d="M30.34 54.3598H27.7064C27.2853 50.5416 25.2836 47.1481 22.3339 44.9205L24.7567 40.89L22.1231 39.1929L19.7003 43.3292C17.9095 42.4806 16.0128 42.0567 13.9061 42.0567C6.21598 42.0567 0 48.3141 0 56.057C0 63.7992 6.21523 70.0573 13.9061 70.0573C21.0692 70.0573 26.9692 64.6484 27.7062 57.6483H30.8668C30.5508 56.9055 30.4457 56.0577 30.3399 55.2091L30.34 54.3598ZM13.9062 66.7688C8.00706 66.7688 3.16076 61.8897 3.16076 55.9505C3.16076 50.0113 8.00706 45.1322 13.9062 45.1322C15.3811 45.1322 16.7508 45.4503 18.1197 45.9808L12.5364 55.1019C12.2204 55.6324 12.2204 56.1628 12.5364 56.6925C12.8524 57.223 13.3792 57.5411 13.9061 57.5411H24.5459C23.8081 62.7382 19.2786 66.7689 13.9061 66.7689L13.9062 66.7688ZM16.6451 54.3598L20.7536 47.572C22.7553 49.2691 24.125 51.6024 24.546 54.3598H16.6451Z" fill="#60C17C"/>
<path d="M46.2474 6.31472C46.2474 9.77038 43.4645 12.5721 40.0321 12.5721C36.599 12.5721 33.8169 9.77038 33.8169 6.31472C33.8169 2.8583 36.599 0.057373 40.0321 0.057373C43.4645 0.057373 46.2474 2.8583 46.2474 6.31472Z" fill="#60C17C"/>
<path d="M99.4467 32.6176C99.0256 32.0871 98.2879 31.769 97.5508 31.769L54.8857 30.0719L54.0428 26.7842C53.8319 26.148 53.1999 25.6175 52.568 25.6175H48.1435C47.8275 24.6631 46.9846 23.8146 45.9308 23.4965L41.2954 22.0117L39.7155 17.4515C39.1886 15.9667 38.1356 14.6941 36.6609 13.9515L35.502 13.3153C32.4474 11.7247 28.6549 12.7848 26.9692 15.8609L22.3338 24.1336L20.332 27.6336C18.8572 30.0728 19.5942 33.2547 22.0177 34.8453L33.5002 42.3759L33.9213 54.8906C34.0264 56.6935 35.291 58.3906 37.0819 58.6031C39.3995 58.9212 41.2953 57.1183 41.2953 54.8906V38.6634C41.2953 37.7091 40.8743 36.8605 40.1365 36.2242L32.2355 29.9669L35.2909 24.3449L35.712 25.6174C36.028 26.5718 36.7658 27.3146 37.7138 27.6328L43.929 29.6481C44.245 29.7539 44.6668 29.8604 45.0878 29.8604C45.9307 29.8604 46.7736 29.4365 47.3005 28.7995H51.1981L52.778 34.633H43.4022C44.14 35.5874 44.561 36.6483 44.6661 37.815H48.5637L44.7713 43.118V48.421L52.4614 37.815H53.6202L58.3613 55.1022L44.6662 54.5718V54.8899C44.6662 55.9508 44.4553 56.7986 44.0342 57.7537L65.6301 58.6023C66.157 64.9662 71.5293 70.0567 77.9556 70.0567C84.8028 70.0567 90.3861 64.4356 90.3861 57.542C90.3861 50.6485 84.8028 45.0273 77.9556 45.0273C71.8456 45.0273 66.6832 49.5875 65.7353 55.5275L62.5747 55.4217C63.6285 47.7854 70.1597 41.9519 77.9556 41.9519C86.4885 41.9519 93.5467 48.952 93.5467 57.6486V57.7544H95.7593C97.129 57.7544 98.2878 56.6934 98.393 55.3152L99.9729 34.8456C100.079 33.8897 99.8678 33.1477 99.4467 32.6172L99.4467 32.6176ZM78.0614 47.9961C83.2236 47.9961 87.3321 52.2381 87.3321 57.3296C87.3321 62.5267 83.1186 66.663 78.0614 66.663C73.3211 66.663 69.4227 63.1631 68.8965 58.4962L78.0614 58.8143C78.9043 58.8143 79.6413 58.1781 79.6413 57.3295C79.6413 56.481 79.0094 55.7389 78.1665 55.7389L69.0016 55.5266C69.8445 51.2838 73.637 47.996 78.0614 47.996L78.0614 47.9961Z" fill="#60C17C"/>
</g>
<defs>
<clipPath id="clip0_169_1460">
<rect width="100" height="70" fill="white" transform="translate(0 0.057373)"/>
</clipPath>
</defs>
</svg>
