<svg width="100" height="70" viewBox="0 0 100 70" fill="none" xmlns="http://www.w3.org/2000/svg">
<path d="M79.7778 45.7222C75.6667 45.7222 72.3334 49.8889 72.3334 55.0278C72.3334 60.1667 75.6667 64.3334 79.7778 64.3334C83.8889 64.3334 87.2222 60.1667 87.2222 55.0278C87.2222 49.8889 83.8889 45.7222 79.7778 45.7222Z" fill="#60C17C"/>
<path d="M21.1112 45.7222C17.0001 45.7222 13.6667 49.8889 13.6667 55.0278C13.6667 60.1667 17.0001 64.3334 21.1112 64.3334C25.2223 64.3334 28.5556 60.1667 28.5556 55.0278C28.5556 49.8889 25.2223 45.7222 21.1112 45.7222Z" fill="#60C17C"/>
<path d="M99.7778 45.0278C99.2222 39.3333 97.1111 34.4722 89.1111 29.0556C79.4444 22.3889 73.8889 6 61.7778 6H4.44444C3.11111 6 1.88889 7.25 1.77778 8.91667C1.11111 14.0556 0 24.8889 0 32.1111V49.1945C0 51.6945 1.55556 53.6389 3.55556 53.7778L11.5556 54.1945C11.8889 47.9445 16.1111 42.9445 21.2222 42.9445C26.4444 42.9445 30.7778 47.8056 30.8889 54.75H70.2222C70.3333 47.8056 74.6667 42.9445 79.8889 42.9445C85.1111 42.9445 89.4444 47.8056 89.5556 54.75H97.6667C98.5556 54.75 100 53.5 100 48.5C99.8889 47.1111 99.8889 46.4167 99.7778 45.0278ZM63.1111 26.6945C61.7778 26.6945 60.6667 25.3056 60.5556 23.6389L59.7778 11.4167C74.4444 11.4167 76.2222 21.1389 78.6667 27.3889L63.1111 26.6945Z" fill="#60C17C"/>
</svg>
