<svg width="920" height="920" viewBox="0 0 920 920" fill="none" xmlns="http://www.w3.org/2000/svg">
<g clip-path="url(#clip0_188_1685)">
<path d="M460.334 900C703.34 900 900.334 703.005 900.334 460C900.334 216.995 703.34 20 460.334 20C217.329 20 20.3345 216.995 20.3345 460C20.3345 703.005 217.329 900 460.334 900Z" fill="#DDEDE6" stroke="#9CAA9C" stroke-width="40" stroke-miterlimit="10"/>
<path d="M286.255 330.07C279.135 320.07 277.815 316.36 278.605 305.82L279.395 293.16L290.475 292.37C300.475 291.58 301.815 292.37 305.765 299.49C307.875 303.97 311.565 307.66 313.675 307.66C319.735 307.66 325.535 318.74 325.535 330.6V341.94H310.245C294.955 341.94 294.695 341.68 286.255 330.07V330.07Z" fill="#324A3A"/>
<path d="M428.335 651C428.056 646.148 426.207 641.518 423.065 637.81C419.375 634.12 417.795 628.58 417.795 620.67V609.3L439.415 596.11C451.335 589 465.335 581.08 470.335 578.71C480.335 573.44 494.335 572.38 494.335 576.6C494.335 578.18 496.705 579.24 499.335 579.24C513.335 579.24 515.945 587.15 509.885 609.56C506.195 622.74 500.125 629.33 485.095 636.98C478.765 640.14 472.705 643.84 471.915 645.42C470.855 646.74 467.435 647.79 464.265 647.79C460.845 647.79 455.035 650.16 451.345 653.06C447.655 655.96 441.065 658.34 436.585 658.34C429.465 658.34 428.405 657.55 428.405 650.96L428.335 651Z" fill="#3D5060"/>
<path d="M386.185 320.85C386.185 319.53 382.755 318.21 378.275 318.21C371.945 318.21 370.095 316.89 368.785 311.09C367.534 306.384 365.672 301.862 363.245 297.64C361.135 293.95 359.815 286.57 360.345 279.19C361.135 267.59 361.665 266.8 369.045 266C373.525 265.48 378.045 263.89 379.325 262.58C381.584 261.049 384.246 260.221 386.975 260.2C390.665 260.2 391.455 259.15 390.135 255.72C388.815 253.08 387.505 247.02 386.715 242.54C386.185 237.79 384.075 233.84 382.495 233.84C380.645 233.84 376.165 232.26 372.205 230.67C362.715 226.19 362.455 214.06 371.685 205.1C375.375 201.67 378.275 197.45 378.275 195.34C378.292 194.838 378.407 194.345 378.615 193.888C378.822 193.431 379.118 193.019 379.485 192.676C379.852 192.334 380.283 192.067 380.753 191.891C381.223 191.715 381.723 191.633 382.225 191.65C383.273 191.638 384.276 191.219 385.022 190.482C385.768 189.746 386.199 188.748 386.225 187.7C386.225 185.32 388.335 182.7 390.965 181.9C393.345 180.84 396.245 178.73 397.295 177.15C399.665 173.46 438.165 169.5 445.025 172.15C447.395 172.94 449.505 175.31 449.505 177.42C449.505 182.96 453.195 181.91 460.045 174.52C464.535 169.78 469.045 167.93 475.865 167.93H485.625L487.475 186.65C488.785 199.04 488.475 206.43 486.675 208.27C480.615 214.34 484.045 216.71 497.755 215.92C508.035 215.13 512.755 215.92 515.155 219.08C517.265 221.45 520.425 223.3 522.275 223.3C524.385 223.3 525.965 225.67 525.965 228.57C525.965 231.47 524.385 233.85 522.535 233.85C520.425 233.85 516.735 236.22 514.365 238.85C509.885 243.85 509.885 244.38 515.155 250.18C519.635 254.93 521.485 255.46 523.065 252.82C525.965 247.82 527.815 248.34 535.195 256.51L541.785 263.63L544.155 257.3C546.005 252.56 546.795 252.3 546.795 255.72C547.055 258.09 548.375 260.2 549.695 260.2C551.275 260.2 552.335 264.2 552.335 268.9C552.335 275.5 550.745 278.4 544.685 282.09C536.245 287.09 515.415 288.15 515.415 283.93C515.415 282.09 510.675 281.82 502.495 282.93C491.685 284.25 488.785 283.72 484.045 278.93C481.145 276.03 478.505 272.34 478.505 270.76C478.505 269.44 476.395 268.12 473.505 268.12C463.225 268.12 456.365 248.12 462.955 235.96C467.175 228.05 463.755 227.26 456.895 234.37C450.035 241.48 438.655 247 431.005 247C425.205 247 425.465 245.15 425.465 284.7C425.735 321.35 424.465 323.46 402.795 323.46C393.565 323.46 386.185 322.41 386.185 320.83V320.85Z" fill="#3D5060"/>
<path d="M486.335 690C486.335 675 486.075 674.18 479.745 674.18C465.745 674.18 449.425 659.68 449.425 647.55C449.425 641.22 450.425 639.9 455.755 639.9C459.445 639.9 462.865 638.85 463.925 637.53C464.715 635.95 470.775 632.26 477.105 629.09C483.695 625.93 491.605 620.39 494.775 616.96C498.995 612.48 503.215 610.9 511.645 610.9C528.255 610.9 531.155 612.74 531.155 623.29C531.155 629.88 533.005 634.63 537.755 638.85C545.395 645.7 546.455 658.36 540.385 664.69C537.751 667.317 536.418 673.907 536.385 684.46C536.385 703.97 534.005 705.82 506.325 705.82H486.335V690Z" fill="#3F6570"/>
<path d="M415.185 600.07C415.185 581.61 419.665 563.42 424.415 563.42C426.265 563.42 430.215 561.05 433.645 558.15C437.075 555.25 443.135 552.87 447.355 552.87C452.625 552.87 454.735 551.55 454.735 548.13C454.735 545.49 456.315 540.22 458.165 536.26C460.535 530.72 463.165 529.14 470.025 529.14C474.515 529.14 478.465 530.2 478.465 531.51C478.465 532.57 487.465 534.42 498.465 535.21C509.535 536.21 519.555 537.58 520.875 538.63C522.195 539.42 523.245 544.43 523.245 549.71C523.245 557.88 521.665 560.52 514.025 565.53C509.025 568.69 504.265 571.33 503.475 571.33C502.685 571.33 499.335 574 495.335 577.39C492.738 579.699 489.91 581.733 486.895 583.46C482.145 583.98 470.015 590.31 449.975 602.7C437.855 610.09 425.195 616.15 421.505 616.15C415.445 616.15 415.185 615.36 415.185 600.07Z" fill="#3F6570"/>
<path d="M300.755 370.94C286.515 357.5 285.995 356.71 285.995 342.94C285.995 329.5 286.515 328.71 292.315 328.71C296.005 328.71 299.705 330.02 300.495 331.34C301.335 333 306.335 334 311.335 334C318.455 334 320.335 333 320.335 329C320.206 327.268 319.689 325.587 318.824 324.081C317.959 322.575 316.766 321.283 315.335 320.3C311.905 317.93 309.805 312.13 308.485 302.37C306.105 281.28 305.585 260.97 307.695 258.87C308.745 257.81 314.805 256.23 321.695 255.7C331.455 254.38 333.555 254.91 333.555 258.6C333.555 260.97 337.775 265.46 342.785 268.6C347.785 272.03 352.015 276.25 352.015 278.09C352.015 279.67 353.865 281.26 356.015 281.26C358.165 281.26 360.015 280.2 360.015 278.62C360.015 277.3 361.865 275.98 364.015 275.98C366.165 275.98 367.965 278.36 367.965 280.98C367.965 283.88 369.025 287.05 370.605 287.84C371.925 288.63 374.295 294.17 375.875 299.7C378.245 308.93 379.565 310.25 386.425 310.25C390.905 310.25 394.335 311.57 394.335 313.15C394.335 315 398.335 315.79 404.875 315L415.185 314V323.76C415.185 334.57 412.285 336.68 397.785 336.68C392.785 336.68 388.785 337.99 388.785 339.31C388.785 340.9 386.415 341.95 383.515 341.95C380.355 341.95 375.345 344.85 371.915 348.54C368.485 352.23 364.535 355.13 362.915 355.13C361.295 355.13 359.215 359.62 358.165 364.89C355.525 378.89 351.835 381.5 332.325 383.35L315.455 384.93L300.685 370.93L300.755 370.94Z" fill="#3F6570"/>
<path d="M423.095 357.5C423.095 349.59 421.255 330.34 419.095 314.5C416.935 298.66 415.925 282.86 416.715 279.43C418.825 271.78 415.925 260.18 411.975 260.18C410.395 260.18 407.755 262.03 405.905 264.67C401.905 269.94 386.135 271.52 386.135 266.51C386.135 264.67 382.135 262.29 377.135 261.24C365.005 259.13 359.475 248.05 361.585 229.86C363.425 215.36 367.115 210.09 375.295 210.09C381.885 210.09 382.675 214.04 376.345 216.42C372.655 218 373.185 218.79 378.985 221.95C382.935 224.06 387.985 225.12 390.055 224.06C394.055 222.74 395.055 225.38 394.275 234.34C393.485 241.99 401.655 254.91 407.195 254.91C411.675 254.91 419.065 246.74 416.685 244.1C416.165 243.57 415.105 235.4 414.055 225.91C412.735 211.67 412.995 209.56 415.895 212.72C418.354 215.411 421.198 217.723 424.335 219.58C428.285 221.69 429.335 224.85 428.815 230.92C428.025 239.09 428.025 239.09 435.405 235.92C440.018 233.639 444.282 230.71 448.065 227.22C452.545 222.73 455.715 222.22 471.535 223.22L489.725 224.54L482.605 229.81C471.265 238.25 467.605 246.69 472.325 254.07C473.461 255.857 475.014 257.342 476.849 258.397C478.685 259.453 480.749 260.047 482.865 260.13C487.085 260.13 489.195 261.45 488.405 263.56C487.615 265.14 489.455 268.83 492.095 271.47C496.575 275.69 496.845 275.69 497.095 271.47C497.095 268.83 497.885 268.04 498.415 269.89C499.995 273.32 514.765 271.73 520.035 267.52C522.405 265.41 523.195 266.2 523.195 270.94C523.195 277.01 523.725 277.27 548.515 277.54C562.515 277.8 575.145 279.38 576.725 280.96C578.305 282.54 579.885 289.96 580.725 297.57C581.515 309.97 580.725 312.87 573.605 322.89C565.965 333.17 564.605 333.96 552.775 333.96C542.235 333.96 539.335 332.96 533.775 326.05C530.085 321.83 525.605 318.14 523.775 318.14C521.945 318.14 518.505 316.29 516.135 314.14C510.855 308.87 507.425 311.51 507.425 320.47C507.425 336.29 504.265 344.47 497.935 346.05C494.505 346.84 491.605 348.69 491.605 350.05C491.605 353.48 476.845 360.34 468.935 360.34C464.525 360.539 460.286 362.105 456.805 364.82C454.165 367.19 445.735 369.56 437.555 370.36L423.055 371.41V357.41L423.095 357.5Z" fill="#3F6570"/>
<path d="M540.165 696.57C536.173 691.496 532.727 686.016 529.885 680.22C527.245 674.69 521.445 668.36 516.965 665.98C512.745 663.87 508.525 660.45 507.965 658.34C506.965 655.7 508.225 655.96 512.715 659.13C517.205 662.3 520.355 662.56 525.635 660.71C536.445 656.49 536.445 653.33 525.365 642.25C515.615 632.76 515.365 631.71 519.305 627.75C522.735 624.06 522.995 623.01 520.095 621.16C517.985 619.84 516.095 620.63 514.825 623.53C513.235 627.53 512.975 627.53 512.975 623.27C512.715 619.05 511.395 618.52 501.635 620.11C490.825 621.95 490.565 621.95 494.515 617.21C497.084 613.941 499.131 610.295 500.585 606.4C501.375 602.97 502.955 597.69 503.745 594.79C504.805 591.1 504.275 589.79 502.425 590.84C500.845 591.84 499.525 591.63 499.525 590.58C499.525 589.26 496.895 587.94 493.725 587.94C490.305 587.68 487.405 586.09 486.875 584.51C486.085 582.4 484.765 582.67 482.125 584.78C479.225 587.15 478.435 586.88 478.435 582.67C478.435 579.77 482.435 573.96 487.135 569.75C494.785 562.63 497.135 562.1 515.345 562.1C533.275 562.1 535.125 562.63 535.915 567.37C536.445 570.54 539.865 574.23 544.615 575.81C550.155 577.92 552.785 581.08 553.845 586.88C555.685 596.38 555.165 596.11 571.505 591.1C584.955 587.1 630.835 588.2 640.065 592.95C646.655 596.38 646.395 612.46 639.535 614.31C636.635 614.83 633.995 618.31 633.475 621.69C632.155 630.92 617.385 637.77 599.985 636.98C580.985 636.19 565.445 639.35 565.445 644.1C565.445 646.21 564.125 647.79 562.805 647.79C560.965 647.79 560.965 649.37 562.805 653.06C564.395 655.96 567.295 658.34 569.405 658.34C572.035 658.34 573.405 660.97 573.405 666.25C573.405 674.42 579.205 679.43 588.965 679.43C593.445 679.43 594.495 681.01 594.495 688.13C594.495 692.61 593.175 698.41 591.865 700.52C589.485 703.95 588.435 703.42 584.215 698.15C581.055 693.93 578.675 692.88 577.625 694.99C575.515 698.15 560.485 698.99 556.005 695.78C554.425 694.72 551.785 691.56 549.935 688.66C547.305 684.18 547.305 684.97 548.625 693.41C550.465 704.48 548.095 705.53 540.185 696.57H540.165Z" fill="#467979"/>
<path d="M418.335 568.69C419.125 552.08 420.175 549.69 427.825 542.06C434.945 534.94 439.155 533.36 451.025 532.31C465.265 531.25 473.435 534.15 472.905 540.74C472.905 542.33 472.115 542.06 471.325 540.22C470.535 537.84 468.695 538.9 466.325 543.64C464.485 547.33 463.425 552.08 464.215 553.93C466.065 558.67 458.415 564.21 452.355 562.63C449.715 562.1 445.765 562.36 443.915 563.63C441.275 565.21 441.545 566.01 445.765 566.01C449.264 566.181 452.564 567.688 454.985 570.22C457.885 573.65 457.365 573.92 450.505 572.6C446.285 571.54 441.505 570.49 439.695 569.96C437.885 569.43 435.695 569.96 434.955 571.54C434.552 572.197 433.912 572.673 433.167 572.87C432.422 573.068 431.63 572.971 430.955 572.6C429.635 571.81 428.055 574.71 427.005 579.19C425.955 583.67 423.575 587.1 421.205 587.1C417.775 587.1 417.205 583.93 418.305 568.64L418.335 568.69Z" fill="#467979"/>
<path d="M380.905 415.77C380.905 414.45 378.275 413.13 375.105 413.13C372.075 413.156 369.086 412.431 366.405 411.02C362.185 407.86 357.175 397.84 357.175 392.02C357.175 389.12 355.335 386.74 353.175 386.74C350.275 386.74 349.175 383.84 349.485 375.67C349.485 364.07 353.435 337.96 354.225 344.03C354.283 344.851 354.636 345.622 355.219 346.203C355.801 346.784 356.574 347.134 357.395 347.19C358.715 347.19 359.235 346.14 358.395 344.56C357.605 343.24 358.665 341.92 361.035 341.92C363.145 341.92 366.305 339.28 367.625 336.12C368.945 332.69 369.995 331.37 370.265 332.69C370.265 334.27 371.585 333.48 372.895 331.37C374.485 328.74 375.535 328.47 375.535 330.85C375.535 332.43 376.595 334.01 378.175 334.01C379.495 334.01 380.015 332.16 379.175 330.01C378.175 327.38 379.175 326.01 382.075 326.01C386.295 326.01 386.565 327.86 385.245 341.83C384.185 351.59 384.455 357.65 386.035 357.65C387.615 357.65 388.665 359.5 388.665 361.65C388.68 362.706 389.107 363.715 389.853 364.462C390.6 365.208 391.609 365.635 392.665 365.65C394.775 365.65 396.615 368.02 396.615 370.65C396.615 373.55 397.935 376.71 399.255 377.5C400.835 378.3 401.895 388.05 401.895 398.86V418.4H391.455C385.655 418.4 380.905 417.35 380.905 415.77V415.77Z" fill="#467979"/>
<path d="M265.955 389.93C261.955 387.55 254.355 372.26 254.355 366.99C254.355 364.09 251.715 362.99 244.595 362.99C239.055 362.99 232.465 361.15 230.095 359.3C224.025 354.82 223.505 337.15 229.305 335.04C231.675 333.99 233.255 330.04 233.255 325.82C233.255 319.75 234.315 318.17 239.325 318.17C243.231 317.875 246.977 316.489 250.135 314.17C253.295 311.79 261.205 310.17 270.135 310.17C284.365 310.17 285.135 310.7 293.335 321.24C302.335 333.11 304.405 340.76 297.815 338.12C290.695 335.48 293.335 348.4 301.815 356.31C309.455 363.43 312.625 376.09 307.085 376.09C305.765 376.09 304.445 378.2 304.445 380.83C304.445 383.21 301.285 386.9 297.325 388.74C289.685 392.3 270.695 393.09 265.955 389.93V389.93Z" fill="#467979"/>
<path d="M659.075 365.67C654.595 362.77 645.895 360.67 638.775 360.67L626.115 360.41V350.11C626.115 344.05 628.225 337.46 630.865 334.03C637.985 325.33 633.235 311.35 622.425 309.25C612.675 307.14 607.665 303.18 607.665 296.85C607.665 293.95 605.815 291.85 603.665 291.85C600.765 291.85 599.715 288.69 599.715 279.99C599.715 270.76 601.025 266.81 606.035 262.59C612.105 257.31 612.365 256.52 608.415 250.72C603.935 243.6 605.515 231.21 611.045 231.21C612.895 231.21 616.855 233.06 619.755 235.21C622.385 237.31 628.455 239.21 633.195 239.21C637.675 239.21 642.425 240.53 643.195 242.11C644.255 243.69 646.885 244.22 648.995 243.17C655.855 240.79 662.995 249.49 662.995 260.57C662.995 275.57 675.115 284.82 681.185 274.28C683.295 270.59 683.825 271.64 683.825 280.08C683.825 285.88 683.025 289.08 682.235 287.46C681.715 285.62 678.235 284.03 674.855 284.03C671.475 284.03 667.735 282.72 666.685 281.13C665.895 279.55 662.205 278.76 658.505 279.55C653.765 280.34 652.445 279.81 653.505 277.18C654.305 275.07 652.985 271.11 650.605 268.18C645.605 262.65 639.275 261.06 639.275 265.81C639.275 267.13 638.215 267.92 636.895 266.87C634.265 265.55 620.815 278.2 620.815 281.87C620.815 286.36 627.145 286.87 629.515 282.67C631.885 278.47 632.415 278.67 635.055 286.67C636.635 291.42 640.585 296.95 643.755 299.06C649.025 302.75 650.085 302.49 655.885 296.16C663.005 288.78 670.885 286.93 670.885 293.26C670.885 295.37 673.255 298.26 675.885 299.85C683.005 303.54 684.055 303.28 682.205 298.01C681.205 295.11 681.415 294.32 683.795 295.63C685.375 296.69 686.425 300.63 685.905 304.63C685.105 310.43 686.695 312.28 695.125 316.49C701.455 319.66 705.125 323.35 705.125 326.49C705.125 329.39 706.975 332.29 709.125 333.09C713.605 334.93 714.655 342.09 710.175 342.09C706.485 342.09 701.475 347.36 699.105 353.69C697.525 357.38 695.675 358.17 690.405 356.85C683.025 355.01 673.525 361.07 673.525 367.67C673.525 372.41 668.525 371.67 659.025 365.82L659.075 365.67Z" fill="#467979"/>
<path d="M682.805 365.41C682.29 364.533 682.088 363.508 682.231 362.502C682.375 361.496 682.855 360.568 683.595 359.87C685.175 358.29 686.495 358.81 687.595 361.45C689.395 366.2 685.175 369.62 682.805 365.41V365.41Z" fill="#467979"/>
<path d="M502.725 358.81C497.445 355.12 496.925 352.75 497.185 333.81C497.715 322.47 498.505 312.98 499.555 312.98C500.345 312.98 502.725 308.76 504.835 303.75C507.995 295.84 509.575 294.52 517.225 294.52C525.665 294.52 528.565 297.68 523.285 301.11C521.705 302.17 522.235 304.28 524.875 306.91C528.295 310.6 529.355 310.6 531.465 307.44C532.785 305.33 533.835 305.07 533.835 306.65C533.835 308.23 537.265 313.24 541.745 317.99C547.285 324.31 550.975 326.42 554.925 325.37C559.145 324.31 560.205 325.37 560.205 330.91C559.935 338.55 552.815 347.78 539.635 357.27C529.885 364.13 511.425 365.18 502.725 358.85V358.81Z" fill="#467979"/>
<path d="M420.455 517.8C420.455 493.28 421.515 483 424.675 476.94C426.785 472.19 429.955 468.5 431.265 468.5C432.575 468.5 433.645 465.6 433.645 462.17C433.645 456.9 435.225 455.84 445.775 454.26C469.235 451.1 478.725 452.15 480.315 457.95C481.105 460.85 483.735 463.23 486.375 463.23C490.065 463.23 491.125 466.39 492.435 478.23C493.235 486.67 495.345 493.79 496.925 494.32C501.405 495.9 500.085 514.32 494.815 518.84C485.585 526.75 461.065 539.14 451.305 540.72C445.775 541.78 440.495 544.41 439.705 546.52C438.915 548.63 434.705 550.22 429.425 550.22H420.425V517.8H420.455Z" fill="#408E90"/>
<path d="M646.155 624.59C645.155 622.74 641.155 621.42 637.155 621.42C633.155 621.42 627.925 619.58 625.555 617.73C621.065 614.57 621.065 614.04 625.555 610.35C628.021 608.095 630.878 606.309 633.985 605.08C637.155 604.02 636.625 603.23 632.405 600.86C626.075 597.69 583.625 596.11 578.885 598.75C576.775 600.07 575.985 595.06 575.985 583.46V566.06H584.985C589.985 566.06 595.795 567.9 598.165 570.06C601.595 573.75 602.385 572.96 604.235 562.94C607.395 547.65 614.235 545.28 638.775 551.08C649.055 553.45 659.865 555.56 663.035 555.56C669.355 555.56 675.955 562.15 676.215 568.21C676.215 570.06 678.065 573.49 680.165 575.6C685.165 580.87 685.165 597.74 680.165 604.6C678.065 607.24 676.215 611.72 676.215 614.36C676.215 619.89 669.095 623.36 665.145 619.36C661.975 616.19 655.145 618.3 650.905 623.57C648.795 626.47 647.475 626.74 646.155 624.63V624.59Z" fill="#628782"/>
<path d="M511.165 553.93C518.275 548.93 513.265 543.12 505.355 547.33C497.975 551.33 496.925 551.03 496.925 545.75C496.925 541.75 496.395 541.53 494.285 544.96C491.915 548.39 491.645 548.39 491.645 544.96C491.385 541.8 491.125 541.8 489.015 545.49C486.635 549.49 485.585 549.49 479.255 546.28C475.565 544.17 471.345 541.01 470.255 539.16C468.405 536.52 467.875 536.79 467.875 540.48C467.875 545.48 463.875 546.54 461.025 542.06C460.235 540.48 456.025 539.69 451.795 540.74C437.795 543.38 443.625 536 463.665 525.19C474.475 519.65 482.665 513.85 482.115 512.79C481.325 511.79 482.645 510.69 484.755 510.69C491.085 510.69 492.665 505.41 487.395 501.46C484.485 499.61 483.175 496.97 484.485 495.92C485.545 494.92 484.485 491.97 482.115 489.33C479.485 486.43 478.955 484.33 480.795 483C482.385 482.21 483.695 479 483.695 475.88C483.695 471.88 482.385 470.88 478.425 471.88C474.465 472.88 473.155 471.88 473.155 467.88C473.112 466.357 472.573 464.889 471.62 463.699C470.667 462.51 469.352 461.664 467.875 461.29C459.705 459.18 461.555 453.91 471.875 449.95C476.875 447.84 481.105 444.95 481.105 443.36C481.105 439.14 492.705 434.13 502.195 434.13C506.675 434.13 512.475 431.76 515.375 428.86C518.805 425.43 524.075 423.59 531.195 423.59C539.895 423.59 541.745 424.38 541.745 428.86C541.745 432.29 543.595 434.13 547.015 434.13C550.435 434.13 552.295 435.98 552.295 439.13C552.295 442.03 553.615 445.2 554.925 445.99C556.515 446.78 557.565 453.37 557.565 460.49C557.565 472.88 557.035 473.41 548.335 476.57C535.945 481.05 536.735 484.22 550.445 484.22C568.375 484.48 571.015 488.17 570.225 510.85L569.435 530.36L553.615 540.12C544.905 545.39 535.415 549.87 532.515 550.12C529.615 550.12 522.515 551.96 516.695 554.12C507.465 557.35 506.675 557.35 511.165 553.93V553.93Z" fill="#628782"/>
<path d="M607.665 485.64C607.665 483.26 604.235 479.31 599.755 476.94C593.685 473.51 591.575 470.08 590.255 461.38C589.465 455.05 589.205 448.46 589.995 446.61C592.105 441.08 635.345 427.89 645.365 430C656.435 432.38 665.665 443.19 665.665 454.26C665.665 461.38 664.345 463.49 659.605 464.54C656.435 465.6 652.485 468.76 651.165 471.93C649.199 475.477 646.274 478.399 642.725 480.36C639.305 481.68 636.665 484.36 636.665 486.16C636.665 488.54 632.185 489.59 622.165 489.59C610.825 489.59 607.665 488.8 607.665 485.59V485.64Z" fill="#628782"/>
<path d="M439.705 413.39C429.955 410.49 425.705 407.86 425.705 404.69C425.705 402.32 424.645 399.42 423.065 398.63C421.745 397.84 420.425 394.15 420.425 390.98C420.425 385.18 419.905 384.92 409.885 387.82C397.518 390.98 390.668 388.08 389.335 379.12C388.805 376.22 386.705 373.58 384.595 373.58C382.485 373.58 380.895 371.73 380.895 369.36C380.895 366.46 379.585 365.67 376.685 366.72C373.255 368.04 372.685 366.99 373.515 360.4C374.301 355.12 373.511 352.483 371.145 352.49C366.395 352.49 366.665 347.49 371.675 345.63C375.625 344.05 379.585 334.82 378.795 329.81C377.995 326.38 389.075 322.69 391.445 325.59C393.815 328.76 401.995 329.28 401.995 326.12C401.995 324.54 403.315 324.01 404.625 324.8C406.215 325.59 407.265 329.28 407.265 332.98C407.265 336.93 408.845 339.3 411.265 339.3C415.745 339.3 416.535 335.08 412.575 332.71C408.365 330.07 409.415 318.47 414.685 309.77C417.585 304.24 418.115 301.34 416.275 300.54C414.165 299.75 414.165 295.54 415.745 286.04C417.325 277.61 417.325 268.64 415.745 262.58C414.425 257.3 414.165 251.5 414.955 249.92C415.955 248.34 415.955 240.69 414.685 233.05C411.525 212.48 410.685 194.05 413.105 196.4C414.425 197.71 415.745 202.46 416.535 206.94C417.275 212.632 418.965 218.158 421.535 223.29C424.175 228.83 424.435 231.2 422.325 231.2C420.475 231.2 420.745 232.26 423.115 233.84C426.015 235.68 426.015 236.47 423.645 236.47C421.535 236.47 421.005 237.79 422.325 239.9C423.325 241.48 424.175 254.14 424.435 267.59C424.435 286.31 425.225 292.59 428.385 294.48C431.025 296.33 431.285 297.12 429.185 297.12C428.717 297.136 428.256 297.243 427.83 297.438C427.404 297.632 427.021 297.908 426.702 298.251C426.383 298.594 426.135 298.997 425.973 299.436C425.81 299.875 425.736 300.342 425.755 300.81C425.755 303.18 427.595 303.97 431.025 303.18C435.025 302.18 436.295 303.18 436.295 307.4C436.295 310.56 434.455 313.73 432.295 314.52C427.295 316.63 427.025 328.76 432.035 328.76C434.935 328.76 435.195 330.87 433.615 337.98C432.035 345.37 432.295 347.21 435.455 347.21C437.565 347.21 438.355 346.16 437.565 344.58C436.775 343.26 437.835 341.94 439.945 341.94C446.005 341.94 444.945 346.16 437.565 351.94C428.565 359.06 428.865 364.07 438.355 361.69C442.599 360.628 446.558 358.648 449.955 355.89C452.595 353.52 458.665 351.41 463.145 351.15C467.885 350.62 473.685 350.09 475.795 349.57C480.795 348.25 485.295 390.17 481.075 399.4C479.755 402.83 478.435 407.57 478.435 410.21C478.435 419.21 462.085 420.49 439.675 413.37L439.705 413.39Z" fill="#628782"/>
<path d="M576.025 353C576.025 352 571.275 351.42 565.475 352L554.925 353V340.89C554.925 331.13 556.775 326.38 564.155 316.63C574.435 303.18 574.435 302.92 570.745 293.16C568.375 287.1 567.325 286.57 564.155 289.21C560.985 291.85 559.415 291.84 556.245 289.21C553.345 286.83 552.245 286.83 552.245 288.94C552.245 290.79 551.185 291.58 549.865 290.53C549.129 290.165 548.281 290.097 547.497 290.341C546.713 290.585 546.053 291.122 545.655 291.84C544.595 293.43 542.755 293.95 541.435 292.9C539.845 292.11 540.645 289.73 543.545 287.62C547.755 284.46 547.545 284.2 539.055 283.93C531.935 283.93 530.625 284.72 533.785 286.83C536.945 289.21 537.215 290 534.045 291.05C532.205 291.84 528.245 295.27 525.045 298.7C522.145 302.13 518.985 304.5 518.185 303.97C517.135 303.18 515.285 305.82 513.445 309.25C511.865 312.67 511.595 315.57 512.915 315.57C513.571 315.628 514.18 315.933 514.62 316.423C515.06 316.913 515.298 317.552 515.285 318.21C515.285 319.53 514.495 320.58 513.445 320.58C506.855 319.53 504.445 321.37 506.065 326.12C507.375 330.34 506.585 331.39 502.065 331.39C497.845 331.39 496.795 330.39 498.065 326.39C498.855 323.49 498.325 320.59 497.005 319.54C494.105 317.96 496.745 311.89 505.445 300.03C507.815 296.6 509.925 291.03 509.925 287.63C509.925 284.23 511.245 281.31 512.565 281.31C514.145 281.31 515.195 278.93 515.195 276.31C515.195 270.24 519.195 267.31 527.595 266.82C534.975 266.55 535.505 270.82 528.385 272.62C522.585 274.2 520.995 278.68 526.535 278.68C531.535 278.68 544.995 268.92 541.535 267.61C539.425 267.08 539.685 264.71 542.325 259.7C544.695 254.95 546.805 253.37 549.445 254.95C551.625 256.132 554.179 256.415 556.565 255.74C558.405 254.95 560.785 256.27 561.565 258.64C563.935 264.97 570.265 263.64 577.385 255.21C580.815 251 586.875 246.78 590.565 245.99C596.105 244.4 597.155 242.82 596.365 238.08C595.66 234.217 596.516 230.233 598.745 227C601.905 222.52 602.165 222.52 602.165 227.79C602.165 230.96 603.485 234.38 604.805 235.18C606.385 235.97 607.445 235.44 607.445 234.12C607.445 232.54 609.285 231.22 611.665 231.22C614.295 231.22 615.355 232.8 614.565 234.91C613.775 237.02 615.355 241.77 618.255 245.19C625.375 254.42 624.575 260.75 615.355 268.92C607.175 276.31 604.275 285.8 611.135 283.16C615.135 281.58 619.045 287.91 616.675 291.86C615.875 292.92 616.935 295.29 619.045 296.86C621.675 298.97 621.945 302.93 620.365 312.16C617.465 331.16 613.765 338.52 606.655 340.37C604.657 340.816 602.827 341.82 601.378 343.267C599.93 344.714 598.923 346.543 598.475 348.54C597.155 354.08 595.315 355.13 586.345 355.13C580.545 355.13 575.805 354.34 575.805 353.02L576.025 353Z" fill="#628782"/>
<path d="M392.775 318.21C390.665 314.78 396.725 314.78 402.005 318.21C405.165 320.32 404.905 320.85 400.155 320.85C396.995 320.85 393.565 319.79 392.775 318.21Z" fill="#628782"/>
<path d="M587.625 706.32C586.045 705.32 584.725 700.52 584.985 695.78C585.255 688.92 584.195 687.34 579.985 687.34C577.085 687.34 570.755 684.97 565.985 682.07C561.215 679.17 555.695 676.79 553.595 676.79C551.745 676.79 549.105 675.48 548.315 673.89C546.995 672.05 549.635 671.78 555.965 672.84C563.605 674.42 565.455 673.89 565.455 670.47C565.455 668.09 563.875 667.04 561.765 667.83C559.392 668.884 557.018 666.247 554.645 659.92C552.795 654.65 549.645 650.43 547.525 650.43C545.685 650.43 544.885 649.11 545.945 647.53C546.735 645.95 545.945 643.53 544.095 642.25C541.195 640.41 541.725 639.88 545.685 639.62C548.752 639.349 551.837 639.349 554.905 639.62C558.075 639.88 557.805 639.35 554.385 636.45C549.635 632.76 547.785 624.06 551.745 624.06C552.745 624.06 556.225 625.91 559.125 627.75C563.875 631.18 566.245 631.18 577.585 627.75C584.705 625.64 592.085 624.85 594.455 625.64C601.575 628.81 608.455 628.54 615.815 624.85C624.255 620.63 627.945 616.15 622.935 616.15C620.565 616.15 620.825 614.83 623.985 611.93C627.155 608.77 629.265 608.24 633.485 610.61C636.385 612.2 640.865 612.72 642.975 611.93C649.565 609.3 655.625 615.62 652.465 621.69C650.885 624.33 650.095 630.39 650.355 635.14L651.145 643.84H636.385C614.495 643.84 605.005 654.12 612.915 669.15C616.345 675.21 619.245 675.48 624.515 669.94C628.515 666.25 628.735 666.51 628.735 673.63C628.735 683.63 626.365 689.98 622.935 689.98C618.935 689.98 613.175 698.41 612.935 703.98C612.935 707.41 610.565 708.46 601.865 708.46C595.535 708.46 589.205 707.46 587.625 706.35V706.32Z" fill="#569E9A"/>
<path d="M414.135 621.16C413.095 613.735 412.564 606.248 412.545 598.75C412.545 585.83 413.075 584.51 418.615 584.51C423.885 584.51 424.415 585.57 423.615 596.38C422.555 606.66 423.085 608.24 427.835 608.24C431.051 608.027 434.065 606.596 436.265 604.24C438.115 602.13 440.755 600.24 442.065 600.24C444.705 600.24 471.865 583.1 477.405 577.83C485.835 570.18 493.745 564.38 499.545 561.22C512.995 554.1 516.425 550.67 513.255 546.72C510.625 543.82 511.945 543.03 519.585 542.72C524.865 542.46 530.925 540.88 532.775 539.29C539.095 534.02 557.775 538.77 566.255 547.73C573.905 556.43 576.015 572.73 570.255 578.58C567.875 580.95 568.145 581.74 571.565 581.74C574.985 581.74 576.055 584.12 576.055 590.74C576.055 598.65 574.995 599.97 564.975 603.66C548.365 609.46 539.665 611.04 537.825 608.41C537.025 607.09 538.825 604.98 541.775 604.19C545.995 602.87 546.525 601.55 544.415 598.91C542.305 596.27 542.565 595.22 544.935 594.17C546.785 593.38 545.995 592.59 543.095 592.59C538.615 592.32 538.615 591.79 541.775 589.68C544.935 587.57 544.145 586.52 537.295 583.88C532.295 582.04 528.595 578.61 528.065 575.45C527.535 572.55 525.425 569.65 523.315 569.12C519.895 567.8 519.895 568.33 523.055 572.02C527.535 577.56 524.905 577.82 516.725 572.28C511.195 568.59 508.815 568.59 502.225 571.28C497.745 573.12 494.315 575.5 494.315 576.82C494.315 577.82 489.835 581.03 484.555 583.41C479.025 586.04 463.465 594.48 450.285 602.65C426.815 616.65 420.485 624.01 429.195 627.44C430.775 628.23 428.665 629.02 424.195 629.02C417.035 629.33 415.715 628.28 414.135 621.16V621.16Z" fill="#569E9A"/>
<path d="M243.805 560.25C238.805 558.94 233.525 556.83 232.465 555.77C229.305 552.61 235.105 540.22 242.745 533.1L249.865 526.51H240.115C234.045 526.51 228.245 524.66 224.815 521.23L219.015 515.96H239.335C257.785 515.96 259.635 515.43 259.635 510.96C259.635 500.15 279.935 494.08 298.635 499.09C303.905 500.68 304.435 502.26 304.435 520.19C304.435 536.53 303.645 540.19 298.635 544.97C295.475 547.87 290.985 550.25 288.885 550.25C283.605 550.51 275.435 556.57 275.435 560.53C275.435 563.96 256.975 563.96 243.795 560.26L243.805 560.25Z" fill="#569E9A"/>
<path d="M560.995 530.72C555.455 527.56 555.455 527.3 559.675 522.81C563.365 519.12 563.675 518.07 560.465 516.22C559.447 515.498 558.69 514.466 558.31 513.277C557.929 512.089 557.945 510.809 558.355 509.63C559.415 506.73 558.615 505.41 555.455 505.41C552.025 505.15 552.555 504.41 557.305 501.72L563.625 498.29L555.195 494.6C543.595 489.6 545.195 481.95 559.415 475.09C565.475 472.19 571.015 467.71 571.535 465.34C573.125 459.53 566.795 459.01 564.425 464.54C563.625 467.18 559.425 468.54 553.085 468.54C546.495 468.54 544.385 467.75 546.495 466.17C550.705 463.53 549.395 453.77 545.175 454.56C543.595 454.83 541.485 453.56 540.695 451.4C539.905 449.24 540.425 447.4 541.695 447.4C542.047 447.42 542.399 447.366 542.728 447.241C543.058 447.115 543.357 446.921 543.607 446.672C543.856 446.423 544.05 446.123 544.175 445.794C544.301 445.464 544.355 445.112 544.335 444.76C544.335 443.44 541.955 442.12 539.055 442.12C535.365 442.12 533.785 440.28 533.785 436.59C533.785 432.59 532.465 431.59 529.785 432.59C527.405 433.38 525.785 432.59 525.785 430.22C525.785 427.553 528.685 426.22 534.485 426.22C548.985 426.22 554.265 423.59 556.105 415.68C556.895 411.46 559.535 406.68 561.645 404.87C566.645 400.65 589.065 403.28 591.965 408.56C593.285 410.67 597.765 413.83 602.245 415.68C609.635 418.84 610.155 419.89 610.155 432.81C610.155 444.68 609.365 446.81 603.835 449.43C595.395 453.12 597.505 463.14 607.785 468.94C612.005 471.57 615.435 475 615.435 477.11C615.435 479.48 618.065 481.11 621.755 481.11C626.245 481.11 627.825 479.79 626.755 477.41C625.965 475.04 627.285 473.72 630.455 473.72C635.725 473.72 644.455 466.08 644.455 461.59C644.455 460.01 647.615 457.9 651.315 456.32L658.335 454L652.005 446.61C648.315 442.61 643.005 438.97 639.875 438.7C636.185 438.44 634.075 436.6 634.075 433.7C634.075 425.79 655.435 427.1 665.455 435.8C669.935 439.5 673.625 444.24 673.625 446.35C673.643 446.856 673.761 447.353 673.972 447.813C674.183 448.273 674.483 448.686 674.855 449.029C675.227 449.372 675.664 449.638 676.139 449.812C676.614 449.985 677.119 450.063 677.625 450.04C679.735 450.04 684.215 452.94 687.625 456.37C691.315 460.06 698.955 464.28 705.025 466.13C717.415 469.82 717.945 471.13 710.295 475.88C706.605 478.25 700.295 479.05 691.045 477.73L677.605 476.15L686.835 480.89C694.475 484.89 695.005 485.64 690.835 486.43C682.665 488.01 679.765 491.7 677.915 501.72C675.275 514.38 668.685 516.49 628.085 517.28C609.365 517.8 593.275 519.12 591.965 520.18C590.406 522.488 589.328 525.087 588.795 527.82C588.275 532.04 585.635 533.1 577.455 533.62C571.655 533.89 564.275 532.62 561.115 530.72H560.995Z" fill="#569E9A"/>
<path d="M420.455 466.13C420.455 441.61 421.255 434.22 424.455 431.59C426.565 429.74 428.405 426.84 428.405 424.73C428.405 422.89 433.405 419.98 439.745 418.14C461.105 412.34 470.855 407.07 469.545 401.53C468.755 398.89 470.065 394.94 472.175 392.83C474.285 390.72 475.075 387.55 474.025 385.97C472.965 384.13 471.915 376.97 471.915 369.62C471.655 358.02 471.125 356.44 465.325 355.12C460.575 354.12 459.785 353.01 462.155 351.43C464.005 350.43 466.375 350.11 467.155 350.9C469.005 352.75 483.765 345.1 483.765 342.2C483.765 340.89 486.665 339.04 490.095 338.2C494.095 337.14 496.955 334.51 497.475 330.55C498.005 327.39 500.115 324.75 502.225 324.75C505.125 324.75 505.915 327.39 505.385 335.83C504.595 344.83 505.385 347.43 510.665 350.83C516.995 354.83 522.265 355.05 528.065 351.63C530.175 350.04 531.225 351.63 531.225 357.43C531.225 363.23 529.385 366.65 524.635 369.82C520.945 372.19 518.045 376.15 518.045 378.82C518.045 383.82 500.115 400.97 489.835 405.98C480.345 410.2 482.715 413.1 495.375 413.1C515.935 413.1 523.315 415.74 523.315 422.59C523.315 434.72 516.995 452.65 512.775 452.65C508.285 452.65 501.695 448.96 501.965 446.32C502.225 443.95 501.435 443.68 494.845 445.79C491.675 446.85 489.565 448.69 490.365 450.01C492.735 453.7 475.595 460.01 457.925 461.88C440.795 463.72 437.365 467.94 449.755 471.37L456.085 473.21L450.015 473.48C442.105 473.74 433.145 478.48 435.015 481.39C435.535 482.71 434.485 485.08 432.375 486.93C430.265 488.78 428.375 491.93 428.375 493.78C428.358 494.282 428.242 494.775 428.035 495.232C427.827 495.689 427.531 496.101 427.165 496.444C426.798 496.786 426.367 497.053 425.897 497.23C425.427 497.406 424.927 497.487 424.425 497.47C421.265 497.47 420.425 492.2 420.425 466.1L420.455 466.13Z" fill="#569E9A"/>
<path d="M294.695 438.44C293.375 436.07 283.885 434.44 265.165 433.44C238.265 431.86 237.735 431.6 228.775 422.37C223.775 417.37 218.775 413.14 217.435 413.14C215.855 413.14 214.805 408.92 214.805 403.91C214.805 398.64 216.115 394.68 217.705 394.68C219.545 394.68 222.185 392.84 223.765 390.46C226.405 387.04 227.985 387.3 236.425 392.84C247.235 400.48 259.625 399.69 259.625 391.78C259.625 389.15 260.945 383.87 262.265 379.92L265.165 372.8L270.435 378.34C276.495 384.93 279.665 385.45 289.435 380.97C294.435 378.6 296.025 376.23 294.975 373.06C293.925 369.89 294.975 368.32 297.875 368.32C301.565 368.32 301.565 367.79 297.875 361.99C290.495 350.91 298.135 351.99 308.425 363.57C318.425 374.38 319.755 374.91 339.535 373.57C341.905 373.31 343.535 372.25 342.695 370.67C341.645 369.35 342.695 368.3 344.545 368.3C346.655 368.3 348.235 366.19 348.495 363.81C349.025 356.96 354.035 340.08 354.295 344.04C354.565 345.62 356.405 347.2 358.785 347.2C361.685 347.2 362.475 348.52 361.415 351.42C360.415 354.06 361.685 357.22 364.315 359.33C368.535 362.5 368.535 362.76 364.845 363.02C360.365 363.02 357.195 368.02 357.195 375.15C357.195 378.05 358.785 378.58 362.735 377.52C366.735 376.21 367.735 376.52 366.735 378.58C365.675 380.16 366.205 381.48 368.055 381.48C370.425 381.48 370.425 382.48 367.785 385.48C364.095 389.97 366.465 394.71 372.535 394.71C376.535 394.71 376.535 395.24 373.055 397.35C369.635 399.72 369.635 400.25 373.055 402.62C376.137 404.267 379.561 405.171 383.055 405.26C386.225 405.26 388.855 406.58 388.855 407.9C388.827 408.231 388.868 408.565 388.975 408.88C389.081 409.195 389.252 409.484 389.475 409.731C389.698 409.977 389.969 410.176 390.272 410.313C390.575 410.45 390.902 410.524 391.235 410.53C392.235 410.53 393.345 405.26 393.345 398.67C393.345 392.08 392.285 386.01 391.235 385.22C386.235 382.32 389.125 378.37 395.455 379.42C399.145 380.21 402.835 379.68 403.625 378.42C404.092 377.839 404.748 377.44 405.48 377.294C406.211 377.148 406.97 377.263 407.625 377.62C411.625 380.26 413.435 371.56 410.535 363.12C408.945 358.64 408.685 355.21 410.005 355.21C411.325 355.21 411.845 353.37 411.005 351.21C409.165 346.46 399.145 345.93 394.665 350.42C392.285 352.79 391.495 352.79 391.495 350.68C391.523 349.735 391.778 348.811 392.237 347.984C392.697 347.158 393.347 346.453 394.135 345.93C395.455 345.14 395.975 342.77 395.135 340.66C393.555 336.44 403.045 322.73 405.685 325.37C406.475 326.16 407.265 325.63 407.265 324.05C407.265 322.21 404.895 320.89 401.995 320.89C399.095 320.89 392.995 318.51 388.285 315.61L379.585 310.34H386.965C390.965 310.34 394.085 311.66 394.085 312.98C394.085 317.46 410.435 315.88 414.085 311.13C417.245 306.91 417.505 307.13 417.775 314.56C417.775 319.04 418.565 323.56 419.885 324.56C425.155 330.1 427.005 357.56 424.105 386.78C422.255 403.39 420.105 419.21 419.105 421.59C416.995 426.86 384.035 431.59 381.105 427.12C380.315 425.54 375.565 423.43 370.825 422.38C366.085 421.33 361.325 418.95 360.535 416.84C360.118 415.827 359.431 414.948 358.55 414.297C357.668 413.647 356.626 413.25 355.535 413.15C354.372 413.038 353.263 412.604 352.332 411.897C351.402 411.191 350.686 410.24 350.265 409.15C347.365 401.77 344.465 405.2 342.615 417.59C339.985 436.31 333.125 442.11 313.085 442.11C302.015 442.11 295.945 441.11 294.635 438.42L294.695 438.44Z" fill="#569E9A"/>
<path d="M564.945 561.57C562.575 561.05 558.885 557.57 556.515 554.19C554.145 550.81 549.655 547.6 546.515 547.07C535.435 545.49 537.815 536.52 551.255 528.61C564.445 520.44 568.135 519.61 572.615 524.13C576.835 528.35 582.365 524.4 578.675 519.91C576.305 517.01 577.885 515.17 586.065 510.91C595.555 506.16 598.185 505.91 613.215 508.54C633.525 512.23 639.325 516.45 639.325 528.31C639.325 536.48 638.795 537.01 630.885 537.01C611.635 537.01 594.495 547.29 594.495 558.63C594.495 562.63 592.385 563.38 582.105 563.11C574.985 562.85 567.345 562.32 564.965 561.53L564.945 561.57Z" fill="#6AAB94"/>
<path d="M523.335 487.22C523.335 478.52 528.085 471.14 533.625 471.14C536.255 471.14 543.625 467.71 549.965 463.23C558.291 458.203 567.245 454.299 576.595 451.62C596.905 446.35 602.435 442.4 601.915 433.7C601.385 428.7 599.015 425.52 592.685 422.62C587.935 420.25 583.985 417.35 583.985 416.03C583.985 412.34 572.645 410.49 569.215 413.39C567.375 414.98 565.265 419.46 564.215 423.15C562.105 432.9 551.295 437.65 539.435 434.22C528.095 431.06 520.975 434.75 518.865 445.03C517.815 450.31 515.965 452.68 512.535 452.68C507.005 452.68 505.685 448.46 510.955 446.61C515.175 445.3 508.315 431.61 503.045 431.61C501.205 431.61 499.615 430.55 499.615 428.97C499.615 427.65 503.315 426.33 508.055 426.33C518.335 426.33 517.055 424.75 505.155 422.9C498.565 421.9 495.155 422.64 492.765 425.81C489.595 430.02 489.075 429.81 484.065 424.49C478.525 418.69 476.155 399.97 480.635 399.97C481.955 399.97 491.185 392.32 501.205 382.83C515.965 369.12 520.975 365.69 528.095 365.69C536.005 365.69 536.535 365.16 536.535 356.46C536.535 351.46 537.855 347.23 539.165 347.23C540.755 347.23 541.805 345.65 541.805 343.81C541.805 338.27 553.405 328.81 559.735 328.81C564.735 328.81 565.275 329.81 563.735 337.51C562.425 344.63 562.735 345.42 565.845 343.04C571.125 338.56 584.045 339.04 584.045 343.57C584.045 345.68 585.365 347.26 586.945 347.26C588.265 347.26 588.785 346.21 587.945 344.63C587.155 343.31 587.685 341.99 589.265 341.99C590.845 341.99 591.375 340.67 590.585 339.35C589.525 337.77 593.215 334.87 598.225 332.76C603.505 330.39 607.455 327.76 607.225 326.7C606.995 325.64 608.225 321.42 610.125 317.21C611.705 312.99 612.495 306.13 611.705 301.91C610.385 296.38 610.915 294.53 614.075 294.53C616.185 294.53 618.825 295.85 619.615 297.43C620.675 299.01 623.045 299.54 625.155 298.75C627.265 297.96 628.845 298.22 628.845 299.54C628.845 300.86 632.535 302.44 637.285 303.54C643.345 304.86 644.925 305.92 642.815 308.03C640.705 310.14 640.705 312.77 642.555 317.26C645.715 324.11 649.935 325.17 654.685 320.42C656.525 318.57 657.845 318.31 657.845 319.89C657.845 321.21 652.575 327.8 645.985 334.66C632.535 348.9 631.745 351.8 640.185 353.38C644.185 354.17 643.085 354.7 636.755 354.96C628.055 355.22 617.505 362.34 591.405 385.54C588.765 387.65 585.605 389.54 584.285 389.54C582.965 389.54 581.385 391.65 580.335 394.29C579.535 396.66 577.955 400.61 577.165 402.72C575.845 405.89 576.165 406.15 579.015 403.51C583.755 399.03 596.945 399.3 606.165 404.04C610.947 406.381 616.149 407.741 621.465 408.04C625.685 408.04 634.385 409.35 640.975 410.94L652.575 413.84V426.23C652.575 437.83 652.045 438.36 645.455 438.62C641.235 438.62 629.375 441.26 618.565 444.69C602.215 449.96 598.785 452.07 596.155 458.4C593.245 466.31 589.295 468.68 589.295 462.88C589.295 458.88 579.015 471.32 578.745 475.53C578.745 476.85 574.525 480.02 569.525 481.86C564.245 483.97 558.705 487.14 557.125 488.98C553.705 493.2 531.285 493.73 531.285 489.51C531.285 487.4 529.975 487.4 527.285 489.77C523.855 492.41 523.285 492.15 523.285 487.4L523.335 487.22Z" fill="#6AAB94"/>
<path d="M249.865 390.19C242.225 389.14 241.165 388.08 241.165 381.19C241.165 375.65 239.845 373.54 236.425 373.54C233.785 373.54 228.775 370.64 225.345 366.95C218.755 359.83 208.205 359.04 201.885 365.1C196.085 370.9 192.385 367.21 191.595 354.29L190.805 341.9H199.805C204.545 341.9 210.875 340.05 213.805 337.9C219.605 333.69 232.805 332.9 238.595 336.59C242.015 338.7 241.755 339.49 237.275 342.91C231.995 346.91 231.995 346.91 237.275 350.82C240.435 353.2 245.705 354.25 250.715 353.46C258.625 352.14 267.855 358.21 264.165 361.9C263.375 362.9 264.695 367.96 267.335 373.24C269.705 378.51 271.545 384.84 270.755 387.47C269.965 391.96 267.595 392.22 249.925 390.11L249.865 390.19Z" fill="#6AAB94"/>
<path d="M464.225 237C462.645 232.52 460.275 231.2 453.945 231.2C447.615 231.2 446.565 230.41 448.945 228.04C450.951 225.682 452.068 222.696 452.105 219.6C452.105 216.17 452.905 215.12 454.215 216.96C457.115 221.44 471.095 220.96 469.515 216.44C468.725 214.33 469.245 212.74 470.565 212.74C475.045 212.74 479.795 198.24 479.005 186.9C478.475 178.2 477.155 175.83 474.255 176.9C471.625 177.95 470.565 176.37 470.565 171.9C470.565 163.46 480.845 160.56 495.355 165.04C503.642 167.392 512.106 169.064 520.665 170.04C534.105 171.62 535.165 172.41 535.955 179.27C536.485 184.01 535.695 186.39 533.055 186.39C528.575 186.39 525.675 192.19 528.055 196.14C529.055 197.73 532.275 199.57 535.175 200.63C541.505 202.47 547.825 211.96 545.725 215.63C545.259 216.275 544.58 216.736 543.808 216.929C543.036 217.123 542.221 217.039 541.505 216.69C540.185 215.63 539.125 218.01 539.125 221.43C539.125 225.13 537.285 229.34 535.175 231.19C530.175 235.41 513.815 233.04 507.175 226.97C502.425 222.75 501.115 222.75 486.085 227.5C475.278 230.933 469.212 234.36 467.885 237.78C466.075 242.8 466.075 242.8 464.225 237V237Z" fill="#6AAB94"/>
<path d="M267.535 644.89C267.286 641.049 266.301 637.291 264.635 633.82C262.265 629.6 262.265 628.02 264.635 627.23C269.375 625.64 268.065 618.79 262.785 618.79C256.195 618.79 251.715 613.79 251.715 606.4C251.715 602.18 253.295 600.33 256.455 600.33C267.005 600.33 270.965 594 270.455 578.45L270.195 563.45H307.105V572.68C307.105 583.49 308.685 584.01 317.645 575.58C325.295 568.72 329.775 562.39 333.995 552.37C335.575 548.68 340.585 543.67 345.075 541.3C364.845 531.02 371.435 526.54 366.695 526.54C360.365 526.54 346.695 518.36 346.695 514.14C346.695 512.56 341.415 510.14 334.825 509.14C327.975 508.35 322.965 505.98 322.965 504.14C322.965 502.3 319.535 500.14 315.055 499.4C310.835 498.34 305.055 495.18 302.665 492.28C297.125 485.95 291.855 460.38 291.585 440.34C291.325 428.21 292.115 426.34 296.335 426.34C297.681 426.398 298.991 426.795 300.143 427.494C301.296 428.194 302.252 429.173 302.925 430.34C305.295 436.67 320.855 435.34 326.925 428.49C329.825 425.06 331.925 421.37 331.415 420.32C331.145 419.26 331.935 415.84 333.515 413.2C335.105 410.3 335.365 407.93 334.045 407.93C332.725 407.93 331.675 404.5 331.675 400.02C331.675 393.16 332.725 392.11 339.055 392.11C343.055 392.11 349.865 395.01 354.055 398.7C358.535 402.39 363.055 405.29 364.605 405.29C365.925 405.29 368.025 407.14 368.825 409.51C369.615 411.62 371.455 412.94 372.775 411.88C373.513 411.518 374.363 411.452 375.148 411.698C375.934 411.944 376.595 412.481 376.995 413.2C377.785 414.52 381.475 415.84 385.165 415.84C389.385 415.84 391.235 416.89 389.915 418.74C388.855 420.85 390.175 421.11 394.395 419.53C397.825 418.47 402.835 417.68 405.205 417.95C408.105 417.95 410.485 415.57 411.535 411.62C412.325 408.19 414.695 405.29 416.535 405.29C423.385 405.29 425.235 480.96 420.225 560.85C416.535 622.55 417.585 618.85 403.355 618.85C396.755 618.85 389.355 617.53 386.745 615.95C381.745 612.78 367.745 616.74 367.745 621.48C367.745 622.8 365.375 624.12 362.475 624.12C359.575 624.12 357.195 625.44 357.195 626.76C357.195 628.34 352.985 629.39 347.705 629.39C340.585 629.39 337.955 628.08 336.895 624.12C336.105 621.22 333.735 618.85 331.895 618.85C331.389 618.832 330.892 618.714 330.432 618.503C329.972 618.292 329.559 617.992 329.216 617.62C328.873 617.248 328.607 616.812 328.433 616.336C328.26 615.861 328.182 615.356 328.205 614.85C328.205 610.63 316.345 609.58 305.795 612.48C300.795 613.8 288.655 635.68 288.655 643.33C288.655 645.44 284.965 647.81 280.485 648.87C268.355 651.24 267.565 650.98 267.565 644.87L267.535 644.89Z" fill="#68BDAE"/>
<path d="M446.825 703.16C446.825 695.51 446.565 695.25 433.905 695.25C419.145 695.25 417.825 693.41 417.825 675.25C417.825 666.55 418.825 663.12 422.565 661.81C429.685 658.91 433.645 654.16 433.905 647.3C434.165 642.82 434.695 642.56 435.485 645.99C436.545 650.2 437.075 650.2 443.395 645.19C451.305 639.13 457.395 638.34 457.395 643.61C457.395 645.72 460.555 651 464.245 655.48C468.995 661.28 470.835 666.02 470.045 671.03C469.525 675.25 470.575 680.03 472.425 681.84C476.645 685.54 476.905 698.98 473.215 706.1C471.105 709.79 467.675 711.1 458.715 711.1C447.375 711.1 446.845 710.84 446.845 703.19L446.825 703.16Z" fill="#7EBBA1"/>
<path d="M531.195 608.77C531.195 607.19 536.735 605.08 543.855 604.02C560.725 601.65 568.115 598.49 568.115 594.02C568.115 591.91 564.685 589.54 560.205 588.49C555.205 587.43 552.294 585.06 552.294 582.16C552.151 579.321 551.032 576.619 549.125 574.51C546.755 572.14 546.755 571.35 548.865 571.35C549.804 571.404 550.719 571.669 551.542 572.126C552.365 572.583 553.073 573.221 553.615 573.99C556.245 578.2 559.145 577.15 562.615 570.56C565.515 565.02 565.255 563.44 558.395 556.06C553.834 551.105 547.843 547.694 541.255 546.3C529.125 543.93 528.605 541.3 539.145 535.75C548.905 530.75 549.145 530.75 547.845 537.86C546.845 543.14 548.645 544.45 564.725 549.99C574.475 553.16 584.725 557.11 587.135 558.43C589.545 559.75 596.625 561.59 602.955 562.43C614.825 564.28 620.095 568.5 614.825 571.93C612.975 572.93 611.395 575.09 611.395 576.67C611.125 577.99 610.865 580.36 610.605 581.42C610.335 584.05 591.885 581.95 591.885 579.31C591.885 578.25 590.035 576.67 587.885 575.62C584.725 574.56 583.885 576.41 583.885 583.26C583.885 588.26 584.675 592.26 585.995 592.26C586.995 591.99 598.915 591.99 612.355 592.26C628.445 592.52 636.354 593.58 635.294 595.16C634.234 596.74 623.165 597.8 608.135 597.53C588.135 597.27 579.395 598.32 568.325 602.8C550.665 609.4 531.145 612.56 531.145 608.87L531.195 608.77Z" fill="#7EBBA1"/>
<path d="M436.275 542.85C436.275 541.53 446.825 534.68 459.745 527.56C472.665 520.44 482.685 513.85 482.155 512.79C481.365 511.48 482.685 510.69 485.055 510.69C487.165 510.69 490.595 507.79 492.175 504.09C493.755 500.39 497.975 496.71 501.405 495.92C504.835 494.92 510.405 490.92 513.795 486.69C517.485 482.47 521.445 479.05 523.025 479.05C524.605 479.05 525.925 477.2 525.925 475.05C525.925 472.9 528.295 471.05 531.465 471.05C541.745 471.05 557.565 459.71 557.565 452.05C557.565 445.46 562.565 443.35 566.265 448.62C569.165 452.32 571.265 452.62 581.265 449.94C587.855 448.36 598.405 445.99 604.735 444.41C611.055 443.09 617.655 440.98 619.235 439.66C620.16 438.936 621.278 438.5 622.45 438.406C623.622 438.311 624.795 438.563 625.825 439.13C628.195 440.71 623.185 443.35 611.325 447.31C585.225 455.48 536.705 479.47 526.425 488.96C521.425 493.71 518.515 498.46 519.565 500.83C520.625 503.73 516.935 505.83 505.565 509.27C497.125 511.9 487.895 516.12 484.995 518.5C480.772 521.698 476.187 524.386 471.335 526.51C466.595 528.35 462.635 530.72 462.635 532.04C462.635 533.36 461.315 534.42 459.475 534.42C457.895 534.42 454.475 536 452.355 538.11C446.815 542.85 436.265 546.02 436.265 542.85H436.275Z" fill="#7EBBA1"/>
<path d="M689.925 471.14C683.865 468.5 678.065 464.28 677.265 461.91C676.475 459.8 672.785 457.91 669.355 457.91C665.145 457.91 663.555 456.86 664.615 454.22C666.455 449.22 650.115 436.03 644.045 437.61C638.245 439.19 635.045 435.24 640.615 433.13C642.725 432.34 644.615 429.13 644.615 426.01C644.615 422.01 643.295 421.01 640.615 422.01C638.515 422.81 636.615 422.28 636.615 420.7C636.615 419.12 635.295 418.85 633.975 419.64C632.395 420.7 629.495 419.9 627.385 418.32C625.275 416.48 620.265 415.69 616.315 416.48C612.095 417.27 605.505 415.69 599.965 412.79C593.375 409.36 589.965 408.57 587.305 410.68C585.465 412.26 580.985 413.05 577.555 411.99C570.435 410.15 566.745 413.58 564.105 424.39C563.105 428.34 561.205 431.51 559.885 431.51C556.985 431.51 556.725 422.81 559.625 419.64C561.902 415.44 563.758 411.026 565.165 406.46C570.435 390.11 574.385 381.46 576.495 381.46C577.815 381.46 580.715 379.61 583.355 377.46C601.815 360.85 623.165 344.77 628.175 343.46C632.925 341.88 633.975 342.46 633.975 346.89C633.975 351.32 635.565 352.43 642.975 352.43C647.975 352.43 652.975 351.37 653.785 349.79C654.294 349.05 654.958 348.429 655.732 347.973C656.506 347.517 657.371 347.236 658.265 347.15C659.845 347.15 660.375 347.94 659.585 349C656.415 351.9 663.015 357.17 668.285 355.85C672.505 354.85 673.035 355.85 672.505 365.61C671.715 375.37 672.235 376.42 677.245 375.61C681.245 375.08 682.785 372.71 683.045 368.23C683.575 357.15 684.105 356.1 687.045 361.11C688.625 363.48 688.895 367.96 688.045 370.86C687.045 373.76 687.525 376.14 689.105 376.14C690.685 376.14 692.005 378.25 692.005 380.88C692.005 384.31 692.535 384.57 694.375 381.94C697.275 377.45 703.375 383.26 710.465 397.49C714.675 405.4 715.205 408.83 712.835 414.63C710.725 420.7 711.255 423.33 715.735 429.13C722.065 438.13 722.325 439.42 717.055 439.42C715.783 439.295 714.572 438.813 713.56 438.032C712.549 437.25 711.777 436.199 711.335 435C709.755 431 709.485 431 707.645 435.79C703.945 445.02 705.005 452.14 710.545 453.99C714.495 455.31 715.815 457.99 715.815 464.53C715.765 477.46 708.385 479.57 689.925 471.14Z" fill="#7EBBA1"/>
<path d="M419.405 458.48C417.555 452.94 417.825 418.67 419.665 404.96C420.455 397.31 422.045 394.96 427.315 393.88C432.315 393.09 433.645 393.88 433.645 397.88C433.645 400.78 434.965 402.62 437.075 401.83C438.655 401.3 439.975 398.67 439.975 396.29C439.445 391.02 440.765 391.02 445.505 395.77C448.405 398.4 448.405 399.99 446.035 402.62C443.395 405.26 443.925 405.79 447.355 404.47C449.725 403.68 452.095 404.2 452.625 405.79C454.735 411.59 467.395 408.16 482.945 397.61C504.045 383.11 510.105 376.26 510.895 366.24C511.425 358.59 515.375 353.84 515.375 360.7C515.375 362.28 520.375 359.38 526.715 354.11C532.785 348.57 539.105 343.3 540.425 342.24C545.705 337.76 566.795 314.03 571.275 307.7C574.435 302.96 575.755 302.17 575.755 305.33C576.025 307.7 573.915 312.45 571.015 315.88C566.015 322.47 565.475 323.52 565.475 330.11C565.357 331.404 564.873 332.638 564.08 333.667C563.286 334.695 562.216 335.477 560.995 335.92C554.925 338.29 549.915 344.92 549.655 350.68C549.655 353.05 548.075 355.16 546.495 355.16C544.645 355.16 545.965 357.01 549.125 359.38C552.555 361.75 556.775 363.07 558.355 362.28C560.205 361.49 563.895 362.55 566.795 364.65C571.275 367.82 571.275 368.35 567.325 368.35C566.174 368.323 565.058 368.749 564.219 369.536C563.379 370.324 562.882 371.41 562.835 372.56C562.835 374.67 561.835 375.99 560.465 375.2C559.095 374.41 557.565 376.26 556.775 379.2C555.985 382.36 554.135 383.94 552.555 383.2C551.235 382.15 549.655 384.26 549.125 387.42C548.595 390.58 546.755 393.75 544.645 394.28C542.005 395.07 541.485 394.28 542.535 391.11C543.595 388.74 543.065 386.89 541.745 386.89C540.425 386.89 538.585 383.99 537.525 380.56C536.475 375.82 534.625 374.76 529.355 375.29C525.665 375.56 521.705 376.87 520.915 378.19C520.125 379.51 515.915 381.88 511.915 383.73C507.915 385.31 504.005 389 502.915 391.38C501.323 394.779 499.084 397.836 496.325 400.38C493.685 402.75 492.375 405.38 493.425 406.44C494.215 407.24 493.165 408.03 490.785 408.03C485.255 408.03 485.255 409.87 490.265 414.88C499.755 424.64 490.525 433.34 480.765 424.11C473.915 417.78 473.125 417.78 464.685 420.95C461.255 422.26 453.615 424.64 447.545 426.22C441.215 428.06 436.205 430.7 436.205 432.28C436.205 433.86 434.365 437.56 431.995 440.19C428.565 443.88 428.295 445.73 430.675 448.63C432.785 451 432.785 452.85 431.195 453.9C430.394 454.552 429.852 455.468 429.669 456.485C429.485 457.501 429.672 458.55 430.195 459.44C430.985 462.08 429.935 463.44 426.195 463.44C423.285 463.44 420.125 461.33 419.335 458.69L419.405 458.48Z" fill="#7EBBA1"/>
<path d="M362.455 415.77C362.455 414.18 361.135 413.66 359.815 414.45C357.445 416.03 351.375 411.81 333.445 396.78C322.635 387.55 312.355 381.49 307.615 381.49C302.875 381.49 302.615 380.7 304.975 372.26L307.875 363.26L315.525 369.58C319.735 373.28 324.225 376.18 325.015 376.18C326.065 376.18 330.285 379.34 334.505 383.3C339.775 388.04 342.675 389.36 343.505 387.25C344.305 384.61 345.355 384.61 348.255 386.99C350.365 388.57 351.945 390.99 351.945 392.26C351.945 395.95 360.645 405.18 364.075 405.18C365.925 405.18 368.075 407.03 368.825 409.4C369.615 411.51 371.725 412.56 373.305 411.51C375.145 410.45 375.945 411.24 375.145 413.35C373.565 417.84 362.495 419.94 362.495 415.73L362.455 415.77Z" fill="#7EBBA1"/>
<path d="M307.335 316.63C303.148 314.276 299.689 310.817 297.335 306.63C295.225 302.94 292.595 299.77 291.005 299.77C286.795 299.77 284.945 307.95 288.375 313.22C291.005 317.7 290.485 318.22 283.625 318.22C279.405 318.22 275.455 316.64 274.395 314.22C273.949 313.096 273.192 312.123 272.213 311.414C271.233 310.705 270.072 310.291 268.865 310.22C265.965 310.22 264.865 307.32 264.865 299.67C264.865 291.24 265.925 289.13 269.865 289.13C273.295 289.13 275.145 286.75 276.455 281.22C277.515 274.89 279.355 273.31 284.635 273.31C288.325 273.31 291.225 271.99 291.225 270.41C291.225 265.13 299.925 260.41 309.415 260.12C315.215 260.12 317.855 261.18 316.795 263.55C312.055 276.73 312.055 278.55 318.905 285.44C325.755 292.33 325.765 294.14 319.695 303.1C316.795 307.1 317.065 308.37 321.015 310.48C323.395 312.07 325.495 314.17 325.495 315.23C325.535 319.26 313.935 319.79 307.335 316.63V316.63Z" fill="#7EBBA1"/>
<path d="M429.735 171.52C439.925 173.72 441.285 175.57 442.345 177.68C443.925 180.05 446.825 181.1 450.785 180.05C455.265 178.99 457.105 179.79 458.165 183.48C458.955 187.17 457.635 189.01 452.895 190.33C445.775 192.18 441.555 190.33 441.555 185.06C441.555 180.84 434.165 177.68 430.215 180.31C428.635 181.37 422.835 181.9 417.295 181.37C410.175 181.1 406.745 182.16 405.695 185.06C405.241 186.128 404.516 187.059 403.591 187.761C402.667 188.462 401.575 188.91 400.425 189.06C399.261 189.173 398.151 189.607 397.219 190.313C396.286 191.019 395.568 191.97 395.145 193.06C393.035 198.06 386.145 198.33 386.145 193.32C386.145 191.21 388.515 188.84 391.145 187.79C394.045 186.99 397.995 182.79 399.845 178.29C403.005 171.17 404.065 170.38 412.495 171.97C420.405 173.28 415.395 172.38 421.385 171.17" fill="#9ACFA3"/>
<path d="M288.625 667.83C288.625 664.67 282.295 660.45 272.275 657.28C266.475 655.44 266.215 646.47 271.485 637.28C274.385 632.28 275.175 631.75 275.485 635.44C275.485 640.98 280.755 641.5 280.755 635.97C280.755 628.58 292.625 605.91 296.845 604.85C299.215 604.33 301.585 600.64 302.375 596.68C303.435 591.41 302.645 589.82 298.945 589.82C291.835 589.82 290.245 585.08 295.255 577.7L299.475 571.1L288.135 571.9C277.855 572.69 276.805 573.48 275.485 580.6C274.165 587.19 273.635 587.72 272.055 583.76C271.055 581.12 270.215 575.32 270.215 571.1C270.215 562.93 271.525 563.19 239.885 562.1C230.665 561.84 229.075 557.35 233.565 546.02C236.195 539.42 236.725 539.16 238.305 543.12C239.365 545.75 241.205 548.12 242.525 548.12C244.474 548.186 246.339 548.932 247.795 550.23C249.385 551.23 254.655 553.13 259.665 553.92C265.725 555.23 267.575 554.97 265.205 553.39C262.565 551.28 263.885 549.7 271.795 546.27C291.305 537.83 293.675 536.27 292.355 533.88C291.565 532.82 292.355 531.77 293.675 531.77C298.945 531.77 296.575 522.01 290.775 517.77L284.715 513.56H290.775C294.205 513.29 296.575 511.71 296.575 509.07C296.575 504.59 287.575 504.85 269.685 509.34C263.615 510.92 262.305 510.34 262.305 506.7C262.305 502.7 260.715 502.22 251.495 503.8C245.425 504.8 238.835 507.23 236.725 509.34C232.245 513.82 215.895 514.61 213.525 510.34C212.465 509.02 212.465 500.85 213.525 492.68C215.365 477.91 215.635 477.38 227.525 471.58C234.385 468.42 243.875 465.78 248.615 465.78C256.525 465.78 257.055 465.26 257.055 456.78C257.055 451.78 257.845 445.97 258.635 443.86C259.695 440.96 257.325 439.38 249.415 438.06C239.125 436.48 238.605 435.68 238.605 426.98C238.605 419.07 239.125 417.98 242.295 420.92C245.258 422.833 248.789 423.669 252.295 423.29C255.715 423.03 260.465 423.56 263.105 424.87C264.506 425.385 266.015 425.536 267.49 425.306C268.964 425.077 270.357 424.476 271.535 423.56C274.705 420.92 277.075 420.92 282.345 423.29C286.045 424.87 291.345 426.19 293.955 426.19C298.165 426.19 299.225 428.04 299.485 436.19C299.755 452.8 305.555 478.38 310.565 484.19C312.935 487.09 318.735 490.25 322.955 491.31C327.435 492.1 330.865 494.21 330.865 496.31C330.865 498.15 332.975 499.74 335.605 499.74C338.896 499.821 342.169 500.26 345.365 501.05C347.801 501.613 350.264 502.054 352.745 502.37C353.805 502.64 354.595 504.22 354.595 506.06C354.595 509.49 367.775 518.46 373.045 518.46C374.635 518.46 379.905 521.36 384.655 525.05C395.195 532.96 405.485 533.48 412.595 526.37C417.875 521.09 417.875 521.09 417.875 534.28C417.875 541.66 416.815 547.46 415.235 547.46C413.915 547.46 412.595 545.88 412.595 543.77C412.595 539.02 406.275 537.7 387.285 537.44C372.525 537.44 359.865 542.71 354.285 550.89C353.917 551.482 353.416 551.981 352.823 552.347C352.23 552.713 351.559 552.937 350.865 553C346.115 552.2 344.795 553.26 342.165 560.11C337.675 570.11 332.935 576.99 327.655 580.94C322.335 585.3 314.465 600.6 316.335 602.7C317.125 603.5 320.285 602.7 323.185 600.86C329.255 596.86 336.105 600.6 336.105 607.19C336.093 607.678 336.18 608.163 336.361 608.617C336.542 609.07 336.813 609.482 337.158 609.827C337.503 610.172 337.915 610.443 338.368 610.624C338.822 610.805 339.307 610.892 339.795 610.88C341.645 610.88 344.285 613.51 345.335 616.94C346.385 620.37 347.445 621.42 348.495 619.58C350.345 614.31 354.565 615.58 354.565 621.16C354.565 630.92 351.395 634.61 343.485 634.61C333.735 634.61 321.865 641.46 317.385 649.61C311.585 660.42 288.645 675.18 288.645 667.8L288.625 667.83Z" fill="#8AD0BA"/>
<path d="M677.005 595.06C678.585 583.46 674.365 577.92 665.935 580.56C661.715 581.88 661.185 581.08 662.245 576.56C663.035 573.66 665.665 571.29 668.045 571.29C671.465 571.02 671.465 570.5 667.245 567.29C660.925 562.55 651.425 562.02 653.245 566.77C654.035 568.35 655.355 572.04 656.405 574.68C657.725 577.84 656.935 579.16 654.305 579.16C651.925 579.16 649.025 575.16 647.185 569.93C644.545 562.02 643.485 560.93 639.005 563.34C635.585 565.45 634.005 565.18 634.005 563.34C634.005 559.12 622.675 555.69 617.395 558.59C613.705 560.44 613.445 562.02 615.555 565.98C617.925 570.72 615.815 573.36 612.125 570.72C611.595 570.19 608.955 571.51 606.585 573.62C603.425 576.26 601.315 576.52 600.255 574.68C599.255 573.09 594.455 570.68 589.445 569.4C578.635 566.77 572.575 555.4 581.535 555.4C584.705 555.4 586.535 554.08 585.755 552.23C584.175 547.49 593.935 534.31 598.675 534.31C601.055 534.31 605.265 532.99 608.435 531.14C611.595 529.56 618.435 528.5 623.435 528.77L632.655 529.56L627.385 523.23C624.485 520.07 620.795 515.85 618.945 514.23C616.315 512.12 619.475 510.8 632.135 509.48C653.225 506.84 658.765 506.05 659.815 505.26C660.974 504.704 662.224 504.365 663.505 504.26C665.355 504.26 667.995 499.78 669.575 494.77C673.265 482.37 675.635 478.95 681.175 478.95C688.555 478.95 696.735 488.44 698.575 499.78C699.635 505.84 702.265 511.64 704.645 513.22C707.545 514.8 707.805 515.86 705.695 515.86C703.325 515.86 702.795 518.5 703.845 524.86C705.435 532.77 704.905 533.86 698.575 535.41C693.305 536.73 690.405 535.94 687.765 532.51C684.605 528.03 684.075 528.29 677.485 534.88C670.625 542.27 668.255 558.61 673.485 562.04C675.065 562.83 676.125 565.47 676.125 567.58C676.125 569.95 677.975 573.38 680.075 575.49C686.405 581.82 684.825 605.54 678.235 605.54C676.385 605.54 675.865 601.33 676.915 595L677.005 595.06Z" fill="#8AD0BA"/>
<path d="M363.775 650.69C359.775 647.26 346.635 644.63 346.635 647.53C346.635 648.85 343.465 649.11 339.515 648.05C332.925 646.21 332.135 644.89 332.135 635.66C332.135 627.23 332.925 625.66 336.875 626.17C339.515 626.7 343.995 624.59 346.365 621.69C349.005 618.52 352.965 616.15 355.365 616.15C356.468 616.097 357.538 615.752 358.464 615.149C359.39 614.546 360.139 613.708 360.635 612.72C361.425 610.88 366.705 607.72 372.505 605.87C381.735 602.7 384.105 602.97 391.505 606.66C396.255 609.03 401.785 610.88 403.895 610.88C406.275 610.88 407.325 614.57 407.065 623.53C406.795 630.39 406.275 633.82 405.485 631.44C403.375 623.01 392.565 625.64 387.815 635.93C380.435 651.22 370.675 657.28 363.815 650.69H363.775Z" fill="#A3DCC2"/>
<path d="M410.705 598.22C408.335 596.9 408.335 591.1 410.175 575.28C411.755 563.68 412.285 548.65 411.495 541.8C410.495 534.94 410.965 528.88 412.285 528.09C413.865 527.03 414.655 508.31 414.655 482.74C414.395 442.4 414.135 438.74 409.125 433.96C404.125 429.48 404.125 428.69 407.805 424.47C412.805 418.93 418.615 374.11 418.345 343.79C418.085 320.32 421.515 318.79 424.415 341.15C425.735 349.59 426.785 358.81 427.315 361.71C427.845 364.61 428.315 372 428.635 378.06C428.635 384.39 429.955 389.93 431.265 390.98C434.695 392.83 434.165 402.06 430.745 403.11C426.745 404.43 427.055 423.94 430.745 426.31C433.115 427.63 432.585 430.31 429.165 436.07C424.945 443.71 424.945 444.77 428.895 455.07C431.265 460.87 432.065 466.41 431.005 467.2C429.685 467.99 428.635 485.39 428.895 505.7C429.165 538.13 429.955 542.61 433.375 541.29C447.375 536.81 449.465 536.54 449.465 539.44C449.399 540.235 449.037 540.976 448.449 541.516C447.862 542.055 447.092 542.353 446.295 542.35C438.915 542.61 427.845 557.64 426.785 569.24C424.945 585.32 420.195 600.35 416.785 600.35C414.637 600.09 412.57 599.37 410.725 598.24L410.705 598.22Z" fill="#A3DCC2"/>
<path d="M239.845 523.61C217.965 520.44 212.165 518.33 208.205 512.53C202.405 504.36 203.205 502.53 211.635 504.09C215.635 504.88 217.175 504.62 215.325 503.83C212.955 502.78 212.695 501.46 214.805 498.83C219.285 493.56 221.395 469.3 217.705 464.83C216.115 462.98 215.325 459.55 216.115 457.45C217.175 454.81 214.805 451.91 208.735 449.01C203.735 446.63 198.185 444.79 196.605 444.79C195.878 444.795 195.176 444.527 194.638 444.037C194.101 443.548 193.768 442.874 193.705 442.15C193.705 440.57 190.805 438.15 187.115 436.88C176.565 432.88 177.885 420.53 189.485 413.15C194.485 410.25 199.485 405.5 200.295 402.87C201.085 399.7 205.575 397.33 211.375 396.01C216.905 395.01 222.445 392.58 224.025 390.47C226.405 387.05 228.245 387.57 236.685 393.37C244.595 398.65 247.755 399.44 251.975 397.37C259.355 393.37 258.045 389.2 249.865 389.99C243.275 390.78 242.485 389.72 241.695 382.34C241.165 377.59 239.585 373.64 238.265 373.64C236.685 373.64 236.425 372.58 237.265 371C240.165 366.52 243.855 368.1 247.015 375C249.125 379.48 252.015 381.59 256.775 381.59C268.375 381.59 270.485 384.75 268.115 396.35C266.005 406.64 266.005 406.64 254.405 405.85C248.075 405.32 239.895 402.68 236.475 399.78C230.935 395.56 229.615 395.3 226.185 398.99C221.445 403.47 221.185 402.99 232.775 410.07C237.525 412.97 241.775 416.39 241.775 417.45C242.035 420.61 248.895 430.63 250.475 429.84C251.265 429.31 255.225 429.84 259.705 430.63C266.825 432.21 268.935 435.63 267.875 442.76C265.505 458.84 265.765 463.33 269.195 466.23C270.239 467.065 271.104 468.102 271.738 469.279C272.372 470.456 272.762 471.749 272.885 473.08C272.885 476.51 270.255 477.08 259.175 475.98C239.925 474.14 223.845 482.05 222.265 494.44C221.735 499.18 221.735 503.44 222.265 504.19C224.375 506.04 230.705 502.35 229.115 499.98C228.325 498.66 230.175 497.6 233.115 497.6C236.055 497.6 241.285 496.28 244.975 494.7C253.415 490.7 270.295 493.91 270.295 499.18C270.295 502.08 271.295 502.35 275.295 500.24C279.676 498.554 284.321 497.66 289.015 497.6C294.335 497.453 299.447 495.503 303.515 492.07C310.105 485.74 318.805 487.07 323.025 494.7C326.455 501.03 319.335 510.79 311.425 510.79C307.995 510.79 304.565 512.63 303.515 514.74C301.935 519.22 290.065 520.01 287.425 516.06C286.635 514.74 288.215 513.42 291.115 513.42C299.555 513.42 297.715 508.68 288.745 506.83C278.995 504.72 267.655 511.05 267.655 518.43C267.655 522.65 259.475 527.43 254.475 526.08C253.675 526.08 247.355 525.02 239.965 523.71L239.845 523.61Z" fill="#A3DCC2"/>
<path d="M346.335 282.88C341.065 279.19 336.055 276.81 335.525 277.61C334.735 278.13 332.105 275.76 329.465 271.8C326.035 266.53 325.775 264.42 328.145 262.8C332.145 260.43 351.615 273.08 351.875 278.09C351.966 278.991 352.4 279.822 353.087 280.412C353.773 281.002 354.661 281.306 355.565 281.26C359.565 281.26 362.425 275.72 362.425 267.81C362.425 264.38 364.265 262.81 367.965 262.81C372.965 262.81 372.965 262.55 369.015 258.33C362.155 251.74 360.315 244.09 361.635 229.33C362.635 218.52 364.005 215.33 367.695 215.33C374.285 215.33 380.875 206.89 380.875 198.46C380.875 193.71 382.725 190.81 386.945 189.23C390.105 187.91 393.535 187.38 394.595 187.91C397.225 189.49 393.795 199.51 390.375 199.51C388.785 199.51 385.885 202.94 384.045 207.16C382.205 211.38 376.925 216.39 372.705 218.23C364.795 221.39 364.535 221.92 365.855 234.58C367.165 248.82 369.015 250.93 383.515 253.3C396.175 255.14 399.335 262 390.895 268.59C387.475 271.23 381.675 273.34 377.715 273.34C372.715 273.34 369.545 275.45 367.165 280.46C362.715 290.26 357.705 290.53 346.335 282.88V282.88Z" fill="#A3DCC2"/>
<path d="M441.815 715C438.915 710 434.965 705.77 433.115 705.77C431.265 705.77 428.365 703.13 427.055 699.97C425.465 695.97 421.515 693.64 417.055 693.11C411.775 692.58 409.935 691 410.985 688.63C411.359 687.66 411.408 686.595 411.123 685.595C410.838 684.595 410.235 683.716 409.405 683.09C407.555 681.77 408.615 680.46 412.565 678.87C418.635 676.76 418.895 674.39 413.625 656.46C412.305 651.98 413.095 650.4 415.995 650.4C420.745 650.4 424.435 642.49 419.685 642.49C415.465 642.22 404.685 633 404.685 629.57C404.71 629.205 404.662 628.839 404.542 628.493C404.423 628.147 404.234 627.829 403.989 627.558C403.743 627.287 403.445 627.069 403.112 626.916C402.78 626.764 402.42 626.68 402.055 626.67C400.735 626.67 399.415 624.82 399.415 622.67C399.415 620.52 398.415 618.67 396.775 618.67C395.465 618.67 394.145 616.82 394.145 614.67C394.145 612.3 396.515 610.72 400.735 610.72C407.585 610.72 408.115 609.14 407.325 597.27C407.065 593.05 408.645 589.62 411.325 588.57C417.915 586.2 420.545 589.1 420.545 598.33C420.545 610.72 424.545 622.85 430.835 629.44C434.125 633.283 436.068 638.099 436.365 643.15V650.53L443.225 645.26C447.225 642.09 451.395 639.72 452.455 639.72C457.195 639.72 454.565 644.2 448.235 647.63C444.015 649.74 441.645 653.43 441.645 657.39C441.645 660.81 440.585 663.45 439.005 663.45C437.685 663.45 436.365 665.3 436.365 667.45C436.365 669.6 434.785 670.61 432.675 669.82C427.675 667.97 425.035 672.98 426.875 680.89C428.725 688.01 433.995 689.07 439.795 683.53C442.965 680.1 444.275 680.1 448.495 683.27C452.715 686.17 453.495 690.38 453.495 705.41C453.495 726.77 450.335 729.14 441.895 714.91L441.815 715Z" fill="#B8EBC7"/>
<path d="M314.995 343.26C311.311 341.224 307.29 339.869 303.125 339.26C300.225 339.26 294.955 337.42 291.795 335.04C286.515 331.35 285.995 331.35 285.725 335.84C285.725 340.05 285.465 340.05 283.615 335.31C282.295 332.41 282.295 329.77 283.615 329.24C284.675 328.72 283.615 326.08 281.245 323.18C275.975 317.12 265.425 316.59 258.045 322.12C254.889 324.443 251.142 325.829 247.235 326.12C244.065 326.12 241.165 327.7 240.375 329.55C238.795 334.03 236.155 330.87 235.375 323.48C234.585 317.68 235.375 317.16 243.025 317.68C250.935 318.47 270.705 310.56 274.135 305.03C277.035 300.28 279.675 302.13 291.275 318.21C300.505 331.13 304.195 334.03 310.275 334.03C314.495 334.03 317.665 332.71 317.665 330.6C317.665 325.07 309.755 315.6 305.005 315.6C301.005 315.6 301.005 315.08 304.475 312.97C310.015 309.28 321.875 309.8 324.775 313.76C328.205 318.5 333.775 341.97 332.165 344.87C329.785 348.3 322.665 347.77 315.025 343.29L314.995 343.26Z" fill="#B8EBC7"/>
</g>
<defs>
<clipPath id="clip0_188_1685">
<rect width="920" height="920" fill="white"/>
</clipPath>
</defs>
</svg>
