<svg width="100" height="70" viewBox="0 0 100 70" fill="none" xmlns="http://www.w3.org/2000/svg">
<g clip-path="url(#clip0_169_1464)">
<path d="M14.8169 10.8734C13.7925 10.8734 12.9648 10.0636 12.9648 9.06117V1.81223C12.9648 0.809852 13.7925 0 14.8169 0C15.8413 0 16.6689 0.809852 16.6689 1.81223V9.06117C16.6689 10.0611 15.8413 10.8734 14.8169 10.8734Z" fill="#60C17C"/>
<path d="M48.0325 56.1811H5.55615C4.53174 56.1811 3.7041 55.3713 3.7041 54.3689C3.7041 53.3665 4.53174 52.5566 5.55615 52.5566H48.0325C49.057 52.5566 49.8846 53.3665 49.8846 54.3689C49.8854 55.3713 49.0553 56.1811 48.0334 56.1811H48.0325Z" fill="#60C17C"/>
<path d="M48.291 48.9323H44.52C43.4956 48.9323 42.668 48.1225 42.668 47.1201C42.668 46.1177 43.4956 45.3079 44.52 45.3079H48.291C49.3154 45.3079 50.143 46.1177 50.143 47.1201C50.143 48.1225 49.3154 48.9323 48.291 48.9323Z" fill="#60C17C"/>
<path d="M54.4549 45.7033C54.1952 45.7033 53.9348 45.6507 53.6826 45.5366C52.7533 45.1199 52.3457 44.0431 52.7748 43.1337C57.7364 32.5846 58.6848 20.6226 55.4496 9.45096L54.44 5.96236C54.1622 5.00042 54.7327 3.99802 55.7158 3.72616C56.6914 3.44867 57.7233 4.01094 58.0011 4.97449L59.0106 8.4631C62.4866 20.4634 61.4663 33.3145 56.1367 44.6477C55.8275 45.3119 55.1569 45.7027 54.455 45.7027L54.4549 45.7033Z" fill="#60C17C"/>
<path d="M67.8012 57.8029C66.9009 57.8029 66.1104 57.1597 65.9715 56.2609C65.8194 55.2698 66.5164 54.3475 67.5276 54.1971C71.2598 53.6477 75.0251 52.524 78.668 51.4392C84.2944 49.7612 90.1118 48.0574 96.2923 48.1755C97.3142 48.2006 98.122 49.033 98.098 50.033C98.0724 51.0168 97.2481 51.7999 96.246 51.7999H96.1997C90.6228 51.6745 85.3429 53.2392 79.7495 54.9058C75.9808 56.0312 72.0816 57.193 68.0833 57.7836C67.9866 57.7958 67.8915 57.8031 67.8014 57.8031L67.8012 57.8029Z" fill="#60C17C"/>
<path d="M67.2197 57.8464C64.9583 57.8464 62.9734 56.505 62.1233 54.3199C61.1643 51.8588 62.0051 49.2601 64.2127 47.8541C65.0742 47.3088 66.2185 47.5458 66.7757 48.3832C67.3346 49.2221 67.0924 50.3459 66.235 50.8911C65.1056 51.6103 65.4958 52.8012 65.5851 53.031C65.6744 53.2632 66.211 54.3958 67.5264 54.2016C68.5418 54.0495 69.4818 54.7308 69.6356 55.7202C69.7894 56.7096 69.0949 57.6336 68.0837 57.784C67.7902 57.8261 67.5033 57.8463 67.2197 57.8463L67.2197 57.8464Z" fill="#60C17C"/>
<path d="M97.837 48.9677C97.2458 48.9677 96.6629 48.6926 96.3058 48.1757C92.9225 43.3222 88.594 40.1186 84.4304 39.3831C79.3167 38.477 75.1924 42.6103 73.6572 44.4282C73.009 45.2 71.8383 45.3108 71.0513 44.6709C70.2625 44.0334 70.1509 42.891 70.8032 42.1209C74.9258 37.2409 80.1246 34.9374 85.0896 35.8162C92.1183 37.0597 97.0519 42.8135 99.3668 46.1329C99.9448 46.9589 99.724 48.0867 98.8798 48.6522C98.5615 48.8642 98.1961 48.9677 97.8372 48.9677L97.837 48.9677Z" fill="#60C17C"/>
<path d="M48.0332 56.1812C47.0088 56.1812 46.1812 55.3713 46.1812 54.3689C46.1812 53.3666 47.0088 52.5567 48.0332 52.5567C56.8585 52.5567 65.1571 48.751 70.8059 42.1162C71.4616 41.3459 72.6282 41.2424 73.4136 41.8824C74.2008 42.5239 74.3066 43.6655 73.6526 44.434C67.2961 51.8989 57.9582 56.1812 48.033 56.1812L48.0332 56.1812Z" fill="#60C17C"/>
<path d="M79.9255 39.6641C79.2938 39.6641 78.6812 39.3486 78.3348 38.7814L58.0251 5.5233C57.5009 4.66411 57.7862 3.55169 58.6659 3.03877C59.5398 2.52746 60.6791 2.80497 61.205 3.66577L81.5146 36.9239C82.0388 37.7831 81.7536 38.8955 80.8739 39.4084C80.577 39.5807 80.2496 39.6649 79.9255 39.6649L79.9255 39.6641Z" fill="#60C17C"/>
<path d="M83.535 69.9957C80.055 69.9957 76.6377 68.7709 73.9026 66.491C70.5781 63.7217 68.6648 59.7331 68.6524 55.5488C68.649 54.5488 69.475 53.735 70.4986 53.7309H70.5044C71.5247 53.7309 72.3532 54.5375 72.3565 55.5375C72.3655 58.6637 73.805 61.6481 76.3052 63.7307C78.8113 65.8163 82.0614 66.7297 85.2232 66.2427C88.6602 65.708 91.587 63.6165 93.2465 60.5034C94.9075 57.3862 94.9894 53.8377 93.4689 50.7658C93.0241 49.867 93.4094 48.7813 94.3304 48.3445C95.2473 47.9149 96.3586 48.2846 96.805 49.1875C98.8422 53.3014 98.7422 58.0382 96.5329 62.1813C94.3236 66.3219 90.4138 69.1059 85.8059 69.8219C85.0502 69.9376 84.2928 69.9959 83.5347 69.9959L83.535 69.9957Z" fill="#60C17C"/>
<path d="M96.3089 51.8011C96.2659 51.8011 96.222 51.7995 96.179 51.7979C95.177 51.7631 94.4361 50.9549 94.4419 49.9727C94.451 49.0051 95.2828 48.2163 96.2659 48.1766C95.697 47.3522 95.9327 46.2269 96.7735 45.6629C97.6177 45.0942 98.7884 45.3061 99.3607 46.1305C100.148 47.2559 100.212 48.7058 99.5326 49.9159C98.8753 51.0866 97.6492 51.801 96.309 51.801L96.3089 51.8011Z" fill="#60C17C"/>
<path d="M73.6836 15.1729C70.0034 15.1729 66.2754 12.7426 66.2754 8.10184C66.2754 3.46045 70.0034 1.03247 73.6836 1.03247C77.3637 1.03247 81.0918 3.46128 81.0918 8.10184C81.0918 12.7432 77.3637 15.1729 73.6836 15.1729ZM73.6836 4.65466C71.9737 4.65466 69.9795 5.55755 69.9795 8.09956C69.9795 10.6423 71.9737 11.5461 73.6836 11.5461C75.3934 11.5461 77.3877 10.6416 77.3877 8.09956C77.3877 5.55767 75.3926 4.65466 73.6836 4.65466Z" fill="#60C17C"/>
<path d="M48.291 48.9325C47.2666 48.9325 46.439 48.1226 46.439 47.1202C46.439 46.1179 47.2666 45.308 48.291 45.308C50.1538 45.308 51.8802 44.4019 52.9154 42.8867C53.4843 42.055 54.6343 41.8284 55.4844 42.3851C56.336 42.9417 56.5658 44.067 55.997 44.8988C54.2756 47.4231 51.3959 48.9327 48.2912 48.9327L48.291 48.9325Z" fill="#60C17C"/>
<path d="M49.6645 8.97636C48.8459 8.97636 48.0935 8.43998 47.8753 7.62609C47.614 6.66009 48.2052 5.66742 49.194 5.41185L59.143 2.84241C60.1211 2.59242 61.1447 3.16279 61.4059 4.13282C61.6672 5.09882 61.076 6.09149 60.0871 6.34706L50.1382 8.9165C49.9811 8.95615 49.8223 8.97637 49.6644 8.97637L49.6645 8.97636Z" fill="#60C17C"/>
<path d="M9.2602 32.9331C5.69178 32.9331 3.82471 30.1986 3.82471 27.4964C3.82471 26.1138 4.3026 24.8104 5.1691 23.8235C6.16705 22.6876 7.62142 22.0598 9.26011 22.0598C10.2845 22.0598 11.1122 22.8697 11.1122 23.872C11.1122 24.8744 10.2845 25.6843 9.26011 25.6843C8.69375 25.6843 8.27457 25.8493 7.97856 26.1859C7.69498 26.5103 7.53043 26.9868 7.53043 27.4965C7.53043 27.7991 7.61394 29.3088 9.26177 29.3088C10.2862 29.3088 11.1138 30.1186 11.1138 31.121C11.1146 32.1234 10.2845 32.9332 9.26011 32.9332L9.2602 32.9331Z" fill="#60C17C"/>
<path d="M37.1134 32.9328H9.26074C8.23633 32.9328 7.40869 32.123 7.40869 31.1206C7.40869 30.1182 8.23633 29.3083 9.26074 29.3083H37.1134C38.1378 29.3083 38.9654 30.1182 38.9654 31.1206C38.9663 32.123 38.1386 32.9328 37.1142 32.9328H37.1134Z" fill="#60C17C"/>
<path d="M37.1136 25.6843H16.8022C15.7778 25.6843 14.9502 24.8744 14.9502 23.872C14.9502 22.8697 15.7778 22.0598 16.8022 22.0598H37.1136C38.138 22.0598 38.9656 22.8697 38.9656 23.872C38.9656 24.8744 38.138 25.6843 37.1136 25.6843Z" fill="#60C17C"/>
<path d="M40.8169 29.3088C39.7925 29.3088 38.9648 28.4989 38.9648 27.4965C38.9648 26.4966 38.1347 25.6843 37.1128 25.6843C36.0884 25.6843 35.2607 24.8744 35.2607 23.872C35.2607 22.8697 36.0884 22.0598 37.1128 22.0598C40.1762 22.0598 42.6689 24.499 42.6689 27.4965C42.6689 28.4989 41.8413 29.3088 40.8169 29.3088Z" fill="#60C17C"/>
<path d="M37.1128 32.933C36.0884 32.933 35.2607 32.1232 35.2607 31.1208C35.2607 30.1184 36.0884 29.3086 37.1128 29.3086C38.1347 29.3086 38.9648 28.4963 38.9648 27.4963C38.9648 26.4939 39.7925 25.6841 40.8169 25.6841C41.8413 25.6841 42.6689 26.4939 42.6689 27.4963C42.6689 30.4961 40.1762 32.933 37.1128 32.933Z" fill="#60C17C"/>
<path d="M24.7986 70H24.649C20.5728 69.9579 16.6331 68.2023 13.8443 65.1871C11.0605 62.1751 9.67135 58.172 10.0343 54.2054C10.1269 53.2103 10.9786 52.4805 12.046 52.5638C13.0646 52.6544 13.8145 53.5331 13.7236 54.5322C13.4532 57.4933 14.4974 60.4908 16.5909 62.756C18.6894 65.0245 21.641 66.3441 24.6879 66.3772C27.6941 66.4063 30.7533 65.1248 32.9014 62.8521C35.0553 60.5722 36.1335 57.5385 35.859 54.5304C35.768 53.5336 36.5204 52.6526 37.5391 52.5644C38.5874 52.4706 39.4581 53.2132 39.5482 54.2084C39.9153 58.2348 38.4833 62.2816 35.62 65.3139C32.7998 68.2984 28.8624 69.9999 24.7987 69.9999L24.7986 70Z" fill="#60C17C"/>
<path d="M5.55615 56.1814C4.53174 56.1814 3.7041 55.3715 3.7041 54.3692V49.6103C3.7041 48.6079 4.53174 47.7981 5.55615 47.7981C6.58055 47.7981 7.40819 48.6079 7.40819 49.6103V54.3692C7.40819 55.3699 6.58055 56.1814 5.55615 56.1814Z" fill="#60C17C"/>
<path d="M5.55615 51.4218C4.53174 51.4218 3.7041 50.6119 3.7041 49.6095C3.7041 44.7382 5.25601 40.0807 8.19198 36.1431C8.79223 35.3381 9.94812 35.1569 10.7791 35.7483C11.6034 36.3373 11.787 37.4715 11.1826 38.2798C8.71377 41.5903 7.40824 45.5084 7.40824 49.6078C7.40824 50.6094 6.58059 51.4217 5.55619 51.4217L5.55615 51.4218Z" fill="#60C17C"/>
<path d="M9.68329 39.0239C9.33356 39.0239 8.97804 38.926 8.66302 38.7229C7.81142 38.1703 7.57577 37.0466 8.14046 36.2108C10.8722 32.1697 15.4545 29.5888 20.397 29.3115C21.4098 29.2694 22.2937 30.0186 22.3524 31.0153C22.4119 32.0153 21.6298 32.8712 20.6111 32.9287C16.8277 33.1407 13.3196 35.1162 11.2302 38.2092C10.8747 38.7375 10.2852 39.0239 9.68329 39.0239V39.0239Z" fill="#60C17C"/>
<path d="M40.8169 36.5573C39.7925 36.5573 38.9648 35.7474 38.9648 34.7451C38.9648 33.7451 38.1347 32.9328 37.1128 32.9328C36.0884 32.9328 35.2607 32.123 35.2607 31.1206C35.2607 30.1182 36.0884 29.3083 37.1128 29.3083C40.1762 29.3083 42.6689 31.7475 42.6689 34.7451C42.6689 35.7474 41.8413 36.5573 40.8169 36.5573Z" fill="#60C17C"/>
<path d="M40.8174 45.3077C39.793 45.3077 38.9653 44.4979 38.9653 43.4955V34.7458C38.9653 33.7434 39.793 32.9336 40.8174 32.9336C41.8418 32.9336 42.6694 33.7434 42.6694 34.7458V43.493C42.6694 44.4962 41.8418 45.3077 40.8174 45.3077V45.3077Z" fill="#60C17C"/>
<path d="M44.5215 48.9325C41.4581 48.9325 38.9653 46.4934 38.9653 43.4958C38.9653 42.4934 39.793 41.6836 40.8174 41.6836C41.8418 41.6836 42.6694 42.4934 42.6694 43.4958C42.6694 44.4958 43.4995 45.3081 44.5215 45.3081C45.5459 45.3081 46.3735 46.1179 46.3735 47.1203C46.3735 48.1227 45.5459 48.9325 44.5215 48.9325Z" fill="#60C17C"/>
<path d="M37.1126 32.9328H20.5054C19.481 32.9328 18.6533 32.123 18.6533 31.1206C18.6533 30.1182 19.481 29.3083 20.5054 29.3083H37.1126C38.137 29.3083 38.9646 30.1182 38.9646 31.1206C38.9646 32.123 38.137 32.9328 37.1126 32.9328Z" fill="#60C17C"/>
<path d="M27.7807 25.684H1.85205C0.827642 25.684 0 24.8742 0 23.8718V1.81223C0 0.809852 0.827642 0 1.85205 0H27.7807C28.8051 0 29.6327 0.809852 29.6327 1.81223V23.8718C29.6327 24.8742 28.8051 25.684 27.7807 25.684ZM3.70409 22.0596H25.9286V3.62405H3.70409V22.0596Z" fill="#60C17C"/>
</g>
<defs>
<clipPath id="clip0_169_1464">
<rect width="100" height="70" fill="white"/>
</clipPath>
</defs>
</svg>
