<svg width="100" height="70" viewBox="0 0 100 70" fill="none" xmlns="http://www.w3.org/2000/svg">
<path d="M37.6866 51.907C32.68 51.907 28.6401 55.9475 28.6401 60.9535C28.6401 65.9601 32.6806 70 37.6866 70C42.6932 70 46.7331 65.9595 46.7331 60.9535C46.7331 55.9475 42.6932 51.907 37.6866 51.907ZM37.6866 63.2374C36.457 63.2374 35.4032 62.1836 35.4032 60.954C35.4032 59.7243 36.3693 58.6705 37.6866 58.6705C38.9162 58.6705 39.97 59.7243 39.97 60.954C39.97 62.1829 38.9162 63.2374 37.6866 63.2374ZM78.9668 51.907C73.9601 51.907 69.9203 55.9475 69.9203 60.9535C69.9203 65.9601 73.9608 70 78.9668 70C83.9734 70 88.0133 65.9595 88.0133 60.9535C88.0133 55.9475 83.8852 51.907 78.9668 51.907ZM78.9668 63.2374C77.7372 63.2374 76.6833 62.1836 76.6833 60.954C76.6833 59.7243 77.7371 58.6705 78.9668 58.6705C80.1964 58.6705 81.2502 59.7243 81.2502 60.954C81.1626 62.1829 80.1964 63.2374 78.9668 63.2374ZM36.5448 20.1128H15.4656L15.5532 39.4354H36.5446L36.5448 20.1128ZM45.2401 6.85059C45.6794 9.04635 47.4359 10.8911 49.7193 11.3298C53.4082 12.0325 56.5701 9.2217 56.5701 5.70865V5.00593H59.9955V3.51289H56.2191C55.3405 1.49296 53.3207 0 50.9489 0C47.3484 0 44.5375 3.24956 45.2403 6.85075L45.2401 6.85059ZM10.6351 53.9276H17.6616V55.684H10.6351V53.9276ZM8 57.4404H19.4181V59.1969H8V57.4404ZM83.7096 48.0423C83.1827 47.8665 82.6558 47.6913 82.129 47.5154L77.21 41.1916C78.0886 41.1916 78.8789 40.9282 79.5816 40.4889V33.6382C78.8788 33.1989 78.0885 32.9355 77.21 32.9355C75.1901 32.9355 73.6088 34.2527 73.082 36.0973L67.3733 28.895C66.9341 28.2798 66.2314 27.9288 65.4411 28.1922C64.826 28.3681 64.3873 28.8073 64.2115 29.4218C63.948 30.4756 64.6508 31.3541 65.6169 31.5299L70.7987 43.5631L62.9818 55.2445H61.1371V34.5166C61.1371 33.3746 60.1709 32.4085 59.029 32.4085H50.5976L51.8272 24.8551L53.4079 27.4902C53.5837 27.8412 54.023 28.0171 54.374 28.0171H62.2784C62.8053 26.6999 64.0349 25.8213 65.4403 25.8213C65.7914 25.8213 66.2306 25.9089 66.4941 25.9972V25.7337C66.4941 24.2407 65.4403 22.7476 63.4197 22.7476H57.0083L54.1099 14.9308C53.6718 13.7888 52.6174 13.086 51.4761 13.086H47.8749C46.7329 13.086 45.5914 13.8763 45.3281 15.0183L39.9705 32.6721C38.8285 36.2733 41.4635 39.4352 45.5916 39.4352H54.9891V55.2446H52.3541V42.0701H23.1944C19.5056 42.0701 18.0126 45.9348 19.4181 48.6574L26.3563 61.3926H26.7074V60.9533C26.7074 54.8054 31.6257 49.8869 37.7738 49.8869C43.9219 49.8869 48.8403 54.8052 48.8403 60.9533C48.8403 61.3926 48.8403 61.8319 48.7527 62.2705H67.724C67.6364 61.7436 67.724 61.7436 67.724 61.1285C67.6364 56.8247 70.1832 52.7848 74.1354 50.9401C81.0737 47.6905 87.8368 51.9939 89.6815 57.8784L90.4718 57.6149L92.2289 57.088C90.6477 52.7853 87.6616 49.5359 83.7094 48.0421L83.7096 48.0423Z" fill="#60C17C"/>
</svg>
